<svg width="120" height="20" viewBox="0 0 120 20" fill="none" xmlns="http://www.w3.org/2000/svg">
<path d="M0.584102 8.7C0.584102 7.464 0.860102 6.36 1.4121 5.388C1.9761 4.404 2.7381 3.642 3.6981 3.102C4.6701 2.55 5.7561 2.274 6.9561 2.274C8.3601 2.274 9.5901 2.634 10.6461 3.354C11.7021 4.074 12.4401 5.07 12.8601 6.342H9.9621C9.6741 5.742 9.2661 5.292 8.7381 4.992C8.2221 4.692 7.6221 4.542 6.9381 4.542C6.2061 4.542 5.5521 4.716 4.9761 5.064C4.4121 5.4 3.9681 5.88 3.6441 6.504C3.3321 7.128 3.1761 7.86 3.1761 8.7C3.1761 9.528 3.3321 10.26 3.6441 10.896C3.9681 11.52 4.4121 12.006 4.9761 12.354C5.5521 12.69 6.2061 12.858 6.9381 12.858C7.6221 12.858 8.2221 12.708 8.7381 12.408C9.2661 12.096 9.6741 11.64 9.9621 11.04H12.8601C12.4401 12.324 11.7021 13.326 10.6461 14.046C9.6021 14.754 8.3721 15.108 6.9561 15.108C5.7561 15.108 4.6701 14.838 3.6981 14.298C2.7381 13.746 1.9761 12.984 1.4121 12.012C0.860102 11.04 0.584102 9.936 0.584102 8.7ZM16.7905 3.84C16.3465 3.84 15.9745 3.702 15.6745 3.426C15.3865 3.138 15.2425 2.784 15.2425 2.364C15.2425 1.944 15.3865 1.596 15.6745 1.32C15.9745 1.032 16.3465 0.887999 16.7905 0.887999C17.2345 0.887999 17.6005 1.032 17.8885 1.32C18.1885 1.596 18.3385 1.944 18.3385 2.364C18.3385 2.784 18.1885 3.138 17.8885 3.426C17.6005 3.702 17.2345 3.84 16.7905 3.84ZM18.0325 5.028V15H15.5125V5.028H18.0325ZM23.9563 7.098V11.922C23.9563 12.258 24.0343 12.504 24.1903 12.66C24.3583 12.804 24.6343 12.876 25.0183 12.876H26.1883V15H24.6043C22.4803 15 21.4183 13.968 21.4183 11.904V7.098H20.2303V5.028H21.4183V2.562H23.9563V5.028H26.1883V7.098H23.9563ZM38.0408 5.028L31.8668 19.716H29.1848L31.3448 14.748L27.3488 5.028H30.1748L32.7488 11.994L35.3588 5.028H38.0408ZM39.2872 8.7C39.2872 7.464 39.5632 6.36 40.1152 5.388C40.6792 4.404 41.4412 3.642 42.4012 3.102C43.3732 2.55 44.4592 2.274 45.6592 2.274C47.0632 2.274 48.2932 2.634 49.3492 3.354C50.4052 4.074 51.1432 5.07 51.5632 6.342H48.6652C48.3772 5.742 47.9692 5.292 47.4412 4.992C46.9252 4.692 46.3252 4.542 45.6412 4.542C44.9092 4.542 44.2552 4.716 43.6792 5.064C43.1152 5.4 42.6712 5.88 42.3472 6.504C42.0352 7.128 41.8792 7.86 41.8792 8.7C41.8792 9.528 42.0352 10.26 42.3472 10.896C42.6712 11.52 43.1152 12.006 43.6792 12.354C44.2552 12.69 44.9092 12.858 45.6412 12.858C46.3252 12.858 46.9252 12.708 47.4412 12.408C47.9692 12.096 48.3772 11.64 48.6652 11.04H51.5632C51.1432 12.324 50.4052 13.326 49.3492 14.046C48.3052 14.754 47.0752 15.108 45.6592 15.108C44.4592 15.108 43.3732 14.838 42.4012 14.298C41.4412 13.746 40.6792 12.984 40.1152 12.012C39.5632 11.04 39.2872 9.936 39.2872 8.7ZM53.5676 9.978C53.5676 8.97 53.7656 8.076 54.1616 7.296C54.5696 6.516 55.1156 5.916 55.7996 5.496C56.4956 5.076 57.2696 4.866 58.1216 4.866C58.8656 4.866 59.5136 5.016 60.0656 5.316C60.6296 5.616 61.0796 5.994 61.4156 6.45V5.028H63.9536V15H61.4156V13.542C61.0916 14.01 60.6416 14.4 60.0656 14.712C59.5016 15.012 58.8476 15.162 58.1036 15.162C57.2636 15.162 56.4956 14.946 55.7996 14.514C55.1156 14.082 54.5696 13.476 54.1616 12.696C53.7656 11.904 53.5676 10.998 53.5676 9.978ZM61.4156 10.014C61.4156 9.402 61.2956 8.88 61.0556 8.448C60.8156 8.004 60.4916 7.668 60.0836 7.44C59.6756 7.2 59.2376 7.08 58.7696 7.08C58.3016 7.08 57.8696 7.194 57.4736 7.422C57.0776 7.65 56.7536 7.986 56.5016 8.43C56.2616 8.862 56.1416 9.378 56.1416 9.978C56.1416 10.578 56.2616 11.106 56.5016 11.562C56.7536 12.006 57.0776 12.348 57.4736 12.588C57.8816 12.828 58.3136 12.948 58.7696 12.948C59.2376 12.948 59.6756 12.834 60.0836 12.606C60.4916 12.366 60.8156 12.03 61.0556 11.598C61.2956 11.154 61.4156 10.626 61.4156 10.014ZM69.8489 7.098V11.922C69.8489 12.258 69.9269 12.504 70.0829 12.66C70.2509 12.804 70.5269 12.876 70.9109 12.876H72.0809V15H70.4969C68.3729 15 67.3109 13.968 67.3109 11.904V7.098H66.1229V5.028H67.3109V2.562H69.8489V5.028H72.0809V7.098H69.8489ZM73.7454 9.978C73.7454 8.97 73.9434 8.076 74.3394 7.296C74.7474 6.516 75.2934 5.916 75.9774 5.496C76.6734 5.076 77.4474 4.866 78.2994 4.866C79.0434 4.866 79.6914 5.016 80.2434 5.316C80.8074 5.616 81.2574 5.994 81.5934 6.45V5.028H84.1314V15H81.5934V13.542C81.2694 14.01 80.8194 14.4 80.2434 14.712C79.6794 15.012 79.0254 15.162 78.2814 15.162C77.4414 15.162 76.6734 14.946 75.9774 14.514C75.2934 14.082 74.7474 13.476 74.3394 12.696C73.9434 11.904 73.7454 10.998 73.7454 9.978ZM81.5934 10.014C81.5934 9.402 81.4734 8.88 81.2334 8.448C80.9934 8.004 80.6694 7.668 80.2614 7.44C79.8534 7.2 79.4154 7.08 78.9474 7.08C78.4794 7.08 78.0474 7.194 77.6514 7.422C77.2554 7.65 76.9314 7.986 76.6794 8.43C76.4394 8.862 76.3194 9.378 76.3194 9.978C76.3194 10.578 76.4394 11.106 76.6794 11.562C76.9314 12.006 77.2554 12.348 77.6514 12.588C78.0594 12.828 78.4914 12.948 78.9474 12.948C79.4154 12.948 79.8534 12.834 80.2614 12.606C80.6694 12.366 80.9934 12.03 81.2334 11.598C81.4734 11.154 81.5934 10.626 81.5934 10.014ZM89.6126 1.68V15H87.0926V1.68H89.6126ZM102.142 5.028L95.9684 19.716H93.2864L95.4464 14.748L91.4504 5.028H94.2764L96.8504 11.994L99.4604 5.028H102.142ZM107.817 15.162C107.001 15.162 106.269 15.018 105.621 14.73C104.973 14.43 104.457 14.028 104.073 13.524C103.701 13.02 103.497 12.462 103.461 11.85H105.999C106.047 12.234 106.233 12.552 106.557 12.804C106.893 13.056 107.307 13.182 107.799 13.182C108.279 13.182 108.651 13.086 108.915 12.894C109.191 12.702 109.329 12.456 109.329 12.156C109.329 11.832 109.161 11.592 108.825 11.436C108.501 11.268 107.979 11.088 107.259 10.896C106.515 10.716 105.903 10.53 105.423 10.338C104.955 10.146 104.547 9.852 104.199 9.456C103.863 9.06 103.695 8.526 103.695 7.854C103.695 7.302 103.851 6.798 104.163 6.342C104.487 5.886 104.943 5.526 105.531 5.262C106.131 4.998 106.833 4.866 107.637 4.866C108.825 4.866 109.773 5.166 110.481 5.766C111.189 6.354 111.579 7.152 111.651 8.16H109.239C109.203 7.764 109.035 7.452 108.735 7.224C108.447 6.984 108.057 6.864 107.565 6.864C107.109 6.864 106.755 6.948 106.503 7.116C106.263 7.284 106.143 7.518 106.143 7.818C106.143 8.154 106.311 8.412 106.647 8.592C106.983 8.76 107.505 8.934 108.213 9.114C108.933 9.294 109.527 9.48 109.995 9.672C110.463 9.864 110.865 10.164 111.201 10.572C111.549 10.968 111.729 11.496 111.741 12.156C111.741 12.732 111.579 13.248 111.255 13.704C110.943 14.16 110.487 14.52 109.887 14.784C109.299 15.036 108.609 15.162 107.817 15.162ZM117.243 7.098V11.922C117.243 12.258 117.321 12.504 117.477 12.66C117.645 12.804 117.921 12.876 118.305 12.876H119.475V15H117.891C115.767 15 114.705 13.968 114.705 11.904V7.098H113.517V5.028H114.705V2.562H117.243V5.028H119.475V7.098H117.243Z" fill="white"/>
</svg>
