<svg width="132" height="110" viewBox="0 0 132 110" fill="none" xmlns="http://www.w3.org/2000/svg">
<g id="city-image">
<g id="Citie" opacity="0.6">
<g id="Group">
<g id="Group_2">
<path id="Vector" d="M78.0847 28.0859H54.7188V106.416H78.0847V28.0859Z" fill="#E8EAFB"/>
<path id="Vector_2" d="M66.4648 28.0859H54.7188V106.416H66.4648V28.0859Z" fill="#E8EAFB"/>
<path id="Vector_3" d="M74.4913 18.8105H58.3164V28.086H74.4913V18.8105Z" fill="#C5CBF5"/>
<path id="Vector_4" d="M66.4649 18.8105H58.3164V28.086H66.4649V18.8105Z" fill="#E8EAFB"/>
<path id="Vector_5" d="M70.4956 11.5967H62.3076V18.8091H70.4956V11.5967Z" fill="#C5CBF5"/>
<path id="Vector_6" d="M66.4646 11.5967H62.3076V18.8091H66.4646V11.5967Z" fill="#E8EAFB"/>
<path id="Vector_7" d="M67.1467 0.000976562H65.6572V11.5973H67.1467V0.000976562Z" fill="#C5CBF5"/>
<path id="Vector_8" d="M66.465 0.000976562H65.6572V11.5973H66.465V0.000976562Z" fill="#E8EAFB"/>
<g id="Group_3">
<g id="Group_4">
<path id="Vector_9" d="M61.9406 32.3564H57.7363V36.3172H61.9406V32.3564Z" fill="#C5CBF5"/>
<path id="Vector_10" d="M68.5686 32.3564H64.3643V36.3172H68.5686V32.3564Z" fill="#C5CBF5"/>
<path id="Vector_11" d="M75.0695 32.3564H70.8652V36.3172H75.0695V32.3564Z" fill="#C5CBF5"/>
</g>
<g id="Group_5">
<path id="Vector_12" d="M62.0041 39.7266H57.7998V43.6874H62.0041V39.7266Z" fill="#C5CBF5"/>
<path id="Vector_13" d="M68.632 39.7266H64.4277V43.6874H68.632V39.7266Z" fill="#C5CBF5"/>
<path id="Vector_14" d="M75.1291 39.7266H70.9248V43.6874H75.1291V39.7266Z" fill="#C5CBF5"/>
</g>
<g id="Group_6">
<path id="Vector_15" d="M62.0666 47.0957H57.8623V51.0565H62.0666V47.0957Z" fill="#C5CBF5"/>
<path id="Vector_16" d="M68.6906 47.0957H64.4863V51.0565H68.6906V47.0957Z" fill="#C5CBF5"/>
<path id="Vector_17" d="M75.1926 47.0957H70.9883V51.0565H75.1926V47.0957Z" fill="#C5CBF5"/>
</g>
<g id="Group_7">
<path id="Vector_18" d="M62.1301 54.4619H57.9258V58.4227H62.1301V54.4619Z" fill="#C5CBF5"/>
<path id="Vector_19" d="M68.7531 54.4619H64.5488V58.4227H68.7531V54.4619Z" fill="#C5CBF5"/>
<path id="Vector_20" d="M75.2551 54.4619H71.0508V58.4227H75.2551V54.4619Z" fill="#C5CBF5"/>
</g>
<g id="Group_8">
<path id="Vector_21" d="M62.1906 61.8301H57.9863V65.7909H62.1906V61.8301Z" fill="#C5CBF5"/>
<path id="Vector_22" d="M68.8186 61.8301H64.6143V65.7909H68.8186V61.8301Z" fill="#C5CBF5"/>
<path id="Vector_23" d="M75.3205 61.8301H71.1162V65.7909H75.3205V61.8301Z" fill="#C5CBF5"/>
</g>
<g id="Group_9">
<path id="Vector_24" d="M62.2521 69.2012H58.0479V73.162H62.2521V69.2012Z" fill="#C5CBF5"/>
<path id="Vector_25" d="M68.8791 69.2012H64.6748V73.162H68.8791V69.2012Z" fill="#C5CBF5"/>
<path id="Vector_26" d="M75.382 69.2012H71.1777V73.162H75.382V69.2012Z" fill="#C5CBF5"/>
</g>
<g id="Group_10">
<path id="Vector_27" d="M62.3146 76.5693H58.1104V80.5301H62.3146V76.5693Z" fill="#C5CBF5"/>
<path id="Vector_28" d="M68.9426 76.5693H64.7383V80.5301H68.9426V76.5693Z" fill="#C5CBF5"/>
<path id="Vector_29" d="M75.4436 76.5693H71.2393V80.5301H75.4436V76.5693Z" fill="#C5CBF5"/>
</g>
<g id="Group_11">
<path id="Vector_30" d="M62.3771 83.9395H58.1729V87.9003H62.3771V83.9395Z" fill="#C5CBF5"/>
<path id="Vector_31" d="M69.0002 83.9395H64.7959V87.9003H69.0002V83.9395Z" fill="#C5CBF5"/>
<path id="Vector_32" d="M75.5021 83.9395H71.2979V87.9003H75.5021V83.9395Z" fill="#C5CBF5"/>
</g>
<g id="Group_12">
<path id="Vector_33" d="M62.4396 91.3105H58.2354V95.2714H62.4396V91.3105Z" fill="#C5CBF5"/>
<path id="Vector_34" d="M69.0637 91.3105H64.8594V95.2714H69.0637V91.3105Z" fill="#C5CBF5"/>
<path id="Vector_35" d="M75.5656 91.3105H71.3613V95.2714H75.5656V91.3105Z" fill="#C5CBF5"/>
</g>
</g>
</g>
<g id="Group_13">
<path id="Vector_36" d="M56.4942 63.8536H32.5293V106.532H56.4942V63.8536Z" fill="#C5CBF5"/>
<path id="Vector_37" d="M58.2909 60.3807H30.7324V64.8734H58.2909V60.3807Z" fill="#C5CBF5"/>
<path id="Vector_38" d="M58.2909 60.3807H30.7324V61.2269H58.2909V60.3807Z" fill="#E8EAFB"/>
<g id="Group_14">
<path id="Vector_39" d="M54.0069 68.2997H35.0107V70.8986H54.0069V68.2997Z" fill="#E8EAFB"/>
<path id="Vector_40" d="M54.0069 73.0332H35.0107V75.6321H54.0069V73.0332Z" fill="#E8EAFB"/>
<path id="Vector_41" d="M54.0069 77.7686H35.0107V80.3675H54.0069V77.7686Z" fill="#E8EAFB"/>
<path id="Vector_42" d="M54.0069 82.5018H35.0107V85.1007H54.0069V82.5018Z" fill="#E8EAFB"/>
<path id="Vector_43" d="M54.0069 87.2372H35.0107V89.8361H54.0069V87.2372Z" fill="#E8EAFB"/>
<path id="Vector_44" d="M54.0069 91.9706H35.0107V94.5695H54.0069V91.9706Z" fill="#E8EAFB"/>
<path id="Vector_45" d="M54.0069 96.7069H35.0107V99.3058H54.0069V96.7069Z" fill="#E8EAFB"/>
</g>
<path id="Vector_46" opacity="0.3" d="M56.4942 64.8768H32.5293V66.1904H56.4942V64.8768Z" fill="#7A7B9A"/>
</g>
<g id="Group_15">
<path id="Vector_47" d="M100.27 42.6064H78.1016V106.358H100.27V42.6064Z" fill="#C5CBF5"/>
<path id="Vector_48" opacity="0.3" d="M100.27 42.6064H78.1016V44.75H100.27V42.6064Z" fill="#7A7B9A"/>
<path id="Vector_49" d="M101.468 35.4355H76.9043V43.1154H101.468V35.4355Z" fill="#E8EAFB"/>
<path id="Vector_50" d="M101.468 35.4355H76.9043V36.6887H101.468V35.4355Z" fill="#C5CBF5"/>
<g id="Group_16">
<g id="Group_17">
<path id="Vector_51" d="M86.6715 47.0625H82.1401C81.9225 47.0625 81.7461 47.2429 81.7461 47.4654V51.6962C81.7461 51.9187 81.9225 52.0991 82.1401 52.0991H86.6715C86.8891 52.0991 87.0655 51.9187 87.0655 51.6962V47.4654C87.0655 47.2429 86.8891 47.0625 86.6715 47.0625Z" fill="#E8EAFB"/>
<path id="Vector_52" d="M96.2261 47.0625H91.6948C91.4772 47.0625 91.3008 47.2429 91.3008 47.4654V51.6962C91.3008 51.9187 91.4772 52.0991 91.6948 52.0991H96.2261C96.4438 52.0991 96.6202 51.9187 96.6202 51.6962V47.4654C96.6202 47.2429 96.4438 47.0625 96.2261 47.0625Z" fill="#E8EAFB"/>
</g>
<g id="Group_18">
<path id="Vector_53" d="M86.6715 54.7987H82.1401C81.9225 54.7987 81.7461 54.9791 81.7461 55.2016V59.4324C81.7461 59.6549 81.9225 59.8353 82.1401 59.8353H86.6715C86.8891 59.8353 87.0655 59.6549 87.0655 59.4324V55.2016C87.0655 54.9791 86.8891 54.7987 86.6715 54.7987Z" fill="#E8EAFB"/>
<path id="Vector_54" d="M96.2261 54.7987H91.6948C91.4772 54.7987 91.3008 54.9791 91.3008 55.2016V59.4324C91.3008 59.6549 91.4772 59.8353 91.6948 59.8353H96.2261C96.4438 59.8353 96.6202 59.6549 96.6202 59.4324V55.2016C96.6202 54.9791 96.4438 54.7987 96.2261 54.7987Z" fill="#E8EAFB"/>
</g>
<g id="Group_19">
<path id="Vector_55" d="M86.6715 62.5391H82.1401C81.9225 62.5391 81.7461 62.7195 81.7461 62.942V67.1728C81.7461 67.3953 81.9225 67.5757 82.1401 67.5757H86.6715C86.8891 67.5757 87.0655 67.3953 87.0655 67.1728V62.942C87.0655 62.7195 86.8891 62.5391 86.6715 62.5391Z" fill="#E8EAFB"/>
<path id="Vector_56" d="M96.2261 62.5391H91.6948C91.4772 62.5391 91.3008 62.7195 91.3008 62.942V67.1728C91.3008 67.3953 91.4772 67.5757 91.6948 67.5757H96.2261C96.4438 67.5757 96.6202 67.3953 96.6202 67.1728V62.942C96.6202 62.7195 96.4438 62.5391 96.2261 62.5391Z" fill="#E8EAFB"/>
</g>
<g id="Group_20">
<path id="Vector_57" d="M86.6715 70.2744H82.1401C81.9225 70.2744 81.7461 70.4548 81.7461 70.6773V74.9081C81.7461 75.1306 81.9225 75.311 82.1401 75.311H86.6715C86.8891 75.311 87.0655 75.1306 87.0655 74.9081V70.6773C87.0655 70.4548 86.8891 70.2744 86.6715 70.2744Z" fill="#E8EAFB"/>
<path id="Vector_58" d="M96.2261 70.2744H91.6948C91.4772 70.2744 91.3008 70.4548 91.3008 70.6773V74.9081C91.3008 75.1306 91.4772 75.311 91.6948 75.311H96.2261C96.4438 75.311 96.6202 75.1306 96.6202 74.9081V70.6773C96.6202 70.4548 96.4438 70.2744 96.2261 70.2744Z" fill="#E8EAFB"/>
</g>
<g id="Group_21">
<path id="Vector_59" d="M86.6715 78.0107H82.1401C81.9225 78.0107 81.7461 78.1911 81.7461 78.4137V82.6444C81.7461 82.867 81.9225 83.0474 82.1401 83.0474H86.6715C86.8891 83.0474 87.0655 82.867 87.0655 82.6444V78.4137C87.0655 78.1911 86.8891 78.0107 86.6715 78.0107Z" fill="#E8EAFB"/>
<path id="Vector_60" d="M96.2261 78.0107H91.6948C91.4772 78.0107 91.3008 78.1911 91.3008 78.4137V82.6444C91.3008 82.867 91.4772 83.0474 91.6948 83.0474H96.2261C96.4438 83.0474 96.6202 82.867 96.6202 82.6444V78.4137C96.6202 78.1911 96.4438 78.0107 96.2261 78.0107Z" fill="#E8EAFB"/>
</g>
<g id="Group_22">
<path id="Vector_61" d="M86.6715 85.7472H82.1401C81.9225 85.7472 81.7461 85.9276 81.7461 86.1501V90.3809C81.7461 90.6034 81.9225 90.7838 82.1401 90.7838H86.6715C86.8891 90.7838 87.0655 90.6034 87.0655 90.3809V86.1501C87.0655 85.9276 86.8891 85.7472 86.6715 85.7472Z" fill="#E8EAFB"/>
<path id="Vector_62" d="M96.2261 85.7472H91.6948C91.4772 85.7472 91.3008 85.9276 91.3008 86.1501V90.3809C91.3008 90.6034 91.4772 90.7838 91.6948 90.7838H96.2261C96.4438 90.7838 96.6202 90.6034 96.6202 90.3809V86.1501C96.6202 85.9276 96.4438 85.7472 96.2261 85.7472Z" fill="#E8EAFB"/>
</g>
<g id="Group_23">
<path id="Vector_63" d="M86.6715 93.4834H82.1401C81.9225 93.4834 81.7461 93.6638 81.7461 93.8863V98.1171C81.7461 98.3396 81.9225 98.52 82.1401 98.52H86.6715C86.8891 98.52 87.0655 98.3396 87.0655 98.1171V93.8863C87.0655 93.6638 86.8891 93.4834 86.6715 93.4834Z" fill="#E8EAFB"/>
<path id="Vector_64" d="M96.2261 93.4834H91.6948C91.4772 93.4834 91.3008 93.6638 91.3008 93.8863V98.1171C91.3008 98.3396 91.4772 98.52 91.6948 98.52H96.2261C96.4438 98.52 96.6202 98.3396 96.6202 98.1171V93.8863C96.6202 93.6638 96.4438 93.4834 96.2261 93.4834Z" fill="#E8EAFB"/>
</g>
</g>
</g>
<g id="Group_24">
<path id="Vector_65" d="M36.3451 78.373H2.39551V106.554H36.3451V78.373Z" fill="#E8EAFB"/>
<path id="Vector_66" d="M38.741 72.6562H0V78.3738H38.741V72.6562Z" fill="#C5CBF5"/>
<path id="Vector_67" d="M38.741 72.6562H0V73.583H38.741V72.6562Z" fill="#C5CBF5"/>
<g id="Group_25">
<g id="Group_26">
<g id="Group_27">
<path id="Vector_68" d="M22.0421 86.1296V82.5878C22.0421 81.5886 21.2422 80.7706 20.265 80.7706H18.8386C17.8614 80.7706 17.0615 81.5886 17.0615 82.5878V86.1296H22.046H22.0421Z" fill="#C5CBF5"/>
<path id="Vector_69" d="M22.6284 86.0695H16.4658V87.1614H22.6284V86.0695Z" fill="#E8EAFB"/>
</g>
<g id="Group_28">
<path id="Vector_70" d="M12.6866 86.1296V82.5878C12.6866 81.5886 11.8867 80.7706 10.9095 80.7706H9.48313C8.50594 80.7706 7.70605 81.5886 7.70605 82.5878V86.1296H12.6905H12.6866Z" fill="#C5CBF5"/>
<path id="Vector_71" d="M13.274 86.0695H7.11133V87.1614H13.274V86.0695Z" fill="#E8EAFB"/>
</g>
<g id="Group_29">
<path id="Vector_72" d="M31.0372 86.1296V82.5878C31.0372 81.5886 30.2373 80.7706 29.2601 80.7706H27.8337C26.8565 80.7706 26.0566 81.5886 26.0566 82.5878V86.1296H31.0411H31.0372Z" fill="#C5CBF5"/>
<path id="Vector_73" d="M31.6236 86.0695H25.4609V87.1614H31.6236V86.0695Z" fill="#E8EAFB"/>
</g>
</g>
<g id="Group_30">
<g id="Group_31">
<path id="Vector_74" d="M22.0421 94.2489V90.7071C22.0421 89.7078 21.2422 88.8899 20.265 88.8899H18.8386C17.8614 88.8899 17.0615 89.7078 17.0615 90.7071V94.2489H22.046H22.0421Z" fill="#C5CBF5"/>
<path id="Vector_75" d="M22.6284 94.1887H16.4658V95.2807H22.6284V94.1887Z" fill="#E8EAFB"/>
</g>
<g id="Group_32">
<path id="Vector_76" d="M12.6866 94.2489V90.7071C12.6866 89.7078 11.8867 88.8899 10.9095 88.8899H9.48313C8.50594 88.8899 7.70605 89.7078 7.70605 90.7071V94.2489H12.6905H12.6866Z" fill="#C5CBF5"/>
<path id="Vector_77" d="M13.274 94.1887H7.11133V95.2807H13.274V94.1887Z" fill="#E8EAFB"/>
</g>
<g id="Group_33">
<path id="Vector_78" d="M31.0372 94.2489V90.7071C31.0372 89.7078 30.2373 88.8899 29.2601 88.8899H27.8337C26.8565 88.8899 26.0566 89.7078 26.0566 90.7071V94.2489H31.0411H31.0372Z" fill="#C5CBF5"/>
<path id="Vector_79" d="M31.6236 94.1887H25.4609V95.2807H31.6236V94.1887Z" fill="#E8EAFB"/>
</g>
</g>
<g id="Group_34">
<g id="Group_35">
<path id="Vector_80" d="M22.0421 102.365V98.8232C22.0421 97.8239 21.2422 97.006 20.265 97.006H18.8386C17.8614 97.006 17.0615 97.8239 17.0615 98.8232V102.365H22.046H22.0421Z" fill="#C5CBF5"/>
<path id="Vector_81" d="M22.6284 102.304H16.4658V103.396H22.6284V102.304Z" fill="#E8EAFB"/>
</g>
<g id="Group_36">
<path id="Vector_82" d="M12.6856 102.365V98.8232C12.6856 97.8239 11.8857 97.006 10.9085 97.006H9.48215C8.50496 97.006 7.70508 97.8239 7.70508 98.8232V102.365H12.6896H12.6856Z" fill="#C5CBF5"/>
<path id="Vector_83" d="M13.274 102.304H7.11133V103.396H13.274V102.304Z" fill="#E8EAFB"/>
</g>
<g id="Group_37">
<path id="Vector_84" d="M31.0352 102.365V98.8232C31.0352 97.8239 30.2353 97.006 29.2581 97.006H27.8318C26.8546 97.006 26.0547 97.8239 26.0547 98.8232V102.365H31.0392H31.0352Z" fill="#C5CBF5"/>
<path id="Vector_85" d="M31.6226 102.304H25.46V103.396H31.6226V102.304Z" fill="#E8EAFB"/>
</g>
</g>
</g>
<path id="Vector_86" opacity="0.3" d="M36.3451 78.373H2.39551V79.7833H36.3451V78.373Z" fill="#7A7B9A"/>
</g>
<g id="Group_38">
<g id="Group_39">
<path id="Vector_87" d="M111.51 43.0121V106.405H120.336V33.9824C117.645 36.7344 114.961 39.4784 111.51 43.0081V43.0121Z" fill="#C5CBF5"/>
<path id="Vector_88" d="M129.162 25.166H128.957L120.332 33.9862V106.409H129.158V25.166H129.162Z" fill="#C5CBF5"/>
</g>
<g id="Group_40">
<g id="Group_41">
<path id="Vector_89" d="M118.695 46.125H114.755V53.4462H118.695V46.125Z" fill="#7A7B9A"/>
<path id="Vector_90" d="M126.052 46.125H122.111V53.4462H126.052V46.125Z" fill="#7A7B9A"/>
</g>
<g id="Group_42">
<path id="Vector_91" d="M118.695 55.9326H114.755V63.2539H118.695V55.9326Z" fill="#7A7B9A"/>
<path id="Vector_92" d="M126.052 55.9326H122.111V63.2539H126.052V55.9326Z" fill="#7A7B9A"/>
</g>
<g id="Group_43">
<path id="Vector_93" d="M118.695 65.7354H114.755V73.0566H118.695V65.7354Z" fill="#7A7B9A"/>
<path id="Vector_94" d="M126.052 65.7356H122.111V73.0568H126.052V65.7356Z" fill="#7A7B9A"/>
</g>
<g id="Group_44">
<path id="Vector_95" d="M118.695 75.5381H114.755V82.8593H118.695V75.5381Z" fill="#7A7B9A"/>
<path id="Vector_96" d="M126.052 75.5381H122.111V82.8593H126.052V75.5381Z" fill="#7A7B9A"/>
</g>
<g id="Group_45">
<path id="Vector_97" d="M118.695 85.3456H114.755V92.6668H118.695V85.3456Z" fill="#7A7B9A"/>
<path id="Vector_98" d="M126.052 85.3456H122.111V92.6668H126.052V85.3456Z" fill="#7A7B9A"/>
</g>
<g id="Group_46">
<path id="Vector_99" d="M118.695 95.1484H114.755V102.47H118.695V95.1484Z" fill="#7A7B9A"/>
<path id="Vector_100" d="M126.052 95.1484H122.111V102.47H126.052V95.1484Z" fill="#7A7B9A"/>
</g>
</g>
</g>
<g id="Group_47">
<path id="Vector_101" d="M114.703 54.212H98.1143V106.182H114.703V54.212Z" fill="#E8EAFB"/>
<path id="Vector_102" d="M106.409 54.212H98.1143V106.182H106.409V54.212Z" fill="#E8EAFB"/>
<path id="Vector_103" d="M113.012 50.4757H101.246V54.2109H113.012V50.4757Z" fill="#E8EAFB"/>
<path id="Vector_104" d="M106.404 50.4757H101.246V54.2109H106.404V50.4757Z" fill="#E8EAFB"/>
<path id="Vector_105" d="M111.676 47.7402H106.404V50.4802H111.676V47.7402Z" fill="#E8EAFB"/>
<g id="Group_48">
<path id="Vector_106" d="M104.714 57.6816H101.191V101.992H104.714V57.6816Z" fill="#C5CBF5"/>
<path id="Vector_107" d="M111.621 57.6816H108.099V101.992H111.621V57.6816Z" fill="#C5CBF5"/>
</g>
</g>
<path id="Vector_108" d="M130.753 105.972H1.24707C0.557632 105.972 0 106.874 0 107.986C0 109.098 0.557632 110.001 1.24707 110.001H4.33601V109.941H130.185V110.001H130.753C131.442 110.001 132 109.098 132 107.986C132 106.874 131.442 105.972 130.753 105.972Z" fill="#C5CBF5"/>
</g>
</g>
</g>
</svg>
