<svg width="584" height="585" viewBox="0 0 584 585" fill="none" xmlns="http://www.w3.org/2000/svg">
<g opacity="0.8">
<g clip-path="url(#clip0_5039_33639)">
<mask id="mask0_5039_33639" style="mask-type:luminance" maskUnits="userSpaceOnUse" x="0" y="0" width="584" height="585">
<path d="M584 0.832031H0V584.832H584V0.832031Z" fill="white"/>
</mask>
<g mask="url(#mask0_5039_33639)">
<mask id="mask1_5039_33639" style="mask-type:luminance" maskUnits="userSpaceOnUse" x="0" y="0" width="584" height="585">
<path d="M0 0.832031H584V584.832H0V0.832031Z" fill="white"/>
</mask>
<g mask="url(#mask1_5039_33639)">
<path d="M244.934 434.036C338.72 396.784 382.325 389.387 436.871 385.188C563.306 375.455 504.828 238.356 410.289 257.627C319.266 276.182 169.966 276.958 136.402 323.241C109.416 360.454 102.763 389.996 132.444 415.719C162.125 441.443 202.068 451.063 244.934 434.036Z" fill="#C9EAF2"/>
<g opacity="0.15">
<path d="M312.246 255.457L250.342 288.94L274.87 328.652L395.174 287.772L312.246 255.457Z" fill="#0F4459"/>
</g>
<path d="M250.639 72.4324L289.193 59.4062L321.644 74.6767L283.471 87.6025L250.639 72.4324Z" fill="#0F4459"/>
<path d="M250.639 75.071L289.193 62.0449L321.644 77.3154L283.471 90.2412L250.639 75.071Z" fill="#7DB7C9"/>
<path d="M250.639 279.624L289.193 266.598L321.644 281.868L283.471 294.794L250.639 279.624Z" fill="#0F4459"/>
<path d="M283.471 87.604V294.795L250.639 279.625V72.4336L283.471 87.604Z" fill="#376472"/>
<path d="M321.643 74.6777V281.869L283.471 294.795V87.6036L321.643 74.6777Z" fill="#0F4459"/>
<path d="M250.639 103.268L283.471 118.438L321.644 105.513V97.5433L283.471 110.469L250.639 95.2988V103.268Z" fill="#7DB7C9"/>
<path d="M250.639 111.776L283.471 126.946L321.644 114.02V112.924L283.471 125.85L250.639 110.68V111.776Z" fill="#EF3011"/>
<path d="M285.686 73.2993V55.8965" stroke="#0F4459" stroke-width="2.0977" stroke-miterlimit="10" stroke-linecap="round"/>
<path d="M288.764 73.2976V65.4961" stroke="#0F4459" stroke-width="2.0977" stroke-miterlimit="10" stroke-linecap="round"/>
<path d="M286.778 55.8956C286.778 56.4991 286.289 56.9885 285.685 56.9885C285.082 56.9885 284.593 56.4991 284.593 55.8956C284.593 55.2921 285.082 54.8027 285.685 54.8027C286.289 54.8027 286.778 55.2921 286.778 55.8956Z" fill="#EF3011"/>
<mask id="mask2_5039_33639" style="mask-type:luminance" maskUnits="userSpaceOnUse" x="0" y="0" width="584" height="585">
<path d="M0 0.832031H584V584.832H0V0.832031Z" fill="white"/>
</mask>
<g mask="url(#mask2_5039_33639)">
<path d="M462.948 277.293C469.335 274.648 473.028 271.054 472.399 267.526C472.021 265.409 470.087 263.315 466.246 261.464C457.122 257.066 439.333 255.782 429.969 258.885C392.484 271.307 355.327 267.73 320.354 280.069C306.381 284.999 304.415 289.964 312.125 294.003C321.359 298.839 338.728 297.794 348.776 294.502C390.003 280.993 430.299 290.815 462.948 277.293Z" fill="#EDF7F9"/>
<path d="M462.948 139.662C473.168 135.43 476.49 128.77 466.246 123.833C457.122 119.436 439.333 118.151 429.969 121.254C392.484 133.676 355.327 130.099 320.354 142.439C306.381 147.369 304.415 152.333 312.125 156.372C321.359 161.209 338.728 160.163 348.776 156.871C390.003 143.362 430.299 153.184 462.948 139.662Z" fill="#7DB7C9"/>
<path d="M312.125 156.372C313.004 154.219 314.983 154.704 315.862 155.561C316.742 156.418 319.6 157.242 321.643 156.372C323.809 155.449 326.412 153.46 328.394 152.489C330.923 151.251 333.891 151.997 335.21 154.427C336.529 156.858 339.061 154.348 340.926 156.372C342.792 158.396 342.685 162.134 342.685 162.134C342.685 162.134 321.927 164.68 321.643 163.737C321.359 162.794 312.125 156.372 312.125 156.372Z" fill="#29A68F"/>
<path d="M462.948 139.662C430.299 153.183 390.003 143.362 348.776 156.87C338.728 160.162 321.359 161.208 312.125 156.371C310.158 155.341 308.823 154.25 308.154 153.115L307.655 151.953V290.815L472.399 267.526L472.466 130.76C472.405 134.004 468.813 137.233 462.948 139.662Z" fill="#EDF7F9"/>
<path d="M320.354 146.503C355.327 134.163 392.484 137.74 429.969 125.318C439.333 122.215 457.122 123.5 466.246 127.897C469.344 129.39 471.199 131.04 472 132.734C473.369 129.702 471.808 126.513 466.246 123.833C457.122 119.436 439.333 118.151 429.969 121.254C392.484 133.676 355.327 130.099 320.354 142.439C309.633 146.221 305.982 150.024 308.344 153.413C309.831 151.17 313.751 148.832 320.354 146.503Z" fill="#0F4459"/>
<path d="M307.658 202.571C307.574 204.377 309.109 206.098 312.125 207.678C318.578 211.058 329.004 211.565 338.128 210.441V168.768C329.004 169.893 318.578 169.385 312.125 166.005C309.109 164.425 307.574 162.704 307.658 160.898V202.571Z" fill="#7DB7C9"/>
<path d="M462.948 236.635C430.299 250.156 390.003 240.335 348.776 253.843C338.728 257.135 321.359 258.181 312.125 253.344C309.129 251.774 307.594 250.065 307.657 248.272V258.411V258.532V287.467C307.594 289.259 309.129 290.969 312.125 292.538C321.359 297.375 338.728 296.329 348.776 293.037C390.003 279.529 430.299 289.35 462.948 275.829C468.914 273.358 472.529 270.06 472.467 266.761V237.826V237.705V227.566C472.529 230.866 468.914 234.164 462.948 236.635Z" fill="#7DB7C9"/>
<path d="M472.467 209.698C472.529 212.997 468.914 216.295 462.948 218.766C430.299 232.287 390.003 222.466 348.776 235.974C338.728 239.266 321.359 240.312 312.125 235.475C309.129 233.906 307.594 232.196 307.657 230.403V220.143C307.594 221.936 309.129 223.645 312.125 225.215C321.359 230.052 338.728 229.006 348.776 225.714C390.003 212.206 430.299 222.027 462.948 208.506C468.914 206.035 472.529 202.737 472.467 199.438V209.698Z" fill="#7DB7C9"/>
<path d="M348.775 177.574C390.003 164.065 430.299 173.887 462.948 160.365C468.913 157.895 472.529 154.597 472.467 151.297V141.037C472.529 144.337 468.913 147.635 462.948 150.105C430.299 163.627 390.003 153.805 348.775 167.314V177.574Z" fill="#7DB7C9"/>
<path d="M348.775 206.775C390.003 193.267 430.299 203.088 462.948 189.567C468.913 187.096 472.529 183.798 472.467 180.498V170.238C472.529 173.538 468.913 176.836 462.948 179.306C430.299 192.828 390.003 183.006 348.775 196.515V206.775Z" fill="#7DB7C9"/>
<path d="M454.15 147.385V279.585" stroke="#EDF7F9" stroke-width="2.0977" stroke-miterlimit="10"/>
<path d="M425.144 151.473V284.646" stroke="#EDF7F9" stroke-width="2.0977" stroke-miterlimit="10"/>
<path d="M396.139 155.561V285.912" stroke="#EDF7F9" stroke-width="2.0977" stroke-miterlimit="10"/>
<path d="M367.134 155.756V288.93" stroke="#EDF7F9" stroke-width="2.0977" stroke-miterlimit="10"/>
<path d="M338.129 162.959V296.133" stroke="#EDF7F9" stroke-width="2.0977" stroke-miterlimit="10"/>
<g opacity="0.25">
<path d="M313.487 160.897C316.901 178.47 318.733 184.237 321.018 192.137C324.208 201.751 326.385 211.547 348.854 214.503C371.324 217.46 366.133 173.306 387.022 167.415C407.911 161.523 414.404 197.692 413.37 206.774C411.265 222.225 389.213 224.948 383.15 236.522C374.921 254.462 384.832 263.419 395.899 268.966C412.487 275.787 438.244 250.12 440.001 198.686C440.969 173.005 443.135 160.26 425.837 149.619C396.119 157.426 330.154 160.897 330.154 160.897H313.487Z" fill="#EDF7F9"/>
</g>
<path d="M334.477 158.543V176.058" stroke="#29A68F" stroke-width="1.67816" stroke-miterlimit="10" stroke-linecap="round"/>
<path d="M337.22 158.543V185.146" stroke="#29A68F" stroke-width="1.67816" stroke-miterlimit="10" stroke-linecap="round"/>
<path d="M337.611 160.04C337.896 159.227 339.901 160.322 339.737 160.789C339.572 161.255 337.282 160.979 337.611 160.04Z" fill="#29A68F"/>
<path d="M334.944 159.895C335.513 159.248 336.961 161.016 336.633 161.387C336.306 161.757 334.287 160.643 334.944 159.895Z" fill="#29A68F"/>
<path d="M334.944 163.34C335.513 162.693 336.961 164.461 336.633 164.832C336.306 165.203 334.287 164.088 334.944 163.34Z" fill="#29A68F"/>
<path d="M334.944 166.655C335.513 166.008 336.961 167.775 336.633 168.146C336.306 168.517 334.287 167.402 334.944 166.655Z" fill="#29A68F"/>
<path d="M334.944 170.166C335.513 169.52 336.961 171.287 336.633 171.658C336.306 172.029 334.287 170.914 334.944 170.166Z" fill="#29A68F"/>
<path d="M334.944 173.684C335.513 173.037 336.961 174.805 336.633 175.176C336.306 175.546 334.287 174.432 334.944 173.684Z" fill="#29A68F"/>
<path d="M334.801 175.834C335.6 175.513 336.097 177.743 335.637 177.927C335.178 178.111 333.877 176.206 334.801 175.834Z" fill="#29A68F"/>
<path d="M336.79 161.725C337.34 162.387 335.368 163.542 335.053 163.161C334.738 162.78 336.153 160.959 336.79 161.725Z" fill="#29A68F"/>
<path d="M334.133 159.499C334.684 160.161 332.712 161.316 332.397 160.935C332.081 160.554 333.497 158.733 334.133 159.499Z" fill="#29A68F"/>
<path d="M334.133 163.284C334.684 163.946 332.712 165.101 332.397 164.72C332.081 164.339 333.497 162.518 334.133 163.284Z" fill="#29A68F"/>
<path d="M334.133 168.84C334.684 169.503 332.712 170.658 332.397 170.277C332.081 169.895 333.497 168.075 334.133 168.84Z" fill="#29A68F"/>
<path d="M334.133 172.211C334.684 172.874 332.712 174.029 332.397 173.648C332.081 173.266 333.497 171.446 334.133 172.211Z" fill="#29A68F"/>
<path d="M334.133 175.771C334.828 176.279 333.197 177.88 332.798 177.587C332.4 177.294 333.33 175.183 334.133 175.771Z" fill="#29A68F"/>
<path d="M334.133 166.704C334.684 167.366 332.712 168.521 332.397 168.14C332.081 167.759 333.497 165.938 334.133 166.704Z" fill="#29A68F"/>
<path d="M336.79 164.473C337.34 165.135 335.368 166.291 335.053 165.909C334.738 165.528 336.153 163.707 336.79 164.473Z" fill="#29A68F"/>
<path d="M336.79 168.401C337.34 169.063 335.368 170.218 335.053 169.837C334.738 169.456 336.153 167.635 336.79 168.401Z" fill="#29A68F"/>
<path d="M336.79 172.03C337.34 172.692 335.368 173.847 335.053 173.466C334.738 173.085 336.153 171.264 336.79 172.03Z" fill="#29A68F"/>
<path d="M336.79 174.291C337.34 174.954 335.368 176.109 335.053 175.728C334.738 175.347 336.153 173.526 336.79 174.291Z" fill="#29A68F"/>
<path d="M336.79 176.403C337.34 177.065 335.368 178.22 335.053 177.839C334.738 177.458 336.153 175.637 336.79 176.403Z" fill="#29A68F"/>
<path d="M336.79 179.499C337.34 180.161 335.368 181.316 335.053 180.935C334.738 180.554 336.153 178.733 336.79 179.499Z" fill="#29A68F"/>
<path d="M336.79 182.594C337.34 183.256 335.368 184.412 335.053 184.03C334.738 183.649 336.153 181.829 336.79 182.594Z" fill="#29A68F"/>
<path d="M337.611 163.081C337.896 162.268 339.901 163.363 339.737 163.83C339.572 164.296 337.282 164.02 337.611 163.081Z" fill="#29A68F"/>
<path d="M337.611 168.723C337.896 167.911 339.901 169.006 339.737 169.472C339.572 169.939 337.282 169.663 337.611 168.723Z" fill="#29A68F"/>
<path d="M337.611 172.135C337.896 171.323 339.901 172.418 339.737 172.884C339.572 173.351 337.282 173.075 337.611 172.135Z" fill="#29A68F"/>
<path d="M337.611 176.092C337.896 175.28 339.901 176.375 339.737 176.841C339.572 177.308 337.282 177.032 337.611 176.092Z" fill="#29A68F"/>
<path d="M337.611 179.52C337.896 178.707 339.901 179.803 339.737 180.269C339.572 180.736 337.282 180.46 337.611 179.52Z" fill="#29A68F"/>
<path d="M337.611 181.436C337.896 180.623 339.901 181.719 339.737 182.185C339.572 182.652 337.282 182.376 337.611 181.436Z" fill="#29A68F"/>
<path d="M337.611 185.199C338.272 184.647 339.432 186.615 339.051 186.932C338.671 187.248 336.847 185.837 337.611 185.199Z" fill="#29A68F"/>
<mask id="mask3_5039_33639" style="mask-type:luminance" maskUnits="userSpaceOnUse" x="422" y="75" width="47" height="95">
<path d="M422.037 75.584H468.757V169.024H422.037V75.584Z" fill="white"/>
</mask>
<g mask="url(#mask3_5039_33639)">
<path d="M441.442 131.733L442.247 131.738C442.362 131.592 442.471 131.41 442.505 131.091L444.551 112.558C444.623 111.72 444.426 111.082 444.161 110.693L443.869 110.695C443.591 110.695 443.34 110.862 443.234 111.119L441.044 129.867C440.972 130.919 441.175 131.456 441.442 131.733Z" fill="#C9EAF2"/>
<path d="M449.791 112.699C449.791 113.245 447.972 113.687 445.727 113.687C443.483 113.687 441.663 113.245 441.663 112.699C441.663 112.153 443.483 111.711 445.727 111.711C447.972 111.711 449.791 112.153 449.791 112.699Z" stroke="#0F4459" stroke-width="1.25708" stroke-miterlimit="10" stroke-linecap="round"/>
<path d="M449.791 128.312C449.791 128.858 447.972 129.301 445.727 129.301C443.483 129.301 441.663 128.858 441.663 128.312C441.663 127.767 443.483 127.324 445.727 127.324C447.972 127.324 449.791 127.767 449.791 128.312Z" stroke="#0F4459" stroke-width="1.25708" stroke-miterlimit="10" stroke-linecap="round"/>
<path d="M445.727 113.688V135.328" stroke="#0F4459" stroke-width="1.25708" stroke-miterlimit="10" stroke-linecap="round"/>
<path d="M450.111 132.688H449.295C449.159 132.688 449.033 132.317 448.991 132.042L447.013 112.932C446.931 111.884 447.138 111.465 447.404 111.253L447.854 111.252C448.132 111.252 448.382 111.419 448.489 111.676L450.498 130.817C450.57 131.772 450.373 132.488 450.111 132.688Z" fill="#EDF7F9"/>
<mask id="mask4_5039_33639" style="mask-type:alpha" maskUnits="userSpaceOnUse" x="446" y="111" width="5" height="22">
<path d="M450.111 132.688H449.295C449.159 132.688 449.033 132.317 448.991 132.042L447.013 112.932C446.931 111.884 447.138 111.465 447.404 111.253L447.854 111.252C448.132 111.252 448.382 111.419 448.489 111.676L450.498 130.817C450.57 131.772 450.373 132.488 450.111 132.688Z" fill="#EDF7F9"/>
</mask>
<g mask="url(#mask4_5039_33639)">
<path d="M433.571 121.348H454.189L454.567 122.255H433.948L433.571 121.348Z" fill="#EF3011"/>
</g>
</g>
</g>
<path d="M138.432 377.335C135.175 378.256 132.753 372.839 136.783 370.318C140.814 367.796 143.471 366.738 145.852 367.844C148.234 368.95 149.993 367.116 152.375 364.594C154.757 362.073 155.305 361.54 157.999 359.498C160.693 357.456 165.368 358.494 166.921 359.498C171.081 362.189 175.068 356.808 177.182 355.807C183.448 352.839 184.847 357.435 187.995 352.047C192.044 345.119 202.46 347.721 203.899 348.637C206.372 350.211 207.396 356.556 201.504 357.739C200.297 357.981 152.613 373.328 138.432 377.335Z" fill="#29A68F"/>
<path d="M113.848 379.134C115.242 377.925 117.551 378.035 118.32 379.134C119.09 380.234 119.749 380.124 122.278 379.134C124.806 378.145 127.444 377.733 127.994 379.093C128.544 380.454 114.802 384.301 114.802 384.301L113.848 379.134Z" fill="#29A68F"/>
<path d="M292 265.357C300.473 258.213 309.557 269.566 309.355 276.086C309.212 280.696 313.06 284.321 313.487 290.816C313.715 294.275 305.163 309.575 294.317 302.184C283.47 294.794 281.506 274.482 281.506 274.482L292 265.357Z" fill="#29A68F"/>
<path d="M306.542 275.809C305.223 279 302.525 278.9 300.967 281.793C299.428 284.651 299.925 288.461 302.557 288.736C305.557 289.048 305.707 293.018 303.12 294.509C301.253 295.586 299.208 295.369 299.747 299.794C300.115 302.809 295.196 305.086 295.196 305.086L286.141 267.5C286.141 267.5 294.835 257.554 302.557 264.594C299.405 269.645 307.943 272.419 306.542 275.809Z" fill="#1F7C6A"/>
<mask id="mask5_5039_33639" style="mask-type:luminance" maskUnits="userSpaceOnUse" x="0" y="0" width="584" height="585">
<path d="M0 0.832031H584V584.832H0V0.832031Z" fill="white"/>
</mask>
<g mask="url(#mask5_5039_33639)">
<path d="M136.04 239.274L208.499 215.662L252.312 237.908L240.642 241.916L137.595 239.992L136.04 239.274Z" fill="#C9EAF2"/>
<path d="M208.498 204.594L121.105 232.369L136.04 239.272L208.498 215.661L252.312 237.907L267.82 232.58L208.498 204.594Z" fill="#376472"/>
<path d="M298.684 320.99V138.033L269.663 170.133V232.462L240.642 241.916V340.853L298.684 320.99Z" fill="#7DB7C9"/>
<path d="M240.641 241.916L137.594 239.992V339.698L240.641 340.852V241.916Z" fill="#C9EAF2"/>
<path d="M137.594 239.993L121.105 232.371L121.251 332.443L137.594 339.699V239.993Z" fill="#EDF7F9"/>
<path d="M269.663 233.452L208.498 204.581V142.801L269.663 170.133V233.452Z" fill="#C9EAF2"/>
<path d="M209.472 144.302L268.689 170.764V231.916L209.472 203.964V144.302ZM208.498 142.801V204.581L269.663 233.452V170.133L208.498 142.801Z" fill="#0F4459"/>
<g opacity="0.5">
<path d="M129.35 244.705C128.323 260.632 134.269 300.646 194.176 307.242C254.082 313.837 240.64 322.498 240.64 322.498V253.129L129.35 244.705Z" fill="white"/>
</g>
<path d="M208.498 142.714L237.52 110.623L298.684 138.033L269.663 170.132L208.498 142.714Z" fill="#EDF7F9"/>
<mask id="mask6_5039_33639" style="mask-type:luminance" maskUnits="userSpaceOnUse" x="179" y="219" width="24" height="24">
<path d="M202.453 219.053H179.093V242.413H202.453V219.053Z" fill="white"/>
</mask>
<g mask="url(#mask6_5039_33639)">
<path d="M192.102 227.275C192.102 227.275 194.978 228.553 192.749 231.229" stroke="#FF980F" stroke-width="2.59794" stroke-miterlimit="10" stroke-linecap="round"/>
<path d="M191.966 231.965C192.3 234.377 192.141 236.499 192.141 236.499" stroke="#0A2F3E" stroke-width="2.59794" stroke-miterlimit="10" stroke-linecap="round"/>
<path d="M190.222 232.736C190.222 232.736 190.524 233.941 190.371 237.365" stroke="#0F4459" stroke-width="2.59794" stroke-miterlimit="10" stroke-linecap="round"/>
<path d="M192.611 230.6V231.811C192.611 232.175 192.411 232.51 192.09 232.683L190.901 233.326C190.289 233.657 189.541 233.235 189.509 232.54L189.456 231.406L192.611 230.6Z" fill="#0F4459"/>
<path d="M191.077 232.285L192.086 231.794C192.445 231.618 192.685 231.266 192.717 230.867L192.962 227.993C193.051 226.881 191.897 226.094 190.895 226.584L189.846 227.096C189.148 227.437 188.743 228.183 188.837 228.955L189.457 231.405C189.551 232.177 190.378 232.627 191.077 232.285Z" fill="#FFAD1D"/>
<path d="M189.703 225.749C189.79 226.568 190.525 227.161 191.344 227.074C192.163 226.986 192.757 226.251 192.669 225.432C192.582 224.613 191.847 224.02 191.028 224.107C190.209 224.195 189.616 224.93 189.703 225.749Z" fill="#0F4459"/>
<path d="M189.581 228.115C189.581 228.115 188.655 230.048 188.978 232.951" stroke="#FFAD1D" stroke-width="2.59794" stroke-miterlimit="10" stroke-linecap="round"/>
</g>
<mask id="mask7_5039_33639" style="mask-type:luminance" maskUnits="userSpaceOnUse" x="186" y="224" width="25" height="25">
<path d="M210.24 224.699H186.88V248.059H210.24V224.699Z" fill="white"/>
</mask>
<g mask="url(#mask7_5039_33639)">
<path d="M199.794 232.852C199.794 232.852 197.89 234.68 196.367 232.648" stroke="#D51D00" stroke-width="2.59794" stroke-miterlimit="10" stroke-linecap="round"/>
<path d="M199.753 237.611C199.744 239.65 199.928 242.177 199.928 242.177" stroke="#0A2F3E" stroke-width="2.59794" stroke-miterlimit="10" stroke-linecap="round"/>
<path d="M197.947 238.6C197.947 238.6 197.813 240.21 198.003 243.072" stroke="#0F4459" stroke-width="2.59794" stroke-miterlimit="10" stroke-linecap="round"/>
<path d="M200.398 236.246V237.457C200.398 237.821 200.198 238.156 199.878 238.33L198.688 238.973C198.076 239.304 197.328 238.881 197.296 238.186L197.244 237.053L200.398 236.246Z" fill="#0F4459"/>
<path d="M198.864 237.932L199.873 237.44C200.232 237.265 200.472 236.912 200.504 236.514L200.749 233.639C200.838 232.527 199.684 231.741 198.682 232.23L197.634 232.742C196.935 233.084 196.53 233.83 196.624 234.601L197.244 237.052C197.338 237.824 198.165 238.273 198.864 237.932Z" fill="#EF3011"/>
<path d="M196.394 231.228C196.394 232.052 197.062 232.719 197.886 232.719C198.709 232.719 199.377 232.052 199.377 231.228C199.377 230.404 198.709 229.736 197.886 229.736C197.062 229.736 196.394 230.404 196.394 231.228Z" fill="#0F4459"/>
<path d="M197.369 233.793C197.369 233.793 197.531 235.603 196.333 237.653" stroke="#EF3011" stroke-width="2.59794" stroke-miterlimit="10" stroke-linecap="round"/>
</g>
<path d="M240.641 241.916L137.594 239.993L121.105 232.371L121.121 243.73L137.594 251.315L240.641 253.129L298.684 232.899V221.982L240.641 241.916Z" fill="#0F4459"/>
<path d="M269.662 202.935L298.684 192.819V187.361L269.662 197.328V202.935Z" fill="#0F4459"/>
<path d="M121.121 290.394L137.594 297.979V295.139L121.105 287.518L121.121 290.394Z" fill="#0F4459"/>
<path d="M137.594 297.979L240.641 299.793V297.099L137.594 295.176V297.979Z" fill="#0F4459"/>
<path d="M269.663 203.339L209.472 175.866V170.918L269.663 197.732V203.339Z" fill="#0F4459"/>
<path d="M170.067 250.732V338.892" stroke="#0F4459" stroke-width="2.0977" stroke-miterlimit="10"/>
<path d="M137.594 250.535V339.697" stroke="#0F4459" stroke-width="2.0977" stroke-miterlimit="10"/>
<path d="M205.731 339.881V245.652" stroke="#0F4459" stroke-width="2.0977" stroke-miterlimit="10"/>
<path d="M240.642 250.092V340.852" stroke="#0F4459" stroke-width="2.0977" stroke-miterlimit="10"/>
<path d="M269.662 239.715V330.628" stroke="#0F4459" stroke-width="2.0977" stroke-miterlimit="10"/>
<path d="M238.588 217.705V156.551" stroke="#0F4459" stroke-width="1.67816" stroke-miterlimit="10"/>
<path d="M298.684 278.852L240.642 299.794V297.028L298.684 276.086V278.852Z" fill="#0F4459"/>
<path d="M296.64 138.362L291.933 136.213L283.047 146.009L287.754 148.157L296.64 138.362Z" fill="#0F4459"/>
<path d="M291.236 135.94L286.529 133.791L277.644 143.587L282.351 145.735L291.236 135.94Z" fill="#0F4459"/>
<path d="M285.832 133.516L281.125 131.367L272.24 141.163L276.946 143.312L285.832 133.516Z" fill="#0F4459"/>
<path d="M280.428 131.094L275.721 128.945L266.835 138.741L271.542 140.89L280.428 131.094Z" fill="#0F4459"/>
<path d="M275.024 128.672L270.317 126.523L261.431 136.319L266.138 138.468L275.024 128.672Z" fill="#0F4459"/>
<path d="M269.62 126.25L264.913 124.102L256.028 133.897L260.734 136.046L269.62 126.25Z" fill="#0F4459"/>
<path d="M264.216 123.826L259.509 121.678L250.623 131.473L255.33 133.622L264.216 123.826Z" fill="#0F4459"/>
<path d="M258.812 121.405L254.105 119.256L245.219 129.051L249.926 131.2L258.812 121.405Z" fill="#0F4459"/>
<path d="M253.407 118.983L248.7 116.834L239.815 126.63L244.522 128.778L253.407 118.983Z" fill="#0F4459"/>
<path d="M248.004 116.559L243.297 114.41L234.411 124.206L239.118 126.355L248.004 116.559Z" fill="#0F4459"/>
<path d="M242.599 114.137L237.893 111.988L229.007 121.784L233.714 123.933L242.599 114.137Z" fill="#0F4459"/>
<path d="M287.224 148.666L282.517 146.518L273.631 156.313L278.338 158.462L287.224 148.666Z" fill="#0F4459"/>
<path d="M281.82 146.244L277.113 144.096L268.228 153.891L272.935 156.04L281.82 146.244Z" fill="#0F4459"/>
<path d="M276.416 143.821L271.709 141.672L262.823 151.468L267.53 153.616L276.416 143.821Z" fill="#0F4459"/>
<path d="M271.012 141.399L266.305 139.25L257.419 149.046L262.126 151.194L271.012 141.399Z" fill="#0F4459"/>
<path d="M265.607 138.977L260.9 136.828L252.015 146.624L256.722 148.772L265.607 138.977Z" fill="#0F4459"/>
<path d="M260.204 136.555L255.497 134.406L246.612 144.202L251.318 146.351L260.204 136.555Z" fill="#0F4459"/>
<path d="M254.8 134.131L250.093 131.982L241.207 141.778L245.914 143.927L254.8 134.131Z" fill="#0F4459"/>
<path d="M249.396 131.709L244.689 129.561L235.803 139.356L240.51 141.505L249.396 131.709Z" fill="#0F4459"/>
<path d="M243.991 129.285L239.284 127.137L230.399 136.932L235.106 139.081L243.991 129.285Z" fill="#0F4459"/>
<path d="M238.588 126.864L233.881 124.715L224.995 134.51L229.702 136.659L238.588 126.864Z" fill="#0F4459"/>
<path d="M233.183 124.442L228.477 122.293L219.591 132.089L224.298 134.237L233.183 124.442Z" fill="#0F4459"/>
<path d="M277.807 158.869L273.101 156.721L264.215 166.516L268.922 168.665L277.807 158.869Z" fill="#0F4459"/>
<path d="M272.404 156.448L267.697 154.299L258.812 164.094L263.519 166.243L272.404 156.448Z" fill="#0F4459"/>
<path d="M267 154.024L262.293 151.875L253.407 161.671L258.114 163.819L267 154.024Z" fill="#0F4459"/>
<path d="M261.596 151.602L256.889 149.453L248.003 159.249L252.71 161.397L261.596 151.602Z" fill="#0F4459"/>
<path d="M256.191 149.18L251.484 147.031L242.599 156.827L247.306 158.976L256.191 149.18Z" fill="#0F4459"/>
<path d="M250.788 146.758L246.081 144.609L237.196 154.405L241.902 156.554L250.788 146.758Z" fill="#0F4459"/>
<path d="M245.384 144.334L240.677 142.186L231.791 151.981L236.498 154.13L245.384 144.334Z" fill="#0F4459"/>
<path d="M239.979 141.912L235.273 139.764L226.387 149.559L231.094 151.708L239.979 141.912Z" fill="#0F4459"/>
<path d="M234.575 139.489L229.868 137.34L220.983 147.135L225.69 149.284L234.575 139.489Z" fill="#0F4459"/>
<path d="M229.172 137.067L224.465 134.918L215.579 144.714L220.286 146.862L229.172 137.067Z" fill="#0F4459"/>
<path d="M223.767 134.645L219.061 132.496L210.175 142.292L214.882 144.44L223.767 134.645Z" fill="#0F4459"/>
<g opacity="0.2">
<path d="M237.52 110.623L228.256 120.568C228.256 120.568 224.86 128.253 228.497 134.453C231.009 137.377 243.321 136.485 245.516 141.166C249.422 148.87 254.062 152.087 257.42 153.414C264.255 155.257 265.789 167.954 265.789 167.954L269.508 169.513L298.684 138.033L237.52 110.623Z" fill="#EDF7F9"/>
</g>
<path d="M198.019 196.432C199.118 198.85 203.076 209.183 203.076 217.978" stroke="#1F7C6A" stroke-width="4.1954" stroke-miterlimit="10" stroke-linecap="round"/>
<path d="M203.625 176.425C209.586 176.052 216.157 180.382 216.487 185.659C216.817 190.935 218.796 191.595 222.423 194.233C226.051 196.872 230.008 202.478 227.37 205.776C224.732 209.074 219.125 215.999 211.21 212.701C203.295 209.403 196.039 205.978 191.753 206.326C183.618 206.985 180.575 200.429 182.079 197.421C185.377 190.825 183.975 186.029 190.654 182.801C197.249 179.613 200.107 176.645 203.625 176.425Z" fill="#29A68F"/>
<path d="M221.324 199.07C221.646 200.359 222.143 201.164 221.434 202.917C220.738 204.64 219.895 205.996 219.016 205.116C218.136 204.237 217.66 202.221 217.147 203.027C216.436 204.144 217.697 206.252 216.707 206.912C215.718 207.571 214.069 208.634 212.31 207.095C210.551 205.556 209.086 202.697 206.923 202.808C205.494 202.881 204.175 204.2 204.945 205.996C205.438 207.148 201.317 207.644 200.218 206.545C199.119 205.446 195.052 203.319 194.062 203.797C191.863 204.86 190.654 205.336 189.225 205.006C187.803 204.678 186.381 203.045 186.584 205.629C187.993 206.202 189.713 206.491 191.753 206.325C196.039 205.978 203.296 209.403 211.211 212.701C219.126 215.999 224.732 209.073 227.37 205.776C229.611 202.974 227.093 198.508 224.061 195.61C223.925 195.572 223.852 195.552 223.852 195.552C222.313 195.333 220.555 195.992 221.324 199.07Z" fill="#1F7C6A"/>
<path d="M203.368 215.121C203.368 215.121 207.912 210.064 213.409 210.723" stroke="#1F7C6A" stroke-width="4.1954" stroke-miterlimit="10" stroke-linecap="round"/>
<path d="M173.323 226.524C173.323 220.443 167.387 224.876 165.737 225.865C164.088 226.854 160.131 227.844 157.823 226.854C155.514 225.865 156.503 222.567 151.886 224.216C147.269 225.865 145.62 227.184 142.323 227.514C139.025 227.844 137.376 223.886 133.089 224.876C128.801 225.865 124.571 225.615 122.041 227.651C120.538 228.861 121.105 232.37 121.105 232.37L137.595 239.992L155.092 240.318C155.092 240.318 155.844 239.716 154.525 238.067C153.206 236.418 154.91 232.506 158.812 234.11C160.176 234.67 164.298 233.197 164.993 232.042C166.892 228.888 173.323 228.503 173.323 226.524Z" fill="#29A68F"/>
<path d="M158.812 234.11C158.963 234.172 159.169 234.207 159.412 234.22C159.143 233.394 159.911 232.119 159.142 232.042C158.372 231.966 158.372 232.442 157.108 232.507C155.844 232.571 152.821 232.021 151.557 231.526C150.293 231.032 147.489 229.438 145.566 230.372C143.642 231.307 144.576 232.662 145.566 232.507C146.555 232.351 147.433 233.011 147.214 233.67C146.995 234.33 147.27 234.989 149.029 235.154C150.759 235.316 152.012 234.524 154.407 237.901C153.318 236.172 155.035 232.558 158.812 234.11Z" fill="#1F7C6A"/>
<path d="M150.53 236.117C150.583 236.195 150.638 236.267 150.693 236.337C150.643 236.265 150.589 236.192 150.53 236.117Z" fill="#1F7C6A"/>
<path d="M137.156 229.832C136.73 229.523 135.617 226.909 134.628 228.338C133.638 229.767 133.363 228.833 132.869 229.218C132.374 229.603 133.363 230.071 133.803 230.084C134.243 230.097 136.075 230.519 136.405 230.958C137.321 230.464 138.97 230.537 139.794 231.581C140.564 231.105 141.014 230.354 142.378 230.244C140.546 229.09 139.648 228.21 137.156 229.832Z" fill="#1F7C6A"/>
<path d="M244.177 237.735C242.156 235.127 240.275 231.428 233.527 233.98C226.778 236.533 228.839 239.449 229.592 239.905C230.911 240.704 232.969 238.708 235.144 237.907C237.319 237.106 244.177 237.735 244.177 237.735Z" fill="#1F7C6A"/>
<path d="M235.144 241.722C235.144 241.722 235.144 239.401 237.179 237.521C239.939 234.973 246.137 238.693 246.137 238.693L244.177 240.7L235.144 241.722Z" fill="#1F7C6A"/>
<path d="M242.573 236.606C242.573 236.606 244.573 230.565 246.662 229.906C248.751 229.246 252.109 230.056 252.601 231.273C253.093 232.489 249.465 234.852 249.465 234.852L244.61 237.555L242.573 236.606Z" fill="#1F7C6A"/>
<path d="M246.136 240.028C241.967 232.68 224.765 232.621 224.184 234.578C223.643 236.403 229.739 237.2 235.443 238.468C241.018 239.708 243.596 240.9 243.596 240.9L246.136 240.028Z" fill="#29A68F"/>
<path d="M242.025 240.547C239.275 239.905 234.58 238.91 231.495 244.437C229.784 247.503 232.403 246.537 233.708 245.653C238.671 242.291 240.642 241.915 240.642 241.915L244.177 240.701L242.025 240.547Z" fill="#29A68F"/>
<path d="M243.701 239.139C243.701 239.139 245.915 234.511 249.67 232.566C253.426 230.622 256.243 230.219 258.054 230.286C259.865 230.353 260.398 230.966 257.45 232.097C246.786 236.188 246.137 240.028 246.137 240.028L243.701 239.139Z" fill="#29A68F"/>
<path d="M246.136 238.694C246.136 238.694 250.675 236.501 255.347 237.641C260.836 238.98 261.667 240.028 261.943 240.854C262.283 241.875 261.439 241.939 260.293 241.558C258.315 240.901 254.8 240.341 253.093 240.037C250.424 239.563 246.136 240.01 246.136 240.01V238.694Z" fill="#29A68F"/>
<path d="M243.145 240.037C243.596 240.9 242.87 241.874 243.365 243.282C243.859 244.691 244.629 244.746 245.068 244.691C245.508 244.636 246.921 243.587 246.992 242.987C247.267 240.678 246.136 240.01 246.136 240.01L243.145 240.037Z" fill="#29A68F"/>
<path d="M245.09 237.906C244.134 231.883 236.181 226.63 233.507 228.405C230.833 230.18 242.773 234.137 243.701 238.177C244.629 242.217 245.09 237.906 245.09 237.906Z" fill="#29A68F"/>
<path d="M164.34 240.468C164.34 240.468 163.848 237.661 169.454 236.645C175.06 235.629 176.215 238.516 177.039 238.804C177.864 239.092 182.81 237.223 184.459 237.828C186.108 238.432 186.301 239.422 189.42 239.669C192.539 239.917 194.353 238.15 196.991 238.951C199.63 239.752 204.998 237.827 205.988 241.269L164.34 240.468Z" fill="#29A68F"/>
</g>
<path d="M113.352 347.289V382.964" stroke="#0F4459" stroke-width="11.346" stroke-miterlimit="10" stroke-linecap="round"/>
<path d="M191.507 327.389V363.064" stroke="#0F4459" stroke-width="11.346" stroke-miterlimit="10" stroke-linecap="round"/>
<path d="M504.055 281.071L122.104 408.256C117.623 409.746 112.744 409.489 108.445 407.535C103.929 405.482 104.273 398.957 108.98 397.391L498.486 267.693L504.055 281.071Z" fill="#7DB7C9"/>
<mask id="mask8_5039_33639" style="mask-type:luminance" maskUnits="userSpaceOnUse" x="249" y="322" width="25" height="48">
<path d="M249.85 322.408H273.21V369.128H249.85V322.408Z" fill="white"/>
</mask>
<g mask="url(#mask8_5039_33639)">
<path d="M260.697 346.93C260.156 349.152 260.841 351.05 260.841 351.05" stroke="#0E3B49" stroke-width="2.62021" stroke-miterlimit="10" stroke-linecap="round"/>
<path d="M263.85 353.084C263.659 353.947 262.881 354.638 262.112 354.626C261.344 354.614 260.877 353.904 261.068 353.04C261.26 352.177 262.038 351.486 262.806 351.498C263.574 351.51 264.042 352.22 263.85 353.084Z" fill="#0F4459"/>
<path d="M263.357 352.744C263.165 353.607 262.387 354.298 261.619 354.286C260.851 354.274 260.384 353.564 260.575 352.701C260.767 351.837 261.545 351.146 262.313 351.158C263.081 351.17 263.549 351.88 263.357 352.744Z" fill="#0F4459"/>
<path d="M261.583 354.485L260.991 354.082L262.88 351.32L263.423 351.693L261.583 354.485Z" fill="#0F4459"/>
<path d="M263.249 351.513L263.467 351.267L262.717 350.771C262.526 350.647 262.296 350.575 262.037 350.57C261.133 350.556 260.218 351.369 259.993 352.385C259.886 352.864 259.953 353.304 260.148 353.635L260.916 354.143L262.865 351.946L263.289 351.682C263.279 351.624 263.265 351.568 263.249 351.513Z" fill="#376472"/>
<path d="M264.057 352.19C263.944 351.544 263.47 351.089 262.804 351.078C261.901 351.064 260.986 351.876 260.76 352.892C260.654 353.372 260.721 353.811 260.915 354.143L264.057 352.19Z" fill="#376472"/>
<path d="M260.372 342.484C260.372 342.484 259.688 344.474 258.871 346" stroke="#D42408" stroke-width="2.62021" stroke-miterlimit="10" stroke-linecap="round"/>
<path d="M262.456 347.834C262.456 347.834 261.777 350.058 262.456 352.003" stroke="#0F4459" stroke-width="2.62021" stroke-miterlimit="10" stroke-linecap="round"/>
<path d="M260.047 345.553L260.047 346.774C260.047 347.142 260.248 347.479 260.571 347.654L261.771 348.303C262.389 348.637 263.143 348.211 263.175 347.509L263.228 346.366L260.047 345.553Z" fill="#0F4459"/>
<path d="M261.595 347.253L260.577 346.757C260.215 346.58 259.973 346.225 259.941 345.823L259.693 342.924C259.604 341.803 260.768 341.009 261.779 341.503L262.836 342.02C263.54 342.364 263.949 343.116 263.854 343.894L263.229 346.366C263.134 347.144 262.3 347.598 261.595 347.253Z" fill="#EF3011"/>
<path d="M262.907 340.762C262.907 341.593 262.234 342.267 261.403 342.267C260.572 342.267 259.898 341.593 259.898 340.762C259.898 339.931 260.572 339.258 261.403 339.258C262.234 339.258 262.907 339.931 262.907 340.762Z" fill="#0F4459"/>
<path d="M263.146 343.064C263.146 343.064 264.53 344.7 264.105 346.748" stroke="#EF3011" stroke-width="2.62021" stroke-miterlimit="10" stroke-linecap="round"/>
</g>
<mask id="mask9_5039_33639" style="mask-type:luminance" maskUnits="userSpaceOnUse" x="328" y="312" width="24" height="24">
<path d="M328.05 312.307H351.41V335.667H328.05V312.307Z" fill="white"/>
</mask>
<g mask="url(#mask9_5039_33639)">
<path d="M338.401 320.424C338.401 320.424 338.311 322.208 336.471 324.281" stroke="#FF980F" stroke-width="2.59794" stroke-miterlimit="10" stroke-linecap="round"/>
<path d="M338.525 325.084C338.646 327.446 340.321 328.595 340.321 328.595" stroke="#0A2F3E" stroke-width="2.59794" stroke-miterlimit="10" stroke-linecap="round"/>
<path d="M340.293 325.855C340.293 325.855 339.351 327.898 338.967 330.708" stroke="#0F4459" stroke-width="2.59794" stroke-miterlimit="10" stroke-linecap="round"/>
<path d="M337.892 323.746V324.957C337.892 325.321 338.091 325.656 338.412 325.83L339.601 326.473C340.214 326.804 340.961 326.381 340.993 325.686L341.046 324.553L337.892 323.746Z" fill="#0F4459"/>
<path d="M339.427 325.434L338.418 324.942C338.058 324.766 337.818 324.414 337.786 324.016L337.541 321.141C337.452 320.029 338.606 319.243 339.608 319.732L340.657 320.244C341.355 320.586 341.76 321.332 341.666 322.103L341.046 324.554C340.952 325.326 340.125 325.775 339.427 325.434Z" fill="#FFAD1D"/>
<path d="M340.65 318.73C340.65 319.554 339.982 320.221 339.159 320.221C338.335 320.221 337.667 319.554 337.667 318.73C337.667 317.906 338.335 317.238 339.159 317.238C339.982 317.238 340.65 317.906 340.65 318.73Z" fill="#0F4459"/>
<path d="M340.922 321.293C340.922 321.293 341.824 322.51 342.607 324.676" stroke="#FFAD1D" stroke-width="2.59794" stroke-miterlimit="10" stroke-linecap="round"/>
</g>
<mask id="mask10_5039_33639" style="mask-type:luminance" maskUnits="userSpaceOnUse" x="189" y="360" width="25" height="24">
<path d="M189.678 360.508H213.038V383.868H189.678V360.508Z" fill="white"/>
</mask>
<g mask="url(#mask10_5039_33639)">
<path d="M200.029 368.445C200.029 368.445 199.633 370.209 201.709 371.827" stroke="#D42407" stroke-width="2.59794" stroke-miterlimit="10" stroke-linecap="round"/>
<path d="M200.165 373.113C201.376 374.645 200.103 376.371 200.103 376.371" stroke="#0A2F3E" stroke-width="2.59794" stroke-miterlimit="10" stroke-linecap="round"/>
<path d="M201.973 373.957C201.973 373.957 202.67 375.539 202.935 378.07" stroke="#0F4459" stroke-width="2.59794" stroke-miterlimit="10" stroke-linecap="round"/>
<path d="M199.521 371.77V372.981C199.521 373.345 199.72 373.68 200.041 373.853L201.23 374.496C201.842 374.827 202.59 374.405 202.622 373.71L202.675 372.576L199.521 371.77Z" fill="#0F4459"/>
<path d="M201.054 373.455L200.046 372.963C199.686 372.788 199.446 372.436 199.414 372.037L199.169 369.163C199.08 368.051 200.234 367.264 201.236 367.754L202.285 368.266C202.983 368.607 203.388 369.353 203.294 370.124L202.674 372.575C202.58 373.347 201.753 373.797 201.054 373.455Z" fill="#EF3011"/>
<path d="M203.524 366.751C203.524 367.575 202.856 368.243 202.033 368.243C201.209 368.243 200.541 367.575 200.541 366.751C200.541 365.928 201.209 365.26 202.033 365.26C202.856 365.26 203.524 365.928 203.524 366.751Z" fill="#0F4459"/>
<path d="M202.549 369.316C202.549 369.316 201.69 370.902 202.208 373.168" stroke="#EF3011" stroke-width="2.59794" stroke-miterlimit="10" stroke-linecap="round"/>
</g>
<path d="M504.946 298.502L167.617 411.977" stroke="#0F4459" stroke-width="4.1954" stroke-miterlimit="10" stroke-linecap="round"/>
<path d="M265.956 366.604C265.516 363.086 268.594 353.412 277.388 352.533C286.183 351.653 287.502 356.051 291.899 354.731C296.296 353.412 299.374 349.015 303.332 349.455C307.289 349.895 310.367 346.817 312.566 347.696C314.764 348.576 312.566 350.334 310.807 351.214C309.048 352.093 265.956 366.604 265.956 366.604Z" fill="#29A68F"/>
<path d="M207.059 389.655C202.297 391.222 203.871 384.708 209.257 381.3C212.474 379.265 215.853 381.74 218.931 380.421C222.009 379.102 223.768 370.747 232.562 368.548C241.357 366.35 243.116 368.108 251.91 366.789C260.704 365.47 261.144 361.513 264.662 360.633C268.18 359.754 270.378 362.392 272.576 362.832C274.775 363.272 278.293 360.633 280.931 360.633C283.569 360.633 285.768 362.392 283.13 364.151C280.491 365.91 224.757 383.828 207.059 389.655Z" fill="#29A68F"/>
<path d="M325.261 348.782C324.59 345.746 328.496 343.153 331.17 341.908C333.843 340.662 333.258 337.348 335.772 334.557C337.077 333.109 341.547 332.518 344.123 334.789C346.7 337.059 350.506 336.615 353.523 334.884C354.898 334.095 356.565 330.294 359.666 329.501C362.767 328.707 363.122 331.796 365.771 331.429C368.42 331.063 375.111 327.729 378.188 327.814C381.265 327.899 381.825 330.124 378.97 331.355C375.853 332.698 325.554 350.11 325.261 348.782Z" fill="#29A68F"/>
<path d="M396.991 320.873C390.831 319.817 398.31 313.838 400.069 315.157C400.069 315.157 402.982 317.41 403.971 314.937C404.961 312.464 406.115 310.485 407.764 310.65C409.413 310.815 410.897 311.474 412.546 311.309C414.195 311.144 416.338 306.033 419.636 305.703C422.934 305.373 423.923 306.033 425.737 305.868C427.551 305.703 426.397 298.118 432.168 296.304C437.851 294.518 439.753 296.799 440.743 297.458C441.732 298.118 441.732 296.469 444.04 296.469C446.184 296.469 447.503 302.075 450.471 300.921C453.439 299.767 452.45 296.964 455.913 296.799C459.376 296.634 460.035 298.613 459.046 299.767C458.056 300.921 398.915 321.203 396.991 320.873Z" fill="#29A68F"/>
<mask id="mask11_5039_33639" style="mask-type:alpha" maskUnits="userSpaceOnUse" x="147" y="235" width="356" height="213">
<path d="M499.125 235.211L147.946 370.699L199.338 447.787L502.24 374.592L499.125 235.211Z" fill="#FF00E8"/>
</mask>
<g mask="url(#mask11_5039_33639)">
<mask id="mask12_5039_33639" style="mask-type:luminance" maskUnits="userSpaceOnUse" x="0" y="0" width="584" height="585">
<path d="M0 0.832031H584V584.832H0V0.832031Z" fill="white"/>
</mask>
<g mask="url(#mask12_5039_33639)">
<path d="M443.556 318.913C443.556 318.514 443.363 318.141 443.037 317.914C441.204 316.638 434.578 312.408 424.014 309.873L423.788 316.118C423.101 316.222 422.529 316.344 422.109 316.479C419.433 317.339 253.821 374.394 253.821 374.394L245.948 373.771L241.697 382.785L247.707 389.286C247.707 389.286 427.092 328.735 440.006 324.17C441.716 323.566 443.702 322.024 443.545 320.266L443.556 320.262V318.913Z" fill="#EDF7F9"/>
<path d="M236.095 382.808C236.095 382.808 235.321 379.268 236.372 375.686C237.678 371.238 242.21 367.818 242.21 367.818L253.821 374.395C253.821 374.395 250.328 376.065 248.047 382.1C246.68 385.717 247.706 389.287 247.706 389.287L236.095 382.808Z" fill="#EDF7F9"/>
<g opacity="0.25">
<path d="M394.695 327.131L377.967 332.791V345.513L386.489 342.633L394.695 327.131Z" fill="#EF3011"/>
</g>
<path d="M377.967 345.422C377.859 345.422 377.772 345.335 377.772 345.227V342.696C377.772 342.589 377.859 342.502 377.967 342.502C378.075 342.502 378.162 342.589 378.162 342.696V345.227C378.162 345.335 378.075 345.422 377.967 345.422ZM377.967 340.36C377.859 340.36 377.772 340.273 377.772 340.166V337.635C377.772 337.527 377.859 337.44 377.967 337.44C378.075 337.44 378.162 337.527 378.162 337.635V340.166C378.162 340.273 378.075 340.36 377.967 340.36ZM377.967 335.299C377.859 335.299 377.772 335.212 377.772 335.104V332.679C377.772 332.571 377.859 332.484 377.967 332.484C378.075 332.484 378.162 332.571 378.162 332.679V335.104C378.162 335.212 378.075 335.299 377.967 335.299Z" fill="#EF3011"/>
<g opacity="0.25">
<path d="M289.711 362.373L272.982 368.033V380.755L281.505 377.876L289.711 362.373Z" fill="#EF3011"/>
</g>
<path d="M272.983 380.662C272.875 380.662 272.788 380.575 272.788 380.467V377.936C272.788 377.829 272.875 377.742 272.983 377.742C273.09 377.742 273.177 377.829 273.177 377.936V380.467C273.177 380.575 273.09 380.662 272.983 380.662ZM272.983 375.6C272.875 375.6 272.788 375.513 272.788 375.406V372.875C272.788 372.767 272.875 372.68 272.983 372.68C273.09 372.68 273.177 372.767 273.177 372.875V375.406C273.177 375.513 273.09 375.6 272.983 375.6ZM272.983 370.539C272.875 370.539 272.788 370.452 272.788 370.344V367.919C272.788 367.812 272.875 367.725 272.983 367.725C273.09 367.725 273.177 367.812 273.177 367.919V370.344C273.177 370.452 273.09 370.539 272.983 370.539Z" fill="#EF3011"/>
<path d="M424.014 309.873L423.788 316.118C423.472 316.166 423.182 316.218 422.918 316.273L423.263 316.474V317.896C423.263 322.575 427.851 325.877 432.288 324.391L438.965 322.155C438.965 322.155 442.705 320.685 443.036 317.914C441.203 316.638 434.578 312.408 424.014 309.873Z" fill="#7DB7C9"/>
<path d="M369.234 345.6L306.682 366.801V364.029C306.682 361.359 308.383 358.986 310.911 358.129L373.464 336.928V339.7C373.464 342.369 371.762 344.743 369.234 345.6Z" fill="#7DB7C9"/>
<path d="M417.747 329.127L407.873 332.565V329.754C407.873 327.104 409.551 324.743 412.054 323.871L421.928 320.434V323.244C421.928 325.895 420.251 328.256 417.747 329.127Z" fill="#7DB7C9"/>
<path d="M265.503 380.502L255.629 383.94V381.129C255.629 378.479 257.307 376.118 259.81 375.246L269.684 371.809V374.619C269.684 377.27 268.007 379.631 265.503 380.502Z" fill="#7DB7C9"/>
<g opacity="0.25">
<path d="M306.682 364.028V366.801L311.696 365.101C329.274 357.479 332.407 353.852 337.354 353.027C342.3 352.203 352.551 346.693 355.011 343.182C355.01 343.182 355.01 343.182 355.01 343.182L310.911 358.129C308.383 358.986 306.682 361.359 306.682 364.028Z" fill="#EDF7F9"/>
</g>
<path d="M238.016 374.117C238.692 372.695 239.648 371.454 240.506 370.519C241.109 369.862 242.082 369.702 242.859 370.14L249.838 374.077C250.739 374.585 250.971 375.789 250.308 376.583C249.714 377.295 249.078 378.218 248.482 379.401C247.995 380.367 246.804 380.738 245.856 380.217L238.718 376.296C237.944 375.871 237.636 374.915 238.016 374.117Z" fill="#7DB7C9"/>
<mask id="mask13_5039_33639" style="mask-type:alpha" maskUnits="userSpaceOnUse" x="237" y="309" width="207" height="75">
<path d="M424.014 309.873L423.788 316.118C423.472 316.166 423.182 316.218 422.918 316.273L423.263 316.474V317.896C423.263 322.575 427.851 325.877 432.288 324.391L438.965 322.155C438.965 322.155 442.705 320.685 443.036 317.914C441.203 316.638 434.578 312.408 424.014 309.873Z" fill="#7DB7C9"/>
<path d="M369.234 345.6L306.682 366.801V364.029C306.682 361.359 308.383 358.986 310.911 358.129L373.464 336.928V339.7C373.464 342.369 371.762 344.743 369.234 345.6Z" fill="#7DB7C9"/>
<path d="M417.747 329.127L407.873 332.565V329.754C407.873 327.104 409.551 324.743 412.054 323.871L421.928 320.434V323.244C421.928 325.895 420.251 328.256 417.747 329.127Z" fill="#7DB7C9"/>
<path d="M265.503 380.502L255.629 383.94V381.129C255.629 378.479 257.307 376.118 259.81 375.246L269.684 371.809V374.619C269.684 377.27 268.007 379.631 265.503 380.502Z" fill="#7DB7C9"/>
<g opacity="0.25">
<path d="M306.682 364.028V366.801L311.696 365.101C329.274 357.479 332.407 353.852 337.354 353.027C342.3 352.203 352.551 346.693 355.011 343.182C355.01 343.182 355.01 343.182 355.01 343.182L310.911 358.129C308.383 358.986 306.682 361.359 306.682 364.028Z" fill="#EDF7F9"/>
</g>
<path d="M238.016 374.117C238.692 372.695 239.648 371.454 240.506 370.519C241.109 369.862 242.082 369.702 242.859 370.14L249.838 374.077C250.739 374.585 250.971 375.789 250.308 376.583C249.714 377.295 249.078 378.218 248.482 379.401C247.995 380.367 246.804 380.738 245.856 380.217L238.718 376.296C237.944 375.871 237.636 374.915 238.016 374.117Z" fill="#7DB7C9"/>
</mask>
<g mask="url(#mask13_5039_33639)">
<g opacity="0.35">
<path d="M295.544 298.097L268.888 423.503L258.158 421.223L284.813 295.816L295.544 298.097Z" fill="white"/>
<path d="M325.443 291.83L298.787 417.236L278.536 412.932L305.192 287.525L325.443 291.83Z" fill="white"/>
<path d="M352.887 286.905L326.231 412.312L322.927 411.609L349.583 286.203L352.887 286.905Z" fill="white"/>
<path d="M408.333 278.787L381.677 404.194L347.907 397.016L374.562 271.609L408.333 278.787Z" fill="white"/>
<path d="M445.293 272.019L418.637 397.425L407.907 395.144L434.562 269.738L445.293 272.019Z" fill="white"/>
<path d="M262.072 309.729L235.416 435.135L220.116 431.883L246.771 306.477L262.072 309.729Z" fill="white"/>
<path d="M479.32 267.682L452.664 393.088L437.364 389.836L464.02 264.43L479.32 267.682Z" fill="white"/>
</g>
</g>
<path d="M400.916 325.158L392.94 327.699L385.321 343.06L400.916 337.532V325.158Z" fill="#0C3A4C"/>
<path d="M394.735 332.252L390.33 333.659L385.547 342.888L401.013 337.605L394.735 332.252Z" fill="#042735"/>
<path d="M295.796 360.393L287.82 362.933L280.201 378.489L295.796 372.961V360.393Z" fill="#0C3A4C"/>
<path d="M289.615 367.682L285.21 369.089L280.427 378.317L295.893 373.035L289.615 367.682Z" fill="#042735"/>
<path d="M300.356 359.906L292.113 375.21L277.983 380.043L286.19 364.54L300.356 359.906Z" fill="#0F4459"/>
<path d="M296.225 362.592L291.724 370.768C291.031 372.026 289.894 372.981 288.535 373.446L282.985 375.344L287.448 367.123C288.151 365.827 289.324 364.849 290.726 364.391L296.225 362.592Z" fill="#7DB7C9"/>
<path d="M405.341 324.664L397.098 339.968L382.968 344.8L391.174 329.298L405.341 324.664Z" fill="#0F4459"/>
<path d="M401.21 327.35L396.708 335.526C396.016 336.784 394.879 337.739 393.52 338.203L387.97 340.101L392.432 331.88C393.136 330.584 394.309 329.607 395.71 329.148L401.21 327.35Z" fill="#7DB7C9"/>
<path d="M253.821 374.394C253.821 374.394 411.669 321.809 424.582 317.245C426.997 316.391 429.965 313.67 426.671 311.109C422.953 308.219 416.269 309.085 412.946 310.153C410.55 310.924 267.903 358.066 245.837 365.371C243.264 366.223 242.21 367.818 242.21 367.818L253.821 374.394Z" fill="#0F4459"/>
</g>
</g>
<mask id="mask14_5039_33639" style="mask-type:luminance" maskUnits="userSpaceOnUse" x="432" y="308" width="24" height="25">
<path d="M432.285 308.92H455.645V332.28H432.285V308.92Z" fill="white"/>
</mask>
<g mask="url(#mask14_5039_33639)">
<path d="M442.636 317.141C442.636 317.141 442.461 318.826 444.982 320.443" stroke="#FF980F" stroke-width="2.59794" stroke-miterlimit="10" stroke-linecap="round"/>
<path d="M442.772 321.82C442.969 323.722 442.142 326.419 442.142 326.419" stroke="#0A2F3E" stroke-width="2.59794" stroke-miterlimit="10" stroke-linecap="round"/>
<path d="M444.518 322.715C444.518 322.715 445.801 323.442 447.058 325.904" stroke="#0F4459" stroke-width="2.59794" stroke-miterlimit="10" stroke-linecap="round"/>
<path d="M442.128 320.465V321.676C442.128 322.04 442.328 322.375 442.648 322.548L443.838 323.192C444.45 323.523 445.197 323.1 445.23 322.405L445.282 321.271L442.128 320.465Z" fill="#0F4459"/>
<path d="M445.282 321.27L445.902 318.82C445.996 318.048 445.59 317.302 444.892 316.961L443.844 316.449C442.842 315.96 441.687 316.746 441.776 317.858L442.022 320.732C442.054 321.131 442.294 321.483 442.653 321.659L443.662 322.15C444.361 322.492 445.188 322.042 445.282 321.27Z" fill="#FFAD1D"/>
<path d="M446.132 315.447C446.132 316.27 445.464 316.938 444.64 316.938C443.816 316.938 443.148 316.27 443.148 315.447C443.148 314.623 443.816 313.955 444.64 313.955C445.464 313.955 446.132 314.623 446.132 315.447Z" fill="#0F4459"/>
<path d="M445.158 318.012C445.158 318.012 444.059 319.509 444.36 322.006" stroke="#FFAD1D" stroke-width="2.59794" stroke-miterlimit="10" stroke-linecap="round"/>
</g>
<path d="M303.215 356.557V392.232" stroke="#0F4459" stroke-width="11.346" stroke-miterlimit="10" stroke-linecap="round"/>
<path d="M373.06 370.223V387.211" stroke="#0F4459" stroke-width="11.346" stroke-miterlimit="10" stroke-linecap="round"/>
<path d="M491.328 317.693V294.938" stroke="#1F7C6A" stroke-width="8.3908" stroke-miterlimit="10" stroke-linecap="round"/>
<path d="M473.301 300.671C470.905 293.784 472.023 282.745 475.663 276.635C479.303 270.525 481.071 257.575 486.876 246.443C490.842 238.835 494.003 245.057 495.285 248.859C496.505 252.476 497.015 256.793 498.748 259.375C501.62 263.656 502.184 267.479 502.87 274.577C503.334 279.377 507.297 283.351 508.616 292.35C509.237 296.589 506.822 309.942 493.468 310.565C480.115 311.189 474.993 305.535 473.301 300.671Z" fill="#29A68F"/>
<path d="M502.87 274.577C502.184 267.479 501.62 263.656 498.748 259.375C497.057 256.855 496.528 252.685 495.37 249.123C495.865 251.849 495.849 253.948 494.461 255.562C492.152 258.245 493.688 261.873 494.816 262.697C495.945 263.521 498.528 268.798 496.876 277.372C496.464 279.511 498.809 280.777 500.397 281.33C504.819 282.869 506.25 288.546 503.255 290.014C497.649 292.763 499.947 297.49 499.677 299.633C499.408 301.777 497.759 304.25 495.12 304.58C492.482 304.91 494.79 306.357 491.328 307.53C488.476 308.495 483.837 306.766 482.379 309.255C485.225 310.247 488.855 310.781 493.468 310.565C506.821 309.942 509.237 296.589 508.616 292.351C507.297 283.352 503.334 279.377 502.87 274.577Z" fill="#1F7C6A"/>
<g opacity="0.15">
<path d="M137.208 386.221C151.228 381.479 179.578 372.716 193.835 368.666C203.415 365.945 214.623 363.105 233.474 364.702C250.179 366.118 257.971 367.269 265.59 370.144C276.871 374.401 295.932 382.283 306.333 388.467C314.51 393.329 334.048 396.394 356.465 394.885C380.276 393.283 403.181 384.192 418.464 377.817C455.131 362.522 507.691 339.551 522.045 332.384C546.711 320.068 522.896 312.764 506.109 318.821C488.819 325.059 436.767 348.656 412.432 356.598C395.694 362.061 369.478 370.309 344.916 370.651C331.9 370.832 295.981 358.886 293.715 357.753C291.45 356.621 265.752 344.669 236.846 343.314C212.478 342.171 181.66 346.299 162.243 352.505C149.024 356.73 133.493 362.449 119.299 367.251C117.004 368.027 115.051 368.866 113.413 369.747C114.464 378.484 114.075 379.263 113.554 386.187C119.335 388.684 128.023 389.327 137.208 386.221Z" fill="#0F4459"/>
</g>
<path d="M95.9385 343.891C110.132 339.089 125.663 333.37 138.882 329.145C158.299 322.939 189.117 318.811 213.485 319.954C242.391 321.309 268.09 333.261 270.355 334.394C272.62 335.526 309.016 351.835 320.777 357.414C342.186 367.57 374.669 362.84 391.408 357.377C415.742 349.435 495.048 322.334 512.337 316.096C512.337 313.798 510.065 312.189 507.898 312.954C484.339 321.269 414.059 345.262 391.408 352.654C374.669 358.117 342.186 362.847 320.777 352.691C309.016 347.112 272.62 330.804 270.355 329.671C268.09 328.538 242.391 316.587 213.485 315.231C189.117 314.089 158.299 318.216 138.882 324.422C127.035 328.209 113.331 333.196 100.396 337.647C97.7298 338.564 95.9385 341.071 95.9385 343.891Z" fill="#376472"/>
<path d="M113.847 362.861C127.868 358.119 156.217 349.356 170.475 345.307C180.055 342.585 191.263 339.745 210.114 341.343C226.819 342.758 234.61 343.909 242.229 346.784C253.51 351.041 281.526 366.321 291.927 372.504C300.105 377.366 312.043 382.398 336.219 384.763C359.971 387.087 386.769 381.819 402.501 376.649C443.036 363.328 506.759 339.703 521.266 333.942C546.889 323.766 529.125 310.039 512.338 316.096C495.048 322.334 415.742 349.435 391.408 357.377C374.669 362.84 342.186 367.57 320.777 357.413C309.016 351.834 272.62 335.526 270.355 334.393C268.09 333.261 242.391 321.309 213.486 319.954C189.118 318.811 158.3 322.939 138.882 329.145C125.663 333.37 110.132 339.089 95.9388 343.891C68.7577 353.086 89.5681 371.072 113.847 362.861Z" fill="#EDF7F9"/>
<path d="M521.266 334.039C506.759 339.8 443.037 363.523 402.501 376.843C386.769 382.013 359.971 387.184 336.219 384.86C312.043 382.494 300.105 377.366 291.927 372.504C281.527 366.32 253.511 351.235 242.23 346.978C234.61 344.104 225.035 342.471 210.114 341.537C194.664 340.57 180.055 342.78 170.475 345.501C156.218 349.551 127.868 358.119 113.848 362.861C113.848 359.944 115.721 357.358 118.492 356.448C133.437 351.535 157.654 344.081 170.475 340.439C180.055 337.718 193.087 335.388 210.114 336.476C224.743 337.41 234.61 339.042 242.23 341.917C253.511 346.174 281.527 361.454 291.927 367.637C300.105 372.499 312.043 377.53 336.219 379.896C359.971 382.22 386.769 376.952 402.501 371.782C439.713 359.554 496.465 338.641 516.745 330.837C518.924 329.998 521.363 331.363 521.363 333.698L521.266 334.039Z" fill="#0F4459"/>
<mask id="mask15_5039_33639" style="mask-type:luminance" maskUnits="userSpaceOnUse" x="273" y="325" width="24" height="24">
<path d="M273.507 325.342H296.867V348.702H273.507V325.342Z" fill="white"/>
</mask>
<g mask="url(#mask15_5039_33639)">
<path d="M284.819 333.636C284.819 333.636 284.221 335.496 286.194 337.029" stroke="#D42407" stroke-width="2.59794" stroke-miterlimit="10" stroke-linecap="round"/>
<path d="M283.994 338.254C284.003 340.293 283.819 342.819 283.819 342.819" stroke="#0A2F3E" stroke-width="2.59794" stroke-miterlimit="10" stroke-linecap="round"/>
<path d="M285.52 339.338C285.52 339.338 285.872 340.231 285.401 343.655" stroke="#0F4459" stroke-width="2.59794" stroke-miterlimit="10" stroke-linecap="round"/>
<path d="M283.488 336.857L283.383 338.064C283.351 338.427 283.521 338.778 283.825 338.978L284.954 339.723C285.535 340.106 286.316 339.75 286.409 339.06L286.56 337.936L283.488 336.857Z" fill="#0F4459"/>
<path d="M284.78 338.75L283.896 338.059C283.581 337.813 283.419 337.418 283.471 337.022L283.828 334.159C283.973 333.053 285.265 332.524 286.144 333.211L287.063 333.93C287.675 334.408 287.916 335.222 287.664 335.958L286.548 338.226C286.295 338.961 285.393 339.229 284.78 338.75Z" fill="#EF3011"/>
<path d="M288.589 332.706C288.418 333.512 287.626 334.026 286.82 333.855C286.015 333.684 285.5 332.892 285.672 332.086C285.843 331.28 286.635 330.766 287.441 330.937C288.246 331.108 288.761 331.9 288.589 332.706Z" fill="#0F4459"/>
<path d="M287.104 335.012C287.104 335.012 286.744 337.863 289.746 337.969" stroke="#EF3011" stroke-width="2.59794" stroke-miterlimit="10" stroke-linecap="round"/>
</g>
<mask id="mask16_5039_33639" style="mask-type:luminance" maskUnits="userSpaceOnUse" x="447" y="310" width="27" height="53">
<path d="M447.008 310.137H473.288V362.697H447.008V310.137Z" fill="white"/>
</mask>
<g mask="url(#mask16_5039_33639)">
<path d="M455.979 337.829C455.979 337.829 461.269 336.662 459.125 341.277" stroke="#0E3B49" stroke-width="2.94714" stroke-miterlimit="10" stroke-linecap="round"/>
<path d="M457.064 344.337C456.669 346.119 455.064 347.543 453.48 347.518C451.895 347.494 450.931 346.03 451.326 344.248C451.721 342.467 453.326 341.042 454.91 341.067C456.495 341.091 457.459 342.555 457.064 344.337Z" stroke="#0F4459" stroke-width="1.58599" stroke-miterlimit="10"/>
<path d="M464.715 337.635C466.3 337.66 467.264 339.124 466.869 340.905C466.474 342.687 464.869 344.111 463.284 344.087C461.7 344.062 460.735 342.598 461.131 340.816C461.526 339.035 463.13 337.611 464.715 337.635Z" stroke="#0E4358" stroke-width="1.58599" stroke-miterlimit="10"/>
<path d="M464 340.861C464 340.861 462.723 338.846 462.723 336.967C462.723 335.087 462.723 335.729 462.723 335.729" stroke="#EF3011" stroke-width="0.811376" stroke-linecap="round" stroke-linejoin="round"/>
<path d="M456.602 339.643L458.58 342.716L454.195 344.293L456.602 339.643Z" stroke="#EF3011" stroke-width="0.811376" stroke-linecap="round" stroke-linejoin="round"/>
<path d="M456.259 338.717L456.602 339.641L462.83 337.967L458.579 342.714" stroke="#EF3011" stroke-width="0.811376" stroke-linecap="round" stroke-linejoin="round"/>
<path d="M457.417 339.051C457.417 339.051 458.711 340.901 459.025 344.644" stroke="#0F4459" stroke-width="2.94714" stroke-miterlimit="10" stroke-linecap="round"/>
<path d="M455.192 336.176L454.973 337.532C454.908 337.94 455.071 338.351 455.399 338.603L456.615 339.538C457.241 340.019 458.154 339.681 458.316 338.908L458.579 337.648L455.192 336.176Z" fill="#0F4459"/>
<path d="M463.999 336.578L461.371 334.166" stroke="#EF3011" stroke-width="0.81181" stroke-miterlimit="10" stroke-linecap="round"/>
<path d="M457.254 332.484C457.254 332.484 458.356 334.377 461.226 334.012" stroke="#FF990F" stroke-width="2.94714" stroke-miterlimit="10" stroke-linecap="round"/>
<path d="M456.63 338.222L455.641 337.419C455.289 337.133 455.115 336.682 455.182 336.233L455.65 332.994C455.838 331.743 457.316 331.171 458.297 331.97L459.324 332.805C460.007 333.362 460.263 334.29 459.961 335.118L458.646 337.666C458.343 338.495 457.314 338.779 456.63 338.222Z" fill="#FFAD1D"/>
<path d="M461.656 331.176C461.444 332.086 460.534 332.652 459.624 332.44C458.714 332.228 458.148 331.319 458.36 330.408C458.572 329.498 459.481 328.932 460.392 329.144C461.302 329.356 461.868 330.266 461.656 331.176Z" fill="#0F4459"/>
<path d="M459.376 334.531C459.376 334.531 460.618 337.111 463.947 336.588" stroke="#FFAD1D" stroke-width="2.94714" stroke-miterlimit="10" stroke-linecap="round"/>
</g>
<mask id="mask17_5039_33639" style="mask-type:luminance" maskUnits="userSpaceOnUse" x="92" y="320" width="27" height="54">
<path d="M92.1113 320.957H118.391V373.517H92.1113V320.957Z" fill="white"/>
</mask>
<g mask="url(#mask17_5039_33639)">
<path d="M102.625 348.789C102.625 348.789 106.053 348.571 103.373 352.584" stroke="#0E3B49" stroke-width="2.94714" stroke-miterlimit="10" stroke-linecap="round"/>
<path d="M102.168 355.157C101.773 356.939 100.168 358.363 98.5831 358.339C96.9986 358.314 96.0343 356.85 96.4294 355.068C96.8244 353.287 98.4293 351.862 100.014 351.887C101.598 351.912 102.563 353.376 102.168 355.157Z" stroke="#0F4459" stroke-width="1.58599" stroke-miterlimit="10"/>
<path d="M109.819 348.457C111.403 348.482 112.367 349.946 111.972 351.728C111.577 353.509 109.972 354.934 108.388 354.909C106.803 354.884 105.839 353.42 106.234 351.639C106.629 349.857 108.234 348.433 109.819 348.457Z" stroke="#0E4358" stroke-width="1.58599" stroke-miterlimit="10"/>
<path d="M109.103 351.684C109.103 351.684 107.827 349.669 107.827 347.789C107.827 345.909 107.827 346.551 107.827 346.551" stroke="#FFAD1D" stroke-width="0.811376" stroke-linecap="round" stroke-linejoin="round"/>
<path d="M101.706 350.465L103.683 353.538L99.2988 355.115L101.706 350.465Z" stroke="#FFAD1D" stroke-width="0.811376" stroke-linecap="round" stroke-linejoin="round"/>
<path d="M101.362 349.539L101.706 350.463L107.934 348.789L103.683 353.537" stroke="#FFAD1D" stroke-width="0.811376" stroke-linecap="round" stroke-linejoin="round"/>
<path d="M102.731 350.188C102.731 350.188 104.204 351.947 104.479 354.186" stroke="#0F4459" stroke-width="2.94714" stroke-miterlimit="10" stroke-linecap="round"/>
<path d="M100.315 346.981L100.082 348.335C100.012 348.742 100.171 349.155 100.496 349.41L101.702 350.358C102.323 350.846 103.24 350.517 103.41 349.746L103.686 348.489L100.315 346.981Z" fill="#0F4459"/>
<path d="M109.103 347.399L106.475 344.986" stroke="#FFAD1D" stroke-width="0.81181" stroke-miterlimit="10" stroke-linecap="round"/>
<path d="M102.469 343.309C102.469 343.309 103.552 345.351 106.422 344.986" stroke="#D42408" stroke-width="2.94714" stroke-miterlimit="10" stroke-linecap="round"/>
<path d="M101.73 349.042L100.75 348.229C100.402 347.939 100.232 347.486 100.304 347.038L100.807 343.804C101.008 342.555 102.491 341.999 103.464 342.808L104.481 343.654C105.159 344.218 105.405 345.149 105.095 345.974L103.752 348.508C103.441 349.333 102.409 349.606 101.73 349.042Z" fill="#EF3011"/>
<path d="M106.831 342.049C106.609 342.957 105.694 343.513 104.786 343.292C103.878 343.07 103.322 342.154 103.543 341.247C103.765 340.339 104.68 339.782 105.588 340.004C106.496 340.226 107.052 341.141 106.831 342.049Z" fill="#0F4459"/>
<path d="M104.526 345.355C104.526 345.355 105.741 347.898 109.07 347.376" stroke="#EF3011" stroke-width="2.94714" stroke-miterlimit="10" stroke-linecap="round"/>
</g>
<g opacity="0.15">
<path d="M344.196 310.348C348.707 303.808 355.378 298.667 368.685 298.549C381.992 298.431 390.008 292.977 399.801 292.847C409.594 292.717 412.793 297.023 411.349 300.963C409.905 304.903 408.863 306.109 395.713 309.034C382.563 311.959 379.308 313.289 375.168 315.293C371.027 317.298 356.477 321.658 349.131 319.252C341.305 316.689 341.801 313.82 344.196 310.348Z" fill="#0F4459"/>
</g>
<path d="M373.905 307.241C372.586 300.425 366.43 294.269 351.26 291.191" stroke="#1F7C6A" stroke-width="5.45402" stroke-miterlimit="10" stroke-linecap="round"/>
<path d="M377.423 288.773C377.423 288.773 371.047 293.17 371.047 300.426" stroke="#1F7C6A" stroke-width="5.45402" stroke-miterlimit="10" stroke-linecap="round"/>
<path d="M330.6 286.981C335.47 275.85 342.416 267.411 355.709 268.518C369.002 269.626 377.31 260.764 387.095 261.503C396.88 262.241 399.835 270.18 398.173 277.011C396.511 283.842 395.403 285.873 382.11 289.75C368.817 293.627 365.494 295.658 361.248 298.797C357.002 301.935 342.232 308.213 335.031 303.228C327.36 297.917 328.016 292.889 330.6 286.981Z" fill="#29A68F"/>
<path d="M392.635 283.658C391.158 281.996 388.757 284.95 382.111 286.981C375.464 289.012 375.465 286.242 368.818 287.535C362.172 288.827 361.987 292.519 358.848 294.366C355.71 296.212 353.863 292.889 350.355 291.966C346.848 291.043 345.371 295.658 340.201 298.058C335.93 300.042 332.162 297.36 328.899 292.619C328.499 296.26 329.908 299.681 335.032 303.228C342.232 308.213 357.002 301.935 361.248 298.797C365.495 295.658 368.818 293.627 382.111 289.75C387.464 288.189 390.84 286.927 393.073 285.53C393.055 284.653 392.922 283.981 392.635 283.658Z" fill="#1F7C6A"/>
<g opacity="0.15">
<path d="M196.661 438.919C182.959 440.452 185.712 437.664 174.265 436.837C164.338 436.12 160.452 428.611 169.923 425.884C175.727 424.213 169.341 421.182 176.241 420.336C183.14 419.489 185.834 420.979 195.721 420.619C205.609 420.259 211.117 417.478 216.068 417.496C220.499 417.513 225.513 423.106 229.934 426.716C233.583 429.695 230.487 432.848 217.362 434.914C204.237 436.98 201.919 438.33 196.661 438.919Z" fill="#0F4459"/>
</g>
<path d="M180.236 415.869C180.236 415.869 190.389 425.381 190.389 434.427" stroke="#1F7C6A" stroke-width="8.3908" stroke-miterlimit="10" stroke-linecap="round"/>
<path d="M178.098 427.158C164.35 428.877 164.798 424.42 148.747 423.86C138.797 423.513 140.502 409.35 150.066 405.392C155.928 402.967 153.034 394.509 159.959 393.52C166.885 392.531 169.523 395.169 179.417 395.169C189.311 395.169 194.917 390.882 199.864 391.211C204.291 391.507 209.098 401.105 213.385 407.371C216.923 412.542 213.715 417.594 200.523 420.233C187.332 422.871 183.374 426.499 178.098 427.158Z" fill="#29A68F"/>
<path d="M203.607 404.574C202.86 407.27 204.339 408.898 207.589 411.391C210.468 413.599 203.545 415.077 200.386 414.79C197.227 414.503 194.8 417.033 192.677 414.79C191.557 413.607 190.675 408.638 186.384 413.106C183.517 416.092 183.048 418.128 179.495 418.205C176.856 418.263 174.415 420.922 174.952 423.408C175.611 426.465 178.99 425.891 181.104 426.465C185.263 425.125 189.897 422.358 200.523 420.233C213.714 417.594 216.923 412.542 213.384 407.371C212.104 405.499 210.777 403.33 209.427 401.201H209.427C209.427 401.201 204.926 399.81 203.607 404.574Z" fill="#1F7C6A"/>
</g>
</g>
</g>
</g>
<defs>
<clipPath id="clip0_5039_33639">
<rect width="584" height="584" fill="white" transform="translate(0 0.832031)"/>
</clipPath>
</defs>
</svg>
