<svg xmlns="http://www.w3.org/2000/svg" width="130" height="36" viewBox="0 0 130 36" fill="none">
  <path d="M7.40815 14.0169C7.40815 15.3654 7.0354 16.3962 6.28991 17.1094C5.54436 17.8226 4.47062 18.1791 3.06867 18.1791H0.793274V10.0112H3.30789C4.60224 10.0112 5.60922 10.3613 6.32881 11.0615C7.04832 11.7618 7.40809 12.7469 7.40815 14.0169ZM6.00621 14.0617C6.00621 12.1063 5.09565 11.1286 3.27454 11.1286H2.1229V17.0562H3.06868C5.02703 17.0562 6.00621 16.058 6.00621 14.0617Z" fill="#223161"/>
  <path d="M13.6312 18.1791L12.819 15.9109H9.7091L8.9135 18.1791H7.51154L10.5547 9.97754H12.0012L15.0444 18.1791H13.6312ZM12.4685 14.7599L11.7064 12.5364C11.6507 12.3876 11.5738 12.1529 11.4755 11.8324C11.3772 11.5121 11.3095 11.2775 11.2724 11.1285C11.1573 11.6382 11.0105 12.1401 10.8329 12.6314L10.0985 14.7599L12.4685 14.7599Z" fill="#223161"/>
  <path d="M18.358 18.1792H17.0283V11.1566H14.636V10.0112H20.7502V11.1566H18.358V18.1792Z" fill="#223161"/>
  <path d="M26.4727 18.1791L25.6605 15.9109H22.5506L21.755 18.1791H20.353L23.3962 9.97754H24.8426L27.8858 18.1791H26.4727ZM25.31 14.7599L24.5479 12.5364C24.4922 12.3876 24.4152 12.1529 24.3169 11.8324C24.2186 11.5121 24.151 11.2775 24.1139 11.1285C23.9987 11.6382 23.8519 12.1401 23.6743 12.6314L22.94 14.7599L25.31 14.7599Z" fill="#223161"/>
  <path d="M6.1786 22.3557C6.1786 23.2087 5.90044 23.8624 5.34414 24.3167C4.7878 24.7712 3.99593 24.9984 2.96852 24.9983H2.1229V28.0545H0.793274V19.8862H3.13548C4.15165 19.8862 4.91291 20.0948 5.41925 20.5121C5.92551 20.9293 6.17863 21.5439 6.1786 22.3557ZM2.1229 23.8754H2.82946C3.51184 23.8754 4.01253 23.7562 4.33155 23.5178C4.65052 23.2795 4.81002 22.9071 4.81005 22.4005C4.82482 22.2041 4.79379 22.0068 4.71942 21.8245C4.64506 21.6422 4.5294 21.4797 4.38163 21.3501C4.09599 21.1192 3.65092 21.0038 3.04642 21.0037H2.1229V23.8754Z" fill="#223161"/>
  <path d="M14.4547 23.9592C14.4547 25.2889 14.1237 26.3225 13.4616 27.06C12.7996 27.7975 11.8622 28.1662 10.6493 28.1661C9.42162 28.1661 8.47864 27.8002 7.82038 27.0683C7.16196 26.3364 6.83278 25.2963 6.83282 23.948C6.83282 22.5997 7.16385 21.5643 7.82589 20.8417C8.48794 20.1192 9.4328 19.7579 10.6605 19.7578C11.8696 19.7578 12.8042 20.1247 13.4644 20.8585C14.1246 21.5923 14.4546 22.6258 14.4547 23.9592ZM8.24593 23.9592C8.24593 24.9649 8.44806 25.7275 8.85234 26.247C9.25659 26.7666 9.85557 27.0264 10.6493 27.0264C11.4393 27.0264 12.0356 26.7694 12.438 26.2554C12.8404 25.7415 13.0416 24.9761 13.0416 23.9592C13.0416 22.9573 12.8422 22.1975 12.4435 21.6798C12.0448 21.1621 11.4504 20.9032 10.6605 20.9032C9.86297 20.9032 9.26119 21.1621 8.85511 21.6798C8.44902 22.1974 8.24596 22.9572 8.24593 23.9592Z" fill="#223161"/>
  <path d="M16.9615 24.7916V28.0545H15.6319V19.8862H17.9295C18.9791 19.8862 19.7562 20.0836 20.2607 20.4784C20.765 20.8733 21.0172 21.4692 21.0172 22.2664C21.0172 23.2831 20.4906 24.0076 19.4372 24.4396L21.7349 28.0545H20.2217L18.2745 24.7916L16.9615 24.7916ZM16.9615 23.6854H17.885C18.5044 23.6854 18.9532 23.57 19.2314 23.339C19.3747 23.2112 19.4869 23.052 19.5592 22.8738C19.6315 22.6956 19.6622 22.503 19.6487 22.311C19.6487 21.8493 19.4985 21.5178 19.198 21.3167C18.8976 21.1155 18.4451 21.0149 17.8406 21.0149H16.9615V23.6854Z" fill="#223161"/>
  <path d="M25.1542 28.0545H23.8245V21.0316H21.4323V19.8862H27.5464V21.0316H25.1542V28.0545Z" fill="#223161"/>
  <path d="M33.2689 28.0546L32.4567 25.7862H29.3468L28.5512 28.0546H27.1492L30.1924 19.853H31.6389L34.682 28.0546H33.2689ZM32.1062 24.6354L31.3441 22.4117C31.2884 22.2627 31.2114 22.0281 31.1132 21.7079C31.0149 21.3875 30.9472 21.1528 30.9101 21.0039C30.7949 21.5135 30.6482 22.0155 30.4706 22.5067L29.7363 24.6354H32.1062Z" fill="#223161"/>
  <path d="M35.1862 28.0545V19.8862H36.5158V26.9091H39.9596V28.0545L35.1862 28.0545Z" fill="#223161"/>
  <path d="M33.3265 13.2833H32.3617V16.6134H31.5184V13.2833H30.868V12.8885L31.5184 12.6301V12.3718C31.5184 11.903 31.628 11.5555 31.8471 11.3293C31.9829 11.2074 32.1419 11.1145 32.3145 11.0562C32.4871 10.998 32.6697 10.9755 32.8512 10.9902C33.148 10.9905 33.4426 11.0402 33.7231 11.1373L33.5016 11.7761C33.3102 11.7118 33.1101 11.6779 32.9084 11.6757C32.8298 11.6689 32.7508 11.6815 32.6783 11.7125C32.6057 11.7434 32.5418 11.7918 32.4921 11.8533C32.3941 12.0128 32.3485 12.1992 32.3617 12.3862V12.6445H33.3265V13.2833Z" fill="#0089BF"/>
  <path d="M37.1377 14.6218C37.1377 15.27 36.9722 15.776 36.6411 16.1397C36.4633 16.3253 36.2477 16.4701 36.009 16.5643C35.7703 16.6585 35.5142 16.6997 35.2582 16.6852C34.9151 16.692 34.5767 16.6052 34.279 16.4339C33.994 16.2648 33.7662 16.0135 33.6251 15.7127C33.4667 15.3714 33.3884 14.9982 33.3964 14.6218C33.3964 13.9784 33.5608 13.476 33.8896 13.1146C34.0688 12.9292 34.2858 12.7847 34.5257 12.6912C34.7656 12.5977 35.0227 12.5573 35.2796 12.5728C35.5325 12.5605 35.785 12.6038 36.0195 12.6995C36.254 12.7953 36.4649 12.9412 36.6375 13.1272C36.9874 13.5434 37.1663 14.0778 37.1377 14.6218ZM34.2612 14.6218C34.2612 15.5381 34.5983 15.9962 35.2724 15.9961C35.9394 15.9961 36.273 15.538 36.273 14.6218C36.273 13.7151 35.9371 13.2618 35.2653 13.2617C35.1182 13.2493 34.9704 13.2751 34.8362 13.3367C34.7019 13.3983 34.5857 13.4936 34.4988 13.6134C34.3223 13.9187 34.2397 14.2695 34.2612 14.6218Z" fill="#0089BF"/>
  <path d="M39.7414 12.5729C39.8816 12.5702 40.0217 12.5822 40.1595 12.6086L40.0773 13.3945C39.9556 13.3655 39.8308 13.351 39.7057 13.3514C39.5541 13.3455 39.403 13.3719 39.2623 13.4288C39.1215 13.4857 38.9944 13.5718 38.8892 13.6816C38.7835 13.7969 38.7015 13.9321 38.6479 14.0792C38.5942 14.2264 38.57 14.3828 38.5765 14.5393V16.6135H37.7368V12.6446H38.3942L38.5051 13.3443H38.5479C38.6702 13.1171 38.8463 12.9237 39.0607 12.781C39.2619 12.6452 39.4989 12.5727 39.7414 12.5729Z" fill="#0089BF"/>
  <path d="M49.5489 11.6337C47.5481 11.6337 45.9686 12.3027 44.8106 13.6407C43.6525 14.9789 43.0735 16.811 43.0735 19.1369C43.0735 21.5298 43.6318 23.3785 44.7484 24.683C45.8648 25.9879 47.4567 26.6403 49.524 26.6402C50.997 26.6091 52.4589 26.3777 53.87 25.9523V27.8157C52.608 28.2909 51.0514 28.5285 49.2002 28.5285C46.5186 28.5285 44.4494 27.7115 42.9925 26.0774C41.5355 24.4435 40.807 22.1217 40.8071 19.1119C40.8071 17.228 41.1578 15.5773 41.8593 14.1598C42.5209 12.7856 43.5798 11.6437 44.8977 10.8833C46.2219 10.1164 47.7805 9.7329 49.5738 9.73291C51.4831 9.73291 53.1518 10.083 54.5798 10.7833L53.6832 12.6091C52.3943 11.9797 50.982 11.6465 49.5489 11.6337Z" fill="#0089BF"/>
  <path d="M56.5673 28.2784V9.99561H58.6842V28.2784H56.5673Z" fill="#0089BF"/>
  <path d="M68.0063 28.2784H65.8894V11.8839H60.1237V9.99561H73.772V11.8839H68.0063V28.2784Z" fill="#0089BF"/>
  <path d="M75.2366 28.2784V9.99561H77.3534V28.2784H75.2366Z" fill="#0089BF"/>
  <path d="M91.2207 28.2784H81.0718V9.99561H91.2207V11.8839H83.1887V17.7739H90.7351V19.6497H83.1887V26.3776H91.2207V28.2784Z" fill="#0089BF"/>
  <path d="M104.254 23.4138C104.254 25.023 103.673 26.2777 102.51 27.1778C101.348 28.0784 99.7708 28.5286 97.7785 28.5285C95.6198 28.5285 93.9594 28.2492 92.7973 27.6906V25.6398C93.5846 25.9691 94.4021 26.2204 95.2381 26.3901C96.0981 26.5714 96.9744 26.6636 97.8531 26.6652C99.2644 26.6652 100.327 26.3963 101.041 25.8586C101.389 25.6013 101.669 25.262 101.856 24.8705C102.042 24.4791 102.13 24.0475 102.112 23.6138C102.134 23.0693 102.003 22.5294 101.732 22.057C101.405 21.5862 100.969 21.2021 100.462 20.9377C99.5927 20.4756 98.6868 20.0866 97.7536 19.7748C96.0599 19.1662 94.8499 18.4451 94.1236 17.6114C93.3971 16.7778 93.0339 15.6897 93.034 14.3473C93.034 12.9386 93.5611 11.8173 94.6154 10.9835C95.6696 10.1499 97.0642 9.73302 98.7994 9.73293C100.515 9.71391 102.216 10.0546 103.793 10.7333L103.133 12.5842C101.75 11.9762 100.259 11.653 98.7496 11.6338C97.6288 11.6338 96.753 11.8755 96.1223 12.359C95.8136 12.5923 95.5662 12.8975 95.4012 13.2482C95.2363 13.599 95.1589 13.9848 95.1757 14.3723C95.1539 14.9131 95.2742 15.4501 95.5245 15.9293C95.8181 16.3932 96.2226 16.7758 96.7011 17.0424C97.5087 17.4952 98.3571 17.8699 99.2352 18.1616C101.145 18.8452 102.458 19.5788 103.177 20.3625C103.895 21.1462 104.254 22.1633 104.254 23.4138Z" fill="#0089BF"/>
  <path d="M104.515 20.3717C104.08 20.371 103.659 20.2183 103.324 19.9399C102.989 19.6616 102.76 19.2748 102.678 18.8459L101.145 10.8106C101.053 10.3212 101.157 9.81486 101.436 9.40263C101.714 8.99041 102.144 8.7059 102.631 8.61149L125.425 4.22691C125.913 4.13397 126.417 4.2388 126.827 4.51843C127.238 4.79805 127.521 5.22968 127.615 5.71873L129.148 13.7541C129.241 14.2435 129.136 14.7498 128.858 15.1621C128.579 15.5743 128.149 15.8588 127.662 15.9531L104.868 20.3379C104.752 20.3604 104.633 20.3717 104.515 20.3717ZM125.776 5.97361C125.771 5.9736 125.765 5.97415 125.759 5.97525L102.965 10.3599C102.939 10.3655 102.917 10.3806 102.903 10.4021C102.888 10.4236 102.882 10.4499 102.886 10.4755L104.419 18.511C104.425 18.5364 104.44 18.5586 104.461 18.5733C104.483 18.5879 104.509 18.5937 104.534 18.5896L127.329 14.2048C127.354 14.1993 127.376 14.1842 127.391 14.1626C127.405 14.1411 127.411 14.1148 127.407 14.0891L125.874 6.05376C125.872 6.04109 125.867 6.02905 125.859 6.01837C125.852 6.00768 125.843 5.99857 125.832 5.99156C125.816 5.98011 125.796 5.97386 125.776 5.97361Z" fill="#BB181A"/>
  <path d="M104.054 10.8621C104.671 10.6506 105.302 10.4865 105.943 10.3711C106.847 10.2055 107.416 10.194 107.951 10.3954C108.213 10.4792 108.446 10.635 108.624 10.8452C108.801 11.0554 108.917 11.3114 108.957 11.5842C109.058 12.175 108.813 12.788 108.125 13.2138L108.128 13.2337C108.515 13.2478 108.884 13.3965 109.174 13.6544C109.463 13.9123 109.654 14.2633 109.713 14.6471C109.764 14.924 109.751 15.2088 109.676 15.48C109.601 15.7513 109.466 16.002 109.281 16.2135C108.872 16.6911 108.114 17.0574 106.812 17.2962C106.278 17.3997 105.737 17.4645 105.193 17.4902L104.054 10.8621ZM105.965 13.1761L106.45 13.0872C107.237 12.9428 107.588 12.5379 107.502 12.037C107.414 11.5266 106.989 11.3256 106.319 11.4485C106.107 11.4827 105.898 11.5349 105.694 11.6044L105.965 13.1761ZM106.479 16.1696C106.672 16.1535 106.865 16.1251 107.055 16.0846C107.725 15.9616 108.271 15.5828 108.149 14.8719C108.034 14.2011 107.395 14.0394 106.657 14.1748L106.152 14.2674L106.479 16.1696Z" fill="#BB181A"/>
  <path d="M114.468 12.8765L112.059 13.3182L112.334 14.9201L115.025 14.4267L115.24 15.6782L111.073 16.4422L109.914 9.69453L113.945 8.95532L114.16 10.2067L111.605 10.675L111.846 12.0769L114.255 11.635L114.468 12.8765Z" fill="#BB181A"/>
  <path d="M116.631 9.78419L114.864 10.1084L114.644 8.82694L119.674 7.90405L119.894 9.18556L118.107 9.51329L119.046 14.9799L117.57 15.2506L116.631 9.78419Z" fill="#BB181A"/>
  <path d="M122.148 12.6246L121.979 14.442L120.454 14.7218L121.286 7.60868L123.229 7.25244L126.427 13.6262L124.825 13.9202L124.022 12.2807L122.148 12.6246ZM123.612 11.1785L122.959 9.82165C122.773 9.44263 122.571 8.96319 122.405 8.58064L122.386 8.5843C122.357 9.00255 122.348 9.53106 122.308 9.94103L122.165 11.4439L123.612 11.1785Z" fill="#BB181A"/>
</svg>
