<svg width="32" height="32" viewBox="0 0 32 32" fill="none" xmlns="http://www.w3.org/2000/svg">
<g id="Frame 1">
<g id="ExcelFile_Icon">
<path id="Trac&#195;&#169; 7" d="M28.1687 30.2217H7.08154V2.10547H22.073V8.41422H28.1687V30.2217Z" fill="#FCFCFC" stroke="#818181" stroke-width="0.725921" stroke-miterlimit="10"/>
<path id="Trac&#195;&#169; 8" d="M28.1382 8.51653L22.0425 2.21213L22.383 1.77734L28.5114 8.06291L28.1382 8.51653Z" fill="#818181"/>
<path id="Rectangle 7" d="M16.4251 9.1665H5.00471C4.20429 9.1665 3.55542 9.81537 3.55542 10.6158V22.0362C3.55542 22.8366 4.20429 23.4855 5.00471 23.4855H16.4251C17.2255 23.4855 17.8744 22.8366 17.8744 22.0362V10.6158C17.8744 9.81537 17.2255 9.1665 16.4251 9.1665Z" fill="#107C42"/>
<g id="Groupe 3">
<path id="Trac&#195;&#169; 9" d="M14.4929 21.0394H12.5849L6.93701 11.6133H8.8834L14.4929 21.0394Z" fill="white"/>
<path id="Trac&#195;&#169; 10" d="M6.93701 21.0394H8.845L14.4929 11.6133H12.5465L6.93701 21.0394Z" fill="white"/>
</g>
<path id="Rectangle 8" d="M22.0724 12.8276H18.623V14.3574H22.0724V12.8276Z" fill="#21A365"/>
<path id="Rectangle 9" d="M26.3353 12.8276H22.886V14.3574H26.3353V12.8276Z" fill="#33C481"/>
<path id="Rectangle 10" d="M22.0724 15.1382H18.623V16.6679H22.0724V15.1382Z" fill="#107C42"/>
<path id="Rectangle 11" d="M26.3355 15.1382H22.8862V16.6679H26.3355V15.1382Z" fill="#21A365"/>
<path id="Rectangle 12" d="M22.0724 17.4487H18.623V18.9785H22.0724V17.4487Z" fill="#195D38"/>
<path id="Rectangle 13" d="M26.3353 17.4482H22.886V18.978H26.3353V17.4482Z" fill="#104B2B"/>
</g>
</g>
</svg>
