<svg width="24" height="24" viewBox="0 0 24 24" fill="none" xmlns="http://www.w3.org/2000/svg">
<path d="M20.4853 3.51472C18.2186 1.24801 15.2054 0 12 0C8.7946 0 5.78143 1.24801 3.51472 3.51472C1.24801 5.78143 0 8.7946 0 12C0 15.2054 1.24801 18.2186 3.51472 20.4853C5.78143 22.752 8.7946 24 12 24C15.2054 24 18.2186 22.752 20.4853 20.4853C22.752 18.2186 24 15.2054 24 12C24 8.7946 22.752 5.78143 20.4853 3.51472ZM1.19824 12.4547C1.3007 9.8377 2.44625 7.40901 4.42316 5.6136C6.39519 3.82306 8.93706 2.8951 11.5755 2.99463C15.8758 3.15954 19.2392 6.7933 19.0743 11.0935C19.0119 12.7123 18.3298 14.2179 17.154 15.3322C15.9802 16.4446 14.4453 17.0418 12.8235 17.0213H12.7094C12.121 16.9754 11.3755 16.7705 10.8945 16.0777C10.8662 16.0368 10.8388 15.9948 10.8125 15.9519C10.8066 15.9421 10.8008 15.9333 10.7949 15.9236C9.46008 13.692 11.5521 12.4254 11.5521 10.9169C11.5521 9.25419 10.3275 8.6375 9.71865 8.54773C7.29192 8.18962 6.59522 10.589 6.49276 11.5189C6.39519 12.4069 6.51813 13.33 6.88502 14.214C7.12604 14.7946 7.48609 15.3186 7.93202 15.7704L7.93007 15.7723C9.25029 17.0925 10.9745 17.7687 12.7084 17.8C12.7513 17.8 12.7933 17.8009 12.8362 17.8009C12.8636 17.8 12.8919 17.8009 12.9192 17.8009C14.7019 17.8009 16.3929 17.1267 17.6907 15.8972C19.0148 14.6424 19.7837 12.9465 19.854 11.1228C20.0355 6.39323 16.3363 2.39746 11.6068 2.21499C11.4663 2.20914 11.3257 2.20719 11.1852 2.20719C8.49211 2.20719 5.91901 3.20247 3.90015 5.03594C3.5235 5.37746 3.1771 5.7424 2.85705 6.12392C4.79395 3.12051 8.16816 1.12799 12 1.12799C17.2584 1.12799 21.6562 4.88079 22.6573 9.84843C22.7217 10.3968 22.7559 10.9589 22.7559 11.5365C22.6534 14.1535 21.5079 16.5822 19.531 18.3776C17.559 20.1682 15.0171 21.0961 12.3786 20.9966C8.07839 20.8307 4.71491 17.1979 4.87982 12.8977C4.94227 11.2789 5.62433 9.7733 6.80013 8.65897C7.97398 7.54659 9.50886 6.94942 11.1306 6.96991H11.2457C11.8341 7.01577 12.5796 7.22069 13.0607 7.91348C13.089 7.95446 13.1163 7.99642 13.1426 8.03936C13.1485 8.04911 13.1543 8.0579 13.1602 8.06668C14.495 10.2983 12.403 11.5648 12.403 13.0733C12.403 14.7361 13.6276 15.3527 14.2365 15.4425C16.6632 15.8006 17.3599 13.4012 17.4624 12.4703C17.559 11.5824 17.437 10.6593 17.0701 9.77525C16.8291 9.19467 16.469 8.67068 16.0231 8.2189L16.025 8.21695C14.7048 6.89673 12.9806 6.22052 11.2467 6.1893C11.2038 6.1893 11.1618 6.18832 11.1189 6.18832C11.0916 6.1893 11.0633 6.18832 11.0359 6.18832C9.25321 6.18832 7.5622 6.86258 6.26443 8.09205C4.94032 9.34689 4.17141 11.0428 4.10213 12.8665C3.92064 17.596 7.61978 21.5918 12.3493 21.7743C12.4898 21.7801 12.6303 21.7821 12.7709 21.7821C15.464 21.7821 18.0371 20.7868 20.0559 18.9533C20.5175 18.5337 20.9361 18.0829 21.3118 17.6038C19.4061 20.7565 15.946 22.8681 12.002 22.8681C6.53277 22.8681 1.99447 18.807 1.24118 13.5427C1.21483 13.1846 1.20019 12.8216 1.20019 12.4518L1.19824 12.4547Z" fill="#2351DC"/>
</svg>
