<svg width="143" height="32" viewBox="0 0 143 32" fill="none" xmlns="http://www.w3.org/2000/svg">
<path d="M79.8064 12.0705H81.6228C81.7939 12.0705 81.9579 12.1392 82.0788 12.2616C82.1997 12.3839 82.2676 12.5498 82.2676 12.7229V13.3377H82.4561C83.0396 12.3037 84.0195 11.7981 85.3944 11.7981C86.5613 11.7981 87.4993 12.1765 88.2294 12.9577C88.9596 13.739 89.3141 14.7078 89.3141 15.869V22.4517C89.3141 22.6248 89.2463 22.7906 89.1254 22.9129C89.0045 23.0354 88.8404 23.1041 88.6694 23.1041H86.8546V16.4578C86.8644 16.152 86.8141 15.8472 86.7068 15.5611C86.5995 15.275 86.4372 15.0132 86.2292 14.791C86.0289 14.5767 85.7862 14.4078 85.5167 14.2953C85.2472 14.1829 84.9572 14.1295 84.6658 14.1386C84.3488 14.1296 84.0334 14.1868 83.7392 14.3067C83.4449 14.4265 83.1783 14.6063 82.9558 14.835C82.7298 15.0642 82.5523 15.3376 82.434 15.6384C82.3157 15.9393 82.259 16.2614 82.2676 16.585V22.4566C82.2676 22.6296 82.1997 22.7955 82.0788 22.9178C81.9579 23.0403 81.7939 23.109 81.6228 23.109H79.8064V12.0705Z" fill="white"/>
<path d="M116.656 12.0707H118.45C118.621 12.0707 118.785 12.1394 118.906 12.2618C119.027 12.3841 119.095 12.5501 119.095 12.7231V13.7017H119.256C119.51 13.1659 119.899 12.7074 120.384 12.3724C120.892 11.9971 121.507 11.7975 122.136 11.8032H122.305C122.476 11.8032 122.64 11.8719 122.761 11.9943C122.882 12.1166 122.95 12.2826 122.95 12.4556V14.2937H121.867C120.971 14.2937 120.282 14.5889 119.802 15.1794C119.319 15.7698 119.095 16.5918 119.095 17.647V23.1109H116.656V12.0707Z" fill="white"/>
<path d="M133.41 8.33594H135.225C135.396 8.33594 135.56 8.40467 135.681 8.52701C135.802 8.64936 135.87 8.8153 135.87 8.98833V13.3365H136.057C136.349 12.8718 136.751 12.4875 137.225 12.2177C137.773 11.9114 138.392 11.7588 139.018 11.7757C140.206 11.7757 141.165 12.1557 141.893 12.9353C142.628 13.7191 143.026 14.7663 142.999 15.8466V23.0817H140.539V16.437C140.551 16.131 140.5 15.8258 140.39 15.5404C140.28 15.255 140.113 14.9955 139.9 14.7779C139.687 14.5604 139.432 14.3894 139.151 14.2755C138.87 14.1617 138.569 14.1074 138.267 14.1162C137.954 14.1126 137.643 14.1725 137.353 14.2922C137.063 14.4119 136.8 14.589 136.578 14.8131C136.357 15.0372 136.182 15.3038 136.064 15.5972C135.946 15.8907 135.887 16.205 135.891 16.5219V23.1029H133.41V8.33594Z" fill="white"/>
<path d="M131.621 11.8409V14.2075H129.292C129.121 14.2075 128.957 14.2762 128.836 14.3986C128.716 14.5209 128.648 14.6869 128.648 14.8599V18.6976C128.648 20.022 129.31 20.7233 130.562 20.7233H131.544V23.129L130.169 23.1388C127.648 23.1045 126.14 21.5453 126.14 18.9439V14.2075H124.555V11.8409H124.878C125.785 11.8409 126.167 11.5881 126.167 10.559V8.33594H127.929C128.1 8.33594 128.264 8.40467 128.385 8.52701C128.506 8.64936 128.574 8.8153 128.574 8.98833V11.8409H131.621Z" fill="white"/>
<path d="M72.8246 23.4361C71.1758 23.4361 69.8413 22.888 68.8178 21.8051C67.7943 20.7221 67.2786 19.3407 67.2786 17.633C67.2786 15.9254 67.8217 14.5341 68.8903 13.4316C69.3876 12.9012 69.9879 12.4807 70.6538 12.1966C71.3194 11.9125 72.036 11.771 72.7585 11.781C74.4074 11.781 75.721 12.3095 76.6816 13.3859C77.6422 14.4624 78.1209 15.8324 78.1209 17.5025V17.5482C78.1209 17.7212 78.0529 17.8871 77.932 18.0094C77.8111 18.1319 77.6472 18.2006 77.4762 18.2006H69.8413C69.8622 19.1286 70.133 19.8675 70.6762 20.4171C71.2193 20.9667 71.9478 21.2326 72.8456 21.2326C73.4432 21.236 74.0294 21.0662 74.5347 20.7433C75.035 20.4287 75.406 19.9415 75.5791 19.3716L77.8356 19.9197C77.5286 20.9697 76.8632 21.8755 75.9579 22.4754C75.0295 23.0965 73.9408 23.4268 72.8279 23.4246L72.8246 23.4361ZM75.5646 16.4473C75.5462 16.1046 75.4568 15.7696 75.3021 15.4642C75.1475 15.1587 74.931 14.8896 74.6669 14.6744C74.1123 14.2221 73.4174 13.9829 72.7054 13.9992C71.9852 13.9776 71.2838 14.2342 70.7438 14.7168C70.2249 15.1489 69.8953 15.7707 69.8268 16.4473H75.5646Z" fill="white"/>
<path d="M45.1535 23.3757C44.1508 23.3845 43.1567 23.1867 42.232 22.7941C41.3073 22.4015 40.4713 21.8225 39.775 21.0923C38.3374 19.6375 37.6282 17.8304 37.6282 15.6497C37.6282 13.4691 38.3583 11.6636 39.796 10.2088C41.2337 8.75391 43.0195 8.01508 45.1744 8.01508C47.3294 8.01508 49.1136 8.75228 50.5513 10.23C51.989 11.7076 52.7191 13.5197 52.7191 15.6921C52.7191 17.8646 51.9906 19.6783 50.5513 21.1559C49.112 22.6336 47.3278 23.3708 45.1744 23.3708L45.1535 23.3757ZM45.1744 20.8656C45.8279 20.8829 46.4776 20.7603 47.081 20.5055C47.6843 20.2509 48.2276 19.8701 48.6752 19.3879C49.6132 18.3979 50.0726 17.1519 50.0726 15.6546C50.0726 14.1574 49.6132 12.9129 48.6752 11.9213C48.2286 11.4366 47.6859 11.0526 47.0826 10.7947C46.4795 10.5366 45.8291 10.4104 45.1744 10.424C43.7561 10.424 42.5956 10.9133 41.6511 11.9001C40.7066 12.8868 40.2553 14.1362 40.2553 15.6334C40.2553 17.1307 40.7131 18.3767 41.6511 19.3667C42.1008 19.8538 42.6472 20.239 43.2545 20.4972C43.8617 20.7555 44.5159 20.8811 45.1744 20.8656Z" fill="white"/>
<path d="M101.697 10.7303V8.88732C101.697 8.71429 101.629 8.54835 101.508 8.42601C101.387 8.30365 101.223 8.23492 101.053 8.23492H92.7117V23.1014H101.697V21.2584C101.697 21.0853 101.629 20.9194 101.508 20.7971C101.387 20.6746 101.223 20.606 101.053 20.606H95.284V16.6916H100.081V14.86C100.081 14.687 100.013 14.521 99.8917 14.3987C99.7709 14.2763 99.6068 14.2076 99.4359 14.2076H95.2824V10.7303H101.697Z" fill="white"/>
<path d="M114.403 21.0136C114.069 21.0136 113.903 20.8505 113.903 20.5243V12.632C113.903 12.483 113.844 12.3403 113.74 12.2351C113.635 12.13 113.494 12.0709 113.347 12.0709H111.44V13.4214H111.252C110.481 12.3449 109.376 11.7904 107.938 11.7904C107.251 11.7751 106.569 11.9147 105.942 12.1991C105.315 12.4834 104.758 12.9054 104.312 13.4344C103.345 14.5321 102.872 15.9233 102.872 17.5902C102.872 19.257 103.356 20.6483 104.333 21.7459C104.791 22.2765 105.359 22.6989 105.997 22.9834C106.634 23.2676 107.325 23.4071 108.022 23.3916C108.211 23.3919 108.401 23.3821 108.589 23.3622C108.984 23.325 109.364 23.1936 109.698 22.9786C110.032 22.7637 110.311 22.4714 110.512 22.1259C110.684 21.802 110.79 21.4462 110.823 21.0798C110.856 20.7137 110.815 20.3443 110.704 19.9942C110.693 20.0091 110.681 20.0233 110.668 20.0367C110.4 20.3557 110.063 20.6093 109.684 20.7788C109.305 20.948 108.894 21.0289 108.48 21.0152H108.459C108.047 21.026 107.637 20.9489 107.256 20.789C106.876 20.629 106.532 20.3901 106.249 20.0872C105.665 19.4761 105.374 18.6536 105.374 17.6195C105.374 16.6072 105.665 15.7847 106.249 15.1518C106.528 14.8423 106.87 14.5973 107.251 14.4335C107.633 14.2697 108.044 14.1909 108.459 14.2026C108.867 14.1941 109.273 14.2722 109.65 14.4321C110.027 14.5919 110.367 14.8299 110.647 15.1306C111.231 15.7423 111.484 16.5871 111.484 17.6424C111.484 18.8428 111.484 18.2018 111.484 18.236V21.71C111.514 22.092 111.677 22.4508 111.943 22.7229C112.087 22.8609 112.258 22.9675 112.444 23.0362C112.63 23.105 112.828 23.1344 113.026 23.1225H114.882V21.0136H114.403Z" fill="white"/>
<path d="M64.2709 13.4609C63.8071 12.9321 63.2355 12.5114 62.5955 12.2275C61.9556 11.9437 61.2624 11.8036 60.5639 11.8169C59.9372 11.7991 59.3156 11.9358 58.7526 12.215C58.1896 12.4944 57.7022 12.9079 57.3323 13.4202H57.1453V12.7384C57.1453 12.5654 57.0775 12.3994 56.9564 12.2771C56.8356 12.1548 56.6716 12.086 56.5006 12.086H54.7067L54.6858 26.6491H56.5022C56.6733 26.6491 56.8372 26.5804 56.9581 26.458C57.0791 26.3356 57.1469 26.1698 57.1469 25.9967V21.7088V17.6069C57.1205 16.7123 57.4168 15.8387 57.9802 15.149C58.2449 14.8228 58.5795 14.5619 58.9589 14.3864C59.3381 14.2109 59.752 14.1253 60.169 14.1362C60.5797 14.1267 60.9876 14.2065 61.3652 14.3703C61.7429 14.534 62.0814 14.7779 62.3578 15.0854C62.9412 15.7182 63.233 16.5615 63.233 17.5955C63.233 18.6295 62.9364 19.4255 62.3529 20.0779C62.0841 20.3908 61.7509 20.6405 61.3767 20.8095C61.0026 20.9787 60.5964 21.0628 60.1867 21.0565C59.7819 21.0672 59.3792 20.9922 59.0047 20.8359C58.6303 20.6799 58.2923 20.446 58.0125 20.1496C57.9754 20.1105 57.9399 20.0713 57.9061 20.0306C57.6988 20.7089 57.7601 21.4423 58.0769 22.0758C58.2586 22.4061 58.5131 22.6894 58.8204 22.9037C59.128 23.1182 59.4803 23.258 59.8499 23.3121C60.1298 23.356 60.4127 23.3778 60.696 23.3773C61.3833 23.392 62.0651 23.2521 62.6922 22.9675C63.3195 22.6829 63.8762 22.2608 64.3225 21.7317C65.2815 20.634 65.7602 19.264 65.7602 17.5971C65.7602 15.9303 65.2718 14.5586 64.2709 13.4609Z" fill="white"/>
<path d="M27.2534 4.68678C24.6668 2.06919 21.2634 0.440122 17.6231 0.0771363C13.9827 -0.285849 10.3305 0.639714 7.28888 2.69611C4.24724 4.75251 2.00432 7.81252 0.94228 11.3547C-0.119754 14.897 0.0648067 18.7022 1.46451 22.1222C2.86421 25.5422 5.39246 28.3653 8.61847 30.1103C11.8445 31.8554 15.5686 32.4147 19.1564 31.6927C22.7442 30.9708 25.9736 29.0123 28.2944 26.1511C30.6152 23.2897 31.8838 19.7026 31.884 16.0009C31.8893 13.899 31.4828 11.8168 30.688 9.87476C29.8931 7.93274 28.7257 6.16943 27.2534 4.68678ZM1.84076 16.6077C1.90947 14.8769 2.32109 13.1777 3.0512 11.611C3.78132 10.0442 4.81502 8.64189 6.09097 7.48717C8.65567 5.1134 12.0419 3.85868 15.5149 3.99524C18.2388 4.10432 20.8088 5.3024 22.6607 7.3266C24.5126 9.3508 25.4954 12.0358 25.3934 14.7924C25.3123 16.9381 24.4048 18.9666 22.8646 20.4436C21.3245 21.9208 19.2742 22.7293 17.1525 22.6961H17.0026C16.2273 22.6358 15.2442 22.3699 14.6107 21.4387C14.5721 21.3848 14.5366 21.3277 14.5027 21.2756L14.4786 21.238C12.7201 18.2631 15.4763 16.575 15.4763 14.564C15.4763 12.3475 13.8645 11.5239 13.0586 11.4048C9.86249 10.9269 8.94379 14.1269 8.81001 15.3665C8.67952 16.5874 8.85698 17.8219 9.32577 18.9547C9.65012 19.7297 10.1185 20.4346 10.7054 21.0309C12.3769 22.725 14.634 23.6948 16.9994 23.7351H17.1605H17.2685C19.6333 23.7335 21.9057 22.8054 23.6092 21.1456C25.3127 19.4855 26.3149 17.2227 26.4056 14.8315C26.5181 11.8014 25.4392 8.84978 23.405 6.62325C21.3709 4.39673 18.5476 3.07693 15.5536 2.95304C15.3683 2.95304 15.1845 2.94326 14.9992 2.94326C11.4466 2.9426 8.02257 4.28784 5.40115 6.7141C4.9104 7.16479 4.45103 7.64926 4.0263 8.16405C5.5675 5.73688 7.78947 3.83042 10.4077 2.68872C13.026 1.54704 15.9215 1.22209 18.7233 1.75547C21.5252 2.28887 24.1059 3.65632 26.1353 5.68278C28.1645 7.70921 29.55 10.3024 30.1143 13.1304C30.2 13.8775 30.243 14.629 30.2432 15.3812C30.1745 17.1118 29.7631 18.8108 29.0333 20.3775C28.3034 21.9443 27.2701 23.3467 25.9946 24.5016C23.43 26.8754 20.0437 28.1301 16.5706 27.9936C13.8466 27.8845 11.2766 26.6865 9.42436 24.6623C7.57213 22.6382 6.58897 19.9531 6.69056 17.1965C6.77237 15.0522 7.67941 13.0252 9.21796 11.5484C10.7565 10.0717 12.8047 9.26214 14.925 9.29269H15.0765C15.8518 9.35304 16.835 9.62703 17.4684 10.5502C17.5055 10.604 17.5409 10.6611 17.5764 10.7133C17.5764 10.7263 17.5925 10.7377 17.5989 10.7508C19.359 13.7257 16.6029 15.4138 16.6029 17.4248C16.6029 19.6413 18.2146 20.465 19.0205 20.584C22.2182 21.0619 23.1369 17.8619 23.2707 16.6223C23.3998 15.4013 23.2219 14.167 22.7534 13.0342C22.4302 12.2589 21.9623 11.5539 21.3753 10.9579C19.7034 9.26348 17.4457 8.29369 15.0798 8.25375H14.8025C12.4378 8.25496 10.1653 9.18294 8.46208 10.843C6.7588 12.503 5.75709 14.7661 5.66708 17.1573C5.55459 20.1893 6.63539 23.1429 8.6723 25.3695C10.7092 27.5961 13.5359 28.914 16.532 29.0342C16.7189 29.0342 16.9027 29.0439 17.088 29.0439C19.2574 29.0348 21.3967 28.529 23.3457 27.5643C25.2945 26.5997 27.0023 25.2015 28.3413 23.4741C26.8169 26.0364 24.5466 28.0588 21.8414 29.2636C19.1362 30.4685 16.129 30.7969 13.2321 30.2037C10.3353 29.6105 7.69077 28.1249 5.66137 25.9506C3.63197 23.7762 2.31711 21.0197 1.89717 18.0592C1.8601 17.5846 1.84076 17.1002 1.84076 16.6077Z" fill="white"/>
</svg>
