<svg width="32" height="32" viewBox="0 0 32 32" fill="none" xmlns="http://www.w3.org/2000/svg">
<g id="Icons">
<mask id="mask0_610_11199" style="mask-type:alpha" maskUnits="userSpaceOnUse" x="0" y="0" width="32" height="32">
<rect id="Bounding box" width="32" height="32" fill="#D9D9D9"/>
</mask>
<g mask="url(#mask0_610_11199)">
<path id="captive_portal" d="M27.9334 29.8333L24.0001 25.9V28.8666H21.3334V21.3333H28.8667V24H25.8667L29.8001 27.9333L27.9334 29.8333ZM16.0001 29.3333C14.1556 29.3333 12.4223 28.9833 10.8001 28.2833C9.17786 27.5833 7.76675 26.6333 6.56675 25.4333C5.36675 24.2333 4.41675 22.8222 3.71675 21.2C3.01675 19.5777 2.66675 17.8444 2.66675 16C2.66675 14.1555 3.01675 12.4222 3.71675 10.8C4.41675 9.17774 5.36675 7.76663 6.56675 6.56663C7.76675 5.36663 9.17786 4.41663 10.8001 3.71663C12.4223 3.01663 14.1556 2.66663 16.0001 2.66663C17.8445 2.66663 19.5779 3.01663 21.2001 3.71663C22.8223 4.41663 24.2334 5.36663 25.4334 6.56663C26.6334 7.76663 27.5834 9.17774 28.2834 10.8C28.9834 12.4222 29.3334 14.1555 29.3334 16C29.3334 16.4444 29.3112 16.8888 29.2668 17.3333C29.2223 17.7777 29.1556 18.2222 29.0667 18.6666H26.3334C26.4445 18.2222 26.5279 17.7777 26.5834 17.3333C26.639 16.8888 26.6667 16.4444 26.6667 16C26.6667 15.5555 26.639 15.1111 26.5834 14.6666C26.5279 14.2222 26.4445 13.7777 26.3334 13.3333H21.8001C21.8667 13.7777 21.9167 14.2222 21.9501 14.6666C21.9834 15.1111 22.0001 15.5555 22.0001 16C22.0001 16.4444 21.9834 16.8888 21.9501 17.3333C21.9167 17.7777 21.8667 18.2222 21.8001 18.6666H19.1334C19.2001 18.2222 19.2501 17.7777 19.2834 17.3333C19.3167 16.8888 19.3334 16.4444 19.3334 16C19.3334 15.5555 19.3167 15.1111 19.2834 14.6666C19.2501 14.2222 19.2001 13.7777 19.1334 13.3333H12.8667C12.8001 13.7777 12.7501 14.2222 12.7167 14.6666C12.6834 15.1111 12.6667 15.5555 12.6667 16C12.6667 16.4444 12.6834 16.8888 12.7167 17.3333C12.7501 17.7777 12.8001 18.2222 12.8667 18.6666H17.3334V21.3333H13.4667C13.7334 22.2888 14.0779 23.2055 14.5001 24.0833C14.9223 24.9611 15.4223 25.8 16.0001 26.6C16.4445 26.6 16.889 26.5722 17.3334 26.5166C17.7779 26.4611 18.2223 26.4111 18.6667 26.3666V29.1C18.2223 29.1444 17.7779 29.1944 17.3334 29.25C16.889 29.3055 16.4445 29.3333 16.0001 29.3333ZM5.66675 18.6666H10.2001C10.1334 18.2222 10.0834 17.7777 10.0501 17.3333C10.0167 16.8888 10.0001 16.4444 10.0001 16C10.0001 15.5555 10.0167 15.1111 10.0501 14.6666C10.0834 14.2222 10.1334 13.7777 10.2001 13.3333H5.66675C5.55564 13.7777 5.4723 14.2222 5.41675 14.6666C5.36119 15.1111 5.33341 15.5555 5.33341 16C5.33341 16.4444 5.36119 16.8888 5.41675 17.3333C5.4723 17.7777 5.55564 18.2222 5.66675 18.6666ZM6.80008 10.6666H10.7334C10.9334 9.8444 11.1834 9.03885 11.4834 8.24996C11.7834 7.46107 12.1334 6.68885 12.5334 5.93329C11.3112 6.33329 10.2112 6.93885 9.23342 7.74996C8.25564 8.56107 7.44453 9.53329 6.80008 10.6666ZM12.5334 26.0666C12.1334 25.3111 11.7834 24.5388 11.4834 23.75C11.1834 22.9611 10.9334 22.1555 10.7334 21.3333H6.80008C7.44453 22.4666 8.25564 23.4388 9.23342 24.25C10.2112 25.0611 11.3112 25.6666 12.5334 26.0666ZM13.4667 10.6666H18.5334C18.2667 9.71107 17.9223 8.7944 17.5001 7.91663C17.0779 7.03885 16.5779 6.19996 16.0001 5.39996C15.4223 6.19996 14.9223 7.03885 14.5001 7.91663C14.0779 8.7944 13.7334 9.71107 13.4667 10.6666ZM21.2667 10.6666H25.2001C24.5556 9.53329 23.7445 8.56107 22.7667 7.74996C21.789 6.93885 20.689 6.33329 19.4667 5.93329C19.8667 6.68885 20.2167 7.46107 20.5167 8.24996C20.8167 9.03885 21.0667 9.8444 21.2667 10.6666Z" fill="#7A7B9A"/>
</g>
</g>
</svg>
