<svg width="21" height="21" viewBox="0 0 21 21" fill="none" xmlns="http://www.w3.org/2000/svg">
<path d="M18.95 20.375L16 17.425V19.65H14V14H19.65V16H17.4L20.35 18.95L18.95 20.375ZM10 20C8.61667 20 7.31667 19.7375 6.1 19.2125C4.88333 18.6875 3.825 17.975 2.925 17.075C2.025 16.175 1.3125 15.1167 0.7875 13.9C0.2625 12.6833 0 11.3833 0 10C0 8.61667 0.2625 7.31667 0.7875 6.1C1.3125 4.88333 2.025 3.825 2.925 2.925C3.825 2.025 4.88333 1.3125 6.1 0.7875C7.31667 0.2625 8.61667 0 10 0C11.3833 0 12.6833 0.2625 13.9 0.7875C15.1167 1.3125 16.175 2.025 17.075 2.925C17.975 3.825 18.6875 4.88333 19.2125 6.1C19.7375 7.31667 20 8.61667 20 10C20 10.3333 19.9833 10.6667 19.95 11C19.9167 11.3333 19.8667 11.6667 19.8 12H17.75C17.8333 11.6667 17.8958 11.3333 17.9375 11C17.9792 10.6667 18 10.3333 18 10C18 9.66667 17.9792 9.33333 17.9375 9C17.8958 8.66667 17.8333 8.33333 17.75 8H14.35C14.4 8.33333 14.4375 8.66667 14.4625 9C14.4875 9.33333 14.5 9.66667 14.5 10C14.5 10.3333 14.4875 10.6667 14.4625 11C14.4375 11.3333 14.4 11.6667 14.35 12H12.35C12.4 11.6667 12.4375 11.3333 12.4625 11C12.4875 10.6667 12.5 10.3333 12.5 10C12.5 9.66667 12.4875 9.33333 12.4625 9C12.4375 8.66667 12.4 8.33333 12.35 8H7.65C7.6 8.33333 7.5625 8.66667 7.5375 9C7.5125 9.33333 7.5 9.66667 7.5 10C7.5 10.3333 7.5125 10.6667 7.5375 11C7.5625 11.3333 7.6 11.6667 7.65 12H11V14H8.1C8.3 14.7167 8.55833 15.4042 8.875 16.0625C9.19167 16.7208 9.56667 17.35 10 17.95C10.3333 17.95 10.6667 17.9292 11 17.8875C11.3333 17.8458 11.6667 17.8083 12 17.775V19.825C11.6667 19.8583 11.3333 19.8958 11 19.9375C10.6667 19.9792 10.3333 20 10 20ZM2.25 12H5.65C5.6 11.6667 5.5625 11.3333 5.5375 11C5.5125 10.6667 5.5 10.3333 5.5 10C5.5 9.66667 5.5125 9.33333 5.5375 9C5.5625 8.66667 5.6 8.33333 5.65 8H2.25C2.16667 8.33333 2.10417 8.66667 2.0625 9C2.02083 9.33333 2 9.66667 2 10C2 10.3333 2.02083 10.6667 2.0625 11C2.10417 11.3333 2.16667 11.6667 2.25 12ZM3.1 6H6.05C6.2 5.38333 6.3875 4.77917 6.6125 4.1875C6.8375 3.59583 7.1 3.01667 7.4 2.45C6.48333 2.75 5.65833 3.20417 4.925 3.8125C4.19167 4.42083 3.58333 5.15 3.1 6ZM7.4 17.55C7.1 16.9833 6.8375 16.4042 6.6125 15.8125C6.3875 15.2208 6.2 14.6167 6.05 14H3.1C3.58333 14.85 4.19167 15.5792 4.925 16.1875C5.65833 16.7958 6.48333 17.25 7.4 17.55ZM8.1 6H11.9C11.7 5.28333 11.4417 4.59583 11.125 3.9375C10.8083 3.27917 10.4333 2.65 10 2.05C9.56667 2.65 9.19167 3.27917 8.875 3.9375C8.55833 4.59583 8.3 5.28333 8.1 6ZM13.95 6H16.9C16.4167 5.15 15.8083 4.42083 15.075 3.8125C14.3417 3.20417 13.5167 2.75 12.6 2.45C12.9 3.01667 13.1625 3.59583 13.3875 4.1875C13.6125 4.77917 13.8 5.38333 13.95 6Z" fill="#2351DC"/>
</svg>
