<svg width="32" height="33" viewBox="0 0 32 33" fill="none" xmlns="http://www.w3.org/2000/svg">
<path fill-rule="evenodd" clip-rule="evenodd" d="M21.9012 18.1591C21.9333 20.2202 20.8063 22.1381 18.9522 23.1776C17.098 24.2172 14.8043 24.2172 12.9501 23.1776C11.096 22.1381 9.96902 20.2202 10.0012 18.1591C10.0012 13.2631 15.1012 7.55176 15.9505 7.55176C16.7998 7.55176 21.9012 13.2631 21.9012 18.1591Z" stroke="#7A7B9A" stroke-width="2" stroke-linecap="round" stroke-linejoin="round"/>
<path d="M1.13333 18.112C1.04504 17.4755 1.0005 16.8341 1 16.192C1 8.23909 7.71573 1.79199 16 1.79199" stroke="#7A7B9A" stroke-width="2" stroke-linecap="round" stroke-linejoin="round"/>
<path d="M30.8693 18.112C30.9576 17.4755 31.0022 16.8341 31.0027 16.192C31.0027 12.3724 29.4219 8.70935 26.6083 6.00875C23.7947 3.30815 19.9787 1.79131 16 1.79199" stroke="#7A7B9A" stroke-width="2" stroke-linecap="round" stroke-linejoin="round"/>
<path d="M29.756 21.9414C29.2693 23.0307 28.6373 24.0547 27.876 24.9878" stroke="#7A7B9A" stroke-width="2" stroke-linecap="round" stroke-linejoin="round"/>
<path d="M24.9842 27.7197C24.0021 28.437 22.9263 29.0274 21.7842 29.4759" stroke="#7A7B9A" stroke-width="2" stroke-linecap="round" stroke-linejoin="round"/>
<path d="M10.2493 29.4759C9.10669 29.0284 8.0307 28.4379 7.04932 27.7197" stroke="#7A7B9A" stroke-width="2" stroke-linecap="round" stroke-linejoin="round"/>
<path d="M4.15344 24.9891C3.39207 24.0555 2.76013 23.0311 2.27344 21.9414" stroke="#7A7B9A" stroke-width="2" stroke-linecap="round" stroke-linejoin="round"/>
<path d="M18 30.4648C16.6725 30.6338 15.3275 30.6338 14 30.4648" stroke="#7A7B9A" stroke-width="2" stroke-linecap="round" stroke-linejoin="round"/>
</svg>
