<svg width="32" height="33" viewBox="0 0 32 33" fill="none" xmlns="http://www.w3.org/2000/svg">
<g clip-path="url(#clip0_5340_2181)">
<rect x="19" y="11.832" width="12" height="20" rx="0.5" stroke="#7A7B9A" stroke-width="2" stroke-linecap="round" stroke-linejoin="round"/>
<rect x="1" y="15.832" width="14" height="16" rx="0.5" stroke="#7A7B9A" stroke-width="2" stroke-linecap="round" stroke-linejoin="round"/>
<path d="M3 15.832V4.83203C3 4.27975 3.44772 3.83203 4 3.83203H12C12.5523 3.83203 13 4.27975 13 4.83203V15.832" stroke="#7A7B9A" stroke-width="2" stroke-linecap="round" stroke-linejoin="round"/>
<path d="M7 3.83203V1.83203" stroke="#7A7B9A" stroke-width="2" stroke-linecap="round" stroke-linejoin="round"/>
<path d="M7 11.832H9" stroke="#7A7B9A" stroke-width="2" stroke-linecap="round" stroke-linejoin="round"/>
<path d="M7 7.83203H9" stroke="#7A7B9A" stroke-width="2" stroke-linecap="round" stroke-linejoin="round"/>
<path d="M5 19.832H11" stroke="#7A7B9A" stroke-width="2" stroke-linecap="round" stroke-linejoin="round"/>
<path d="M5 23.832H11" stroke="#7A7B9A" stroke-width="2" stroke-linecap="round" stroke-linejoin="round"/>
<path d="M5 27.832H11" stroke="#7A7B9A" stroke-width="2" stroke-linecap="round" stroke-linejoin="round"/>
<path d="M23 19.832H27" stroke="#7A7B9A" stroke-width="2" stroke-linecap="round" stroke-linejoin="round"/>
<path d="M23 15.832H27" stroke="#7A7B9A" stroke-width="2" stroke-linecap="round" stroke-linejoin="round"/>
<path d="M23 23.832H27" stroke="#7A7B9A" stroke-width="2" stroke-linecap="round" stroke-linejoin="round"/>
<path d="M23 27.832H27" stroke="#7A7B9A" stroke-width="2" stroke-linecap="round" stroke-linejoin="round"/>
</g>
<defs>
<clipPath id="clip0_5340_2181">
<rect width="32" height="32" fill="white" transform="translate(0 0.832031)"/>
</clipPath>
</defs>
</svg>
