<svg width="32" height="33" viewBox="0 0 32 33" fill="none" xmlns="http://www.w3.org/2000/svg">
<g clip-path="url(#clip0_5340_3717)">
<path fill-rule="evenodd" clip-rule="evenodd" d="M18 9.47168L10.8533 16.3325C10.7105 16.4698 10.6678 16.6761 10.7451 16.8553C10.8225 17.0346 11.0046 17.1515 11.2067 17.1517H14.0067V22.9117L21.1533 16.0509C21.2961 15.9136 21.3388 15.7073 21.2615 15.528C21.1842 15.3488 21.0021 15.2319 20.8 15.2317H18V9.47168Z" stroke="#7A7B9A" stroke-width="2" stroke-linecap="round" stroke-linejoin="round"/>
<path d="M1.132 18.112C1.04411 17.4755 1.00001 16.8341 1 16.192C1 8.23909 7.71573 1.79199 16 1.79199" stroke="#7A7B9A" stroke-width="2" stroke-linecap="round" stroke-linejoin="round"/>
<path d="M30.868 18.112C30.9563 17.4755 31.0009 16.8341 31.0013 16.192C31.0013 12.3727 29.4208 8.70976 26.6075 6.0092C23.7941 3.30864 19.9785 1.79165 16 1.79199" stroke="#7A7B9A" stroke-width="2" stroke-linecap="round" stroke-linejoin="round"/>
<path d="M29.7547 21.9414C29.2677 23.0309 28.6357 24.0554 27.8747 24.9891" stroke="#7A7B9A" stroke-width="2" stroke-linecap="round" stroke-linejoin="round"/>
<path d="M24.9827 27.7197C24.0006 28.437 22.9248 29.0274 21.7827 29.4759" stroke="#7A7B9A" stroke-width="2" stroke-linecap="round" stroke-linejoin="round"/>
<path d="M10.248 29.4759C9.10553 29.0281 8.02958 28.4377 7.048 27.7197" stroke="#7A7B9A" stroke-width="2" stroke-linecap="round" stroke-linejoin="round"/>
<path d="M4.152 24.9891C3.38877 24.0558 2.75502 23.0314 2.26667 21.9414" stroke="#7A7B9A" stroke-width="2" stroke-linecap="round" stroke-linejoin="round"/>
<path d="M18 30.4648C16.6725 30.6338 15.3275 30.6338 14 30.4648" stroke="#7A7B9A" stroke-width="2" stroke-linecap="round" stroke-linejoin="round"/>
</g>
<defs>
<clipPath id="clip0_5340_3717">
<rect width="32" height="32" fill="white" transform="translate(0 0.832031)"/>
</clipPath>
</defs>
</svg>
