<svg xmlns="http://www.w3.org/2000/svg" xmlns:xlink="http://www.w3.org/1999/xlink" xmlns:lucid="lucid" width="2320" height="2894.3"><g transform="translate(0 0)" lucid:page-tab-id="0_0"><path d="M620 950a17.08 17.08 0 0 1 6.15-13.12l86.1-71.76A22.1 22.1 0 0 1 726.4 860H1437a8 8 0 0 1 8 8v705.6a22.1 22.1 0 0 1-5.12 14.15l-71.76 86.1A17.08 17.08 0 0 1 1355 1680H628a8 8 0 0 1-8-8z" stroke="#333" fill="#fff"/><path d="M628 942a2.9 2.9 0 0 1-1.85-5.12l86.1-71.76A22.1 22.1 0 0 1 726.4 860H1437a3.3 3.3 0 0 1 2.34 5.66l-70.68 70.68A19.3 19.3 0 0 1 1355 942z" stroke="#333" fill="#e6e6e6"/><path d="M1363 950a19.3 19.3 0 0 1 5.66-13.66l70.68-70.68A3.3 3.3 0 0 1 1445 868v705.6a22.1 22.1 0 0 1-5.12 14.15l-71.76 86.1a2.9 2.9 0 0 1-5.12-1.85z" stroke="#333" fill="#ccc"/><use xlink:href="#a" transform="matrix(1,0,0,1,628,950) translate(212.15 16.6)"/><use xlink:href="#b" transform="matrix(1,0,0,1,628,950) translate(312.95 16.6)"/><path d="M1560 376.67a17.08 17.08 0 0 1 6.15-13.12l26.1-21.75a22.1 22.1 0 0 1 14.15-5.13H1872a8 8 0 0 1 8 8V633.6a22.1 22.1 0 0 1-5.12 14.15l-21.76 26.1A17.08 17.08 0 0 1 1840 680h-272a8 8 0 0 1-8-8z" stroke="#333" fill="#fff"/><path d="M1568 368.67a2.9 2.9 0 0 1-1.85-5.12l26.1-21.75a22.1 22.1 0 0 1 14.15-5.13H1872a3.3 3.3 0 0 1 2.34 5.66l-20.68 20.7a19.3 19.3 0 0 1-13.66 5.64z" stroke="#333" fill="#e6e6e6"/><path d="M1848 376.67a19.3 19.3 0 0 1 5.66-13.65l20.68-20.7a3.3 3.3 0 0 1 5.66 2.35V633.6a22.1 22.1 0 0 1-5.12 14.15l-21.76 26.1A2.9 2.9 0 0 1 1848 672z" stroke="#333" fill="#ccc"/><use xlink:href="#c" transform="matrix(1,0,0,1,1568,376.6737901311418) translate(59.599999999999994 16.6)"/><path d="M1540 934a17.08 17.08 0 0 1 6.15-13.12l18.9-15.76a22.1 22.1 0 0 1 14.15-5.12H1842a8 8 0 0 1 8 8v212.8a22.1 22.1 0 0 1-5.12 14.15l-15.76 18.9A17.08 17.08 0 0 1 1816 1160h-268a8 8 0 0 1-8-8z" stroke="#333" fill="#fff"/><path d="M1548 926a2.9 2.9 0 0 1-1.85-5.12l18.9-15.76a22.1 22.1 0 0 1 14.15-5.12H1842a3.3 3.3 0 0 1 2.34 5.66l-14.68 14.68A19.3 19.3 0 0 1 1816 926z" stroke="#333" fill="#e6e6e6"/><path d="M1824 934a19.3 19.3 0 0 1 5.66-13.66l14.68-14.68A3.3 3.3 0 0 1 1850 908v212.8a22.1 22.1 0 0 1-5.12 14.15l-15.76 18.9a2.9 2.9 0 0 1-5.12-1.85z" stroke="#333" fill="#ccc"/><use xlink:href="#d" transform="matrix(1,0,0,1,1548,934) translate(32.14999999999999 16.6)"/><use xlink:href="#e" transform="matrix(1,0,0,1,1548,934) translate(119 16.6)"/><path d="M1230 79.17a17.08 17.08 0 0 1 6.15-13.12l14.73-12.28a22.1 22.1 0 0 1 14.14-5.12H1482a8 8 0 0 1 8 8V238.8a22.1 22.1 0 0 1-5.12 14.15l-12.28 14.73a17.08 17.08 0 0 1-13.12 6.15H1238a8 8 0 0 1-8-8z" stroke="#333" fill="#fff"/><path d="M1238 71.17a2.9 2.9 0 0 1-1.85-5.12l14.73-12.28a22.1 22.1 0 0 1 14.14-5.12H1482a3.3 3.3 0 0 1 2.34 5.66l-11.2 11.2a19.3 19.3 0 0 1-13.66 5.67z" stroke="#333" fill="#e6e6e6"/><path d="M1467.48 79.17a19.3 19.3 0 0 1 5.66-13.66l11.2-11.2a3.3 3.3 0 0 1 5.66 2.35V238.8a22.1 22.1 0 0 1-5.12 14.15l-12.28 14.73a2.9 2.9 0 0 1-5.12-1.85z" stroke="#333" fill="#ccc"/><use xlink:href="#f" transform="matrix(1,0,0,1,1238.000000065152,79.16749079578723) translate(38.099999999999994 16.6)"/><use xlink:href="#g" transform="matrix(1,0,0,1,1238.000000065152,79.16749079578723) translate(78.05 16.6)"/><path d="M40 379a17.08 17.08 0 0 1 6.15-13.12l28.9-24.08a22.1 22.1 0 0 1 14.15-5.13H512a8 8 0 0 1 8 8V630.8a22.1 22.1 0 0 1-5.12 14.15l-24.1 28.9a17.08 17.08 0 0 1-13.1 6.15H48a8 8 0 0 1-8-8z" stroke="#333" fill="#fff"/><path d="M48 371a2.9 2.9 0 0 1-1.85-5.12l28.9-24.08a22.1 22.1 0 0 1 14.15-5.13H512a3.3 3.3 0 0 1 2.34 5.66l-23.02 23.02a19.3 19.3 0 0 1-13.65 5.66z" stroke="#333" fill="#e6e6e6"/><path d="M485.67 379a19.3 19.3 0 0 1 5.65-13.65l23.02-23.02a3.3 3.3 0 0 1 5.66 2.34V630.8a22.1 22.1 0 0 1-5.12 14.15l-24.1 28.9a2.9 2.9 0 0 1-5.1-1.85z" stroke="#333" fill="#ccc"/><use xlink:href="#h" transform="matrix(1,0,0,1,48,379.00641111802764) translate(86.67499999999998 16.6)"/><use xlink:href="#i" transform="matrix(1,0,0,1,48,379.00641111802764) translate(180.425 16.6)"/><path d="M609.72 384a17.08 17.08 0 0 1 6.15-13.12l30.9-25.76a22.1 22.1 0 0 1 14.15-5.12h821.36a8 8 0 0 1 8 8v300.8a22.1 22.1 0 0 1-5.12 14.15l-25.76 30.9a17.08 17.08 0 0 1-13.12 6.15H617.72a8 8 0 0 1-8-8z" stroke="#333" fill="#fff"/><path d="M617.72 376a2.9 2.9 0 0 1-1.85-5.12l30.9-25.76a22.1 22.1 0 0 1 14.15-5.12h821.36a3.3 3.3 0 0 1 2.34 5.66l-24.68 24.68a19.3 19.3 0 0 1-13.66 5.66z" stroke="#333" fill="#e6e6e6"/><path d="M1454.28 384a19.3 19.3 0 0 1 5.65-13.66l24.7-24.68a3.3 3.3 0 0 1 5.65 2.34v300.8a22.1 22.1 0 0 1-5.12 14.15l-25.76 30.9a2.9 2.9 0 0 1-5.12-1.85z" stroke="#333" fill="#ccc"/><use xlink:href="#a" transform="matrix(1,0,0,1,617.7213900009205,384) translate(195.2 16.6)"/><use xlink:href="#j" transform="matrix(1,0,0,1,617.7213900009205,384) translate(296 16.6)"/><use xlink:href="#i" transform="matrix(1,0,0,1,617.7213900009205,384) translate(352.9 16.6)"/><path d="M380 28a8 8 0 0 1 8-8h931.73a8 8 0 0 1 8 8v25.16a8 8 0 0 1-8 8H388a8 8 0 0 1-8-8z" stroke="#000" stroke-opacity="0" stroke-width="2" fill="#fff" fill-opacity="0"/><use xlink:href="#k" transform="matrix(1,0,0,1,383.99999999999994,23.999999999999996) translate(314.2285185185185 25.782777777777778)"/><use xlink:href="#l" transform="matrix(1,0,0,1,383.99999999999994,23.999999999999996) translate(472.65444444444444 25.782777777777778)"/><path d="M579.52 59.8H1137M579.55 59.8h-1.03M1136.97 59.8h1.03" stroke="#a9afb8" stroke-width="2" fill="none"/><path d="M380 69.16a8 8 0 0 1 8-8h932.8a8 8 0 0 1 8 8V72a8 8 0 0 1-8 8H388a8 8 0 0 1-8-8z" stroke="#000" stroke-opacity="0" stroke-width="2" fill="#fff" fill-opacity="0"/><use xlink:href="#m" transform="matrix(1,0,0,1,384.0000000000003,65.15522395689881) translate(359.7463683127572 14.917037037037037)"/><use xlink:href="#n" transform="matrix(1,0,0,1,384.0000000000003,65.15522395689881) translate(398.8369032921811 14.917037037037037)"/><use xlink:href="#o" transform="matrix(1,0,0,1,384.0000000000003,65.15522395689881) translate(482.83906378600824 14.917037037037037)"/><use xlink:href="#p" transform="matrix(1,0,0,1,384.0000000000003,65.15522395689881) translate(495.28854938271604 14.917037037037037)"/><use xlink:href="#q" transform="matrix(1,0,0,1,384.0000000000003,65.15522395689881) translate(528.3880349794239 14.917037037037037)"/><use xlink:href="#r" transform="matrix(1,0,0,1,384.0000000000003,65.15522395689881) translate(553.8818621399176 14.917037037037037)"/><path d="M60 477.73a8 8 0 0 1 8-8h144a8 8 0 0 1 8 8v104a8 8 0 0 1-8 8H68a8 8 0 0 1-8-8z" stroke="#333" fill="#fff"/><path d="M210 479.73h-15v20h15z" stroke="#333" fill="#fff"/><path d="M200 483.06h-10v3.34h10zm0 10h-10v3.34h10z" stroke="#333" fill="#fff"/><use xlink:href="#s" transform="matrix(1,0,0,1,60,469.73064348966955) translate(14.630000000000004 51.9)"/><use xlink:href="#t" transform="matrix(1,0,0,1,60,469.73064348966955) translate(60.480000000000004 51.9)"/><use xlink:href="#u" transform="matrix(1,0,0,1,60,469.73064348966955) translate(107.43 51.9)"/><use xlink:href="#v" transform="matrix(1,0,0,1,60,469.73064348966955) translate(65.50500000000001 73.5)"/><path d="M260 477.73a8 8 0 0 1 8-8h144a8 8 0 0 1 8 8v104a8 8 0 0 1-8 8H268a8 8 0 0 1-8-8z" stroke="#333" fill="#fff"/><path d="M410 479.73h-15v20h15z" stroke="#333" fill="#fff"/><path d="M400 483.06h-10v3.34h10zm0 10h-10v3.34h10z" stroke="#333" fill="#fff"/><use xlink:href="#s" transform="matrix(1,0,0,1,260,469.73064348966955) translate(36.105 51.9)"/><use xlink:href="#w" transform="matrix(1,0,0,1,260,469.73064348966955) translate(81.955 51.9)"/><use xlink:href="#x" transform="matrix(1,0,0,1,260,469.73064348966955) translate(44.529999999999994 73.5)"/><path d="M720 609.3v10.5a10 10 0 0 0 10 10 10 10 0 0 1 10 10v343.32" stroke="#333" fill="none"/><path d="M720.5 609.32h-1v-.5h1z" stroke="#333" stroke-width=".05" fill="#333"/><path d="M740 997.88l-4.63-14.26h9.26z" stroke="#333" fill="#333"/><path d="M950.33 999V625.2" stroke="#333" fill="none"/><path d="M950.83 999.5h-1v-.5h1z" stroke="#333" stroke-width=".05" fill="#333"/><path d="M950.33 610.42l4.64 14.27h-9.27z" stroke="#333" fill="#333"/><path d="M910 999V852a12 12 0 0 0-12-12H745c0-2.76-2.24-5-5-5s-5 2.24-5 5H152a12 12 0 0 1-12-12V606.6" stroke="#333" fill="none"/><path d="M910.5 999.5h-1v-.5h1z" stroke="#333" stroke-width=".05" fill="#333"/><path d="M140 591.85l4.63 14.26h-9.26z" stroke="#333" fill="#333"/><path d="M910 487.3V316.83a12 12 0 0 0-12-12H352a12 12 0 0 0-12 12v136.03" stroke="#333" fill="none"/><path d="M910.5 487.8h-1v-.5h1z" stroke="#333" stroke-width=".05" fill="#333"/><path d="M340 467.6l-4.63-14.25h9.26z" stroke="#333" fill="#333"/><path d="M1310 484.7v-10.47a12 12 0 0 1 12-12h6a12 12 0 0 0 12-12V256.88" stroke="#333" fill="none"/><path d="M1310.5 485.2h-1v-.5h1z" stroke="#333" stroke-width=".05" fill="#333"/><path d="M1340 242.12l4.63 14.26h-9.27z" stroke="#333" fill="#333"/><path d="M640 496.3a8 8 0 0 1 8-8h144a8 8 0 0 1 8 8v104a8 8 0 0 1-8 8H648a8 8 0 0 1-8-8z" stroke="#333" fill="#fff"/><path d="M790 498.3h-15v20h15z" stroke="#333" fill="#fff"/><path d="M780 501.64h-10v3.33h10zm0 10h-10v3.33h10z" stroke="#333" fill="#fff"/><use xlink:href="#y" transform="matrix(1,0,0,1,640,488.3059384067128) translate(30.055 51.9)"/><use xlink:href="#z" transform="matrix(1,0,0,1,640,488.3059384067128) translate(73.005 51.9)"/><use xlink:href="#A" transform="matrix(1,0,0,1,640,488.3059384067128) translate(26.554999999999993 73.5)"/><use xlink:href="#B" transform="matrix(1,0,0,1,640,488.3059384067128) translate(93.45500000000001 73.5)"/><path d="M830 496.3a8 8 0 0 1 8-8h144a8 8 0 0 1 8 8v104a8 8 0 0 1-8 8H838a8 8 0 0 1-8-8z" stroke="#333" fill="#fff"/><path d="M980 498.3h-15v20h15z" stroke="#333" fill="#fff"/><path d="M970 501.64h-10v3.33h10zm0 10h-10v3.33h10z" stroke="#333" fill="#fff"/><use xlink:href="#s" transform="matrix(1,0,0,1,829.9999999348479,488.3059384067128) translate(36.105 51.9)"/><use xlink:href="#w" transform="matrix(1,0,0,1,829.9999999348479,488.3059384067128) translate(81.955 51.9)"/><use xlink:href="#C" transform="matrix(1,0,0,1,829.9999999348479,488.3059384067128) translate(6.554999999999987 73.5)"/><use xlink:href="#D" transform="matrix(1,0,0,1,829.9999999348479,488.3059384067128) translate(73.505 73.5)"/><use xlink:href="#v" transform="matrix(1,0,0,1,829.9999999348479,488.3059384067128) translate(124.455 73.5)"/><path d="M1040 496.3a8 8 0 0 1 8-8h144a8 8 0 0 1 8 8v104a8 8 0 0 1-8 8h-144a8 8 0 0 1-8-8z" stroke="#333" fill="#fff"/><path d="M1190 498.3h-15v20h15z" stroke="#333" fill="#fff"/><path d="M1180 501.64h-10v3.33h10zm0 10h-10v3.33h10z" stroke="#333" fill="#fff"/><use xlink:href="#E" transform="matrix(1,0,0,1,1040,488.3059384067128) translate(20.555 51.9)"/><use xlink:href="#F" transform="matrix(1,0,0,1,1040,488.3059384067128) translate(68.505 51.9)"/><use xlink:href="#G" transform="matrix(1,0,0,1,1040,488.3059384067128) translate(50.05499999999999 73.5)"/><path d="M1260 128a8 8 0 0 1 8-8h144a8 8 0 0 1 8 8v104a8 8 0 0 1-8 8h-144a8 8 0 0 1-8-8z" stroke="#333" fill="#fff"/><path d="M1410 130h-15v20h15z" stroke="#333" fill="#fff"/><path d="M1400 133.33h-10v3.34h10zm0 10h-10v3.34h10z" stroke="#333" fill="#fff"/><use xlink:href="#f" transform="matrix(1,0,0,1,1260,120) translate(45.529999999999994 63.15)"/><use xlink:href="#v" transform="matrix(1,0,0,1,1260,120) translate(85.47999999999999 63.15)"/><path d="M1230 493.7a8 8 0 0 1 8-8h144a8 8 0 0 1 8 8v104a8 8 0 0 1-8 8h-144a8 8 0 0 1-8-8z" stroke="#333" fill="#fff"/><path d="M1380 495.7h-15v20h15z" stroke="#333" fill="#fff"/><path d="M1370 499.04h-10v3.33h10zm0 10h-10v3.33h10z" stroke="#333" fill="#fff"/><use xlink:href="#H" transform="matrix(1,0,0,1,1230.000000065152,485.70155733831103) translate(61.029999999999994 51.9)"/><use xlink:href="#I" transform="matrix(1,0,0,1,1230.000000065152,485.70155733831103) translate(5.130000000000004 73.5)"/><use xlink:href="#v" transform="matrix(1,0,0,1,1230.000000065152,485.70155733831103) translate(125.88000000000001 73.5)"/><path d="M1620 477.73a8 8 0 0 1 8-8h144a8 8 0 0 1 8 8v104a8 8 0 0 1-8 8h-144a8 8 0 0 1-8-8z" stroke="#333" fill="#fff"/><path d="M1770 479.73h-15v20h15z" stroke="#333" fill="#fff"/><path d="M1760 483.06h-10v3.34h10zm0 10h-10v3.34h10z" stroke="#333" fill="#fff"/><use xlink:href="#J" transform="matrix(1,0,0,1,1620,469.73064348966955) translate(10.604999999999999 63.15)"/><use xlink:href="#v" transform="matrix(1,0,0,1,1620,469.73064348966955) translate(120.40500000000002 63.15)"/><path d="M1140 1008a8 8 0 0 1 8-8h144a8 8 0 0 1 8 8v104a8 8 0 0 1-8 8h-144a8 8 0 0 1-8-8z" stroke="#333" fill="#fff"/><path d="M1290 1010h-15v20h15z" stroke="#333" fill="#fff"/><path d="M1280 1013.33h-10v3.34h10zm0 10h-10v3.34h10z" stroke="#333" fill="#fff"/><use xlink:href="#K" transform="matrix(1,0,0,1,1140,1000) translate(61.505 63.15)"/><path d="M875.33 1387a8 8 0 0 1 8-8h144a8 8 0 0 1 8 8v104a8 8 0 0 1-8 8h-144a8 8 0 0 1-8-8z" stroke="#333" fill="#fff"/><path d="M1025.33 1389h-15v20h15z" stroke="#333" fill="#fff"/><path d="M1015.33 1392.32h-10v3.33h10zm0 10h-10v3.33h10z" stroke="#333" fill="#fff"/><use xlink:href="#L" transform="matrix(1,0,0,1,875.3332812620322,1378.9877296554603) translate(12.804999999999987 63.15)"/><use xlink:href="#M" transform="matrix(1,0,0,1,875.3332812620322,1378.9877296554603) translate(91.255 63.15)"/><path d="M870.33 1008a8 8 0 0 1 8-8h144a8 8 0 0 1 8 8v104a8 8 0 0 1-8 8h-144a8 8 0 0 1-8-8z" stroke="#333" fill="#fff"/><path d="M1020.33 1010h-15v20h15z" stroke="#333" fill="#fff"/><path d="M1010.33 1013.33h-10v3.34h10zm0 10h-10v3.34h10z" stroke="#333" fill="#fff"/><use xlink:href="#N" transform="matrix(1,0,0,1,870.3332812620324,1000) translate(42.055 63.15)"/><use xlink:href="#O" transform="matrix(1,0,0,1,870.3332812620324,1000) translate(76.055 63.15)"/><path d="M670 1388a8 8 0 0 1 8-8h144a8 8 0 0 1 8 8v104a8 8 0 0 1-8 8H678a8 8 0 0 1-8-8z" stroke="#333" fill="#fff"/><path d="M820 1390h-15v20h15z" stroke="#333" fill="#fff"/><path d="M810 1393.33h-10v3.34h10zm0 10h-10v3.34h10z" stroke="#333" fill="#fff"/><use xlink:href="#P" transform="matrix(1,0,0,1,669.9999999348479,1380) translate(9.054999999999987 63.15)"/><use xlink:href="#Q" transform="matrix(1,0,0,1,669.9999999348479,1380) translate(88.005 63.15)"/><path d="M660 1008a8 8 0 0 1 8-8h144a8 8 0 0 1 8 8v104a8 8 0 0 1-8 8H668a8 8 0 0 1-8-8z" stroke="#333" fill="#fff"/><path d="M810 1010h-15v20h15z" stroke="#333" fill="#fff"/><path d="M800 1013.33h-10v3.34h10zm0 10h-10v3.34h10z" stroke="#333" fill="#fff"/><use xlink:href="#y" transform="matrix(1,0,0,1,660,1000) translate(30.055 51.9)"/><use xlink:href="#z" transform="matrix(1,0,0,1,660,1000) translate(73.005 51.9)"/><use xlink:href="#R" transform="matrix(1,0,0,1,660,1000) translate(49.05499999999999 73.5)"/><path d="M1140 1387a8 8 0 0 1 8-8h144a8 8 0 0 1 8 8v104a8 8 0 0 1-8 8h-144a8 8 0 0 1-8-8z" stroke="#333" fill="#fff"/><path d="M1290 1389h-15v20h15z" stroke="#333" fill="#fff"/><path d="M1280 1392.32h-10v3.33h10zm0 10h-10v3.33h10z" stroke="#333" fill="#fff"/><use xlink:href="#H" transform="matrix(1,0,0,1,1140,1378.9877296554603) translate(61.029999999999994 51.9)"/><use xlink:href="#S" transform="matrix(1,0,0,1,1140,1378.9877296554603) translate(22.129999999999995 73.5)"/><path d="M1580 996.16a8 8 0 0 1 8-8h144a8 8 0 0 1 8 8v104a8 8 0 0 1-8 8h-144a8 8 0 0 1-8-8z" stroke="#333" fill="#fff"/><path d="M1730 998.16h-15v20h15z" stroke="#333" fill="#fff"/><path d="M1720 1001.5h-10v3.32h10zm0 10h-10v3.32h10z" stroke="#333" fill="#fff"/><use xlink:href="#d" transform="matrix(1,0,0,1,1580,988.1569789841085) translate(14.604999999999999 51.9)"/><use xlink:href="#T" transform="matrix(1,0,0,1,1580,988.1569789841085) translate(101.45500000000001 51.9)"/><use xlink:href="#G" transform="matrix(1,0,0,1,1580,988.1569789841085) translate(50.05499999999999 73.5)"/><path d="M580 1894a17.08 17.08 0 0 1 6.15-13.12l66.9-55.76a22.1 22.1 0 0 1 14.15-5.12H1512a8 8 0 0 1 8 8v564.8a22.1 22.1 0 0 1-5.12 14.15l-55.76 66.9A17.08 17.08 0 0 1 1446 2480H588a8 8 0 0 1-8-8z" stroke="#333" fill="#fff"/><path d="M588 1886a2.9 2.9 0 0 1-1.85-5.12l66.9-55.76a22.1 22.1 0 0 1 14.15-5.12H1512a3.3 3.3 0 0 1 2.34 5.66l-54.68 54.68A19.3 19.3 0 0 1 1446 1886z" stroke="#333" fill="#e6e6e6"/><path d="M1454 1894a19.3 19.3 0 0 1 5.66-13.66l54.68-54.68a3.3 3.3 0 0 1 5.66 2.34v564.8a22.1 22.1 0 0 1-5.12 14.15l-55.76 66.9a2.9 2.9 0 0 1-5.12-1.85z" stroke="#333" fill="#ccc"/><use xlink:href="#a" transform="matrix(1,0,0,1,588,1894) translate(234.875 16.6)"/><use xlink:href="#U" transform="matrix(1,0,0,1,588,1894) translate(335.675 16.6)"/><use xlink:href="#V" transform="matrix(1,0,0,1,588,1894) translate(377.275 16.6)"/><path d="M875.33 1208a8 8 0 0 1 8-8h144a8 8 0 0 1 8 8v83a8 8 0 0 1-8 8h-144a8 8 0 0 1-8-8z" stroke="#333" fill="#fff"/><path d="M1025.33 1210h-15v20h15z" stroke="#333" fill="#fff"/><path d="M1015.33 1213.33h-10v3.34h10zm0 10h-10v3.34h10z" stroke="#333" fill="#fff"/><use xlink:href="#H" transform="matrix(1,0,0,1,875.3332812620322,1200) translate(46.029999999999994 32.9625)"/><use xlink:href="#W" transform="matrix(1,0,0,1,875.3332812620322,1200) translate(19.95499999999999 54.5625)"/><use xlink:href="#G" transform="matrix(1,0,0,1,875.3332812620322,1200) translate(50.05499999999999 76.16250000000001)"/><path d="M955.33 1199v-62.12" stroke="#333" fill="none"/><path d="M955.83 1199.5h-1v-.5h1z" stroke="#333" stroke-width=".05" fill="#333"/><path d="M955.33 1122.12l4.64 14.26h-9.27z" stroke="#333" fill="#333"/><path d="M874.33 1249.5H762a12 12 0 0 0-12 12v101.62" stroke="#333" fill="none"/><path d="M874.83 1250h-.5v-1h.5z" stroke="#333" stroke-width=".05" fill="#333"/><path d="M750 1377.88l-4.63-14.26h9.26z" stroke="#333" fill="#333"/><path d="M1036.33 1439h86.8" stroke="#333" fill="none"/><path d="M1036.35 1439.5h-.52v-1h.52z" stroke="#333" stroke-width=".05" fill="#333"/><path d="M1137.88 1439l-14.26 4.62v-9.27z" stroke="#333" fill="#333"/><path d="M875.33 1548a8 8 0 0 1 8-8h144a8 8 0 0 1 8 8v104a8 8 0 0 1-8 8h-144a8 8 0 0 1-8-8z" stroke="#333" fill="#fff"/><path d="M1025.33 1550h-15v20h15z" stroke="#333" fill="#fff"/><path d="M1015.33 1553.33h-10v3.34h10zm0 10h-10v3.34h10z" stroke="#333" fill="#fff"/><use xlink:href="#a" transform="matrix(1,0,0,1,875.3332812620322,1540) translate(15.104999999999999 51.9)"/><use xlink:href="#X" transform="matrix(1,0,0,1,875.3332812620322,1540) translate(115.905 51.9)"/><use xlink:href="#Y" transform="matrix(1,0,0,1,875.3332812620322,1540) translate(51.555 73.5)"/><path d="M955.33 1539v-23.13" stroke="#333" fill="none"/><path d="M955.83 1539.5h-1v-.5h1z" stroke="#333" stroke-width=".05" fill="#333"/><path d="M955.33 1501.1l4.64 14.27h-9.27z" stroke="#333" fill="#333"/><path d="M874.33 1600h-107a12 12 0 0 1-12-12v-71.12" stroke="#333" fill="none"/><path d="M874.83 1600.5h-.5v-1h.5z" stroke="#333" stroke-width=".05" fill="#333"/><path d="M755.33 1502.12l4.64 14.26h-9.27z" stroke="#333" fill="#333"/><path d="M955.33 1378v-62.13" stroke="#333" fill="none"/><path d="M955.83 1378.5h-1v-.53h1z" stroke="#333" stroke-width=".05" fill="#333"/><path d="M955.33 1301.1l4.64 14.27h-9.27z" stroke="#333" fill="#333"/><path d="M1036.33 1600h39.34a12 12 0 0 0 12-12v-144c-2.77 0-5-2.25-5-5 0-2.77 2.23-5 5-5v-362a12 12 0 0 1 12-12h23.45" stroke="#333" fill="none"/><path d="M1036.35 1600.5h-.52v-1h.52z" stroke="#333" stroke-width=".05" fill="#333"/><path d="M1137.88 1060l-14.26 4.63v-9.27z" stroke="#333" fill="#333"/><path d="M1220 1539v-23.13" stroke="#333" fill="none"/><path d="M1220.5 1539.5h-1v-.5h1z" stroke="#333" stroke-width=".05" fill="#333"/><path d="M1220 1501.1l4.63 14.27h-9.27z" stroke="#333" fill="#333"/><path d="M1301 1439h187a12 12 0 0 0 12-12V557.7a12 12 0 0 0-12-12h-81.12" stroke="#333" fill="none"/><path d="M1301 1439.5h-.5v-1h.5z" stroke="#333" stroke-width=".05" fill="#333"/><path d="M1392.12 545.7l14.26-4.63v9.27z" stroke="#333" fill="#333"/><path d="M874.33 1439h-8.5a12 12 0 0 0-12 12v77a12 12 0 0 1-12 12h-81.5c0-2.76-2.24-5-5-5s-5 2.24-5 5H662a12 12 0 0 1-12-12v-374.5a12 12 0 0 1 12-12h73.38a4.62 4.62 0 0 0 4.62-4.62" stroke="#333" fill="none"/><path d="M874.83 1439.5h-.5v-1h.5z" stroke="#333" stroke-width=".05" fill="#333"/><path d="M740 1122.12l4.63 14.26h-9.26z" stroke="#333" fill="#333"/><path d="M874.33 1600H662a12 12 0 0 1-12-12v-434.5a12 12 0 0 1 12-12h73.38a4.62 4.62 0 0 0 4.62-4.62" stroke="#333" fill="none"/><path d="M874.83 1600.5h-.5v-1h.5z" stroke="#333" stroke-width=".05" fill="#333"/><path d="M740 1122.12l4.63 14.26h-9.26z" stroke="#333" fill="#333"/><path d="M1035.33 1928a8 8 0 0 1 8-8h144a8 8 0 0 1 8 8v104a8 8 0 0 1-8 8h-144a8 8 0 0 1-8-8z" stroke="#333" fill="#fff"/><path d="M1185.33 1930h-15v20h15z" stroke="#333" fill="#fff"/><path d="M1175.33 1933.33h-10v3.34h10zm0 10h-10v3.34h10z" stroke="#333" fill="#fff"/><use xlink:href="#a" transform="matrix(1,0,0,1,1035.3332812620322,1920) translate(15.104999999999999 51.9)"/><use xlink:href="#X" transform="matrix(1,0,0,1,1035.3332812620322,1920) translate(115.905 51.9)"/><use xlink:href="#V" transform="matrix(1,0,0,1,1035.3332812620322,1920) translate(57.08 73.5)"/><path d="M1115.33 1919v-117a12 12 0 0 0-12-12h-136a12 12 0 0 1-12-12v-101.12" stroke="#333" fill="none"/><path d="M1115.83 1919.5h-1v-.5h1z" stroke="#333" stroke-width=".05" fill="#333"/><path d="M955.33 1662.12l4.64 14.26h-9.27z" stroke="#333" fill="#333"/><path d="M640 2108a8 8 0 0 1 8-8h144a8 8 0 0 1 8 8v104a8 8 0 0 1-8 8H648a8 8 0 0 1-8-8z" stroke="#333" fill="#fff"/><path d="M790 2110h-15v20h15z" stroke="#333" fill="#fff"/><path d="M780 2113.33h-10v3.34h10zm0 10h-10v3.34h10z" stroke="#333" fill="#fff"/><use xlink:href="#P" transform="matrix(1,0,0,1,640,2100) translate(16.07999999999999 63.15)"/><use xlink:href="#Z" transform="matrix(1,0,0,1,640,2100) translate(95.03 63.15)"/><path d="M840 2108a8 8 0 0 1 8-8h144a8 8 0 0 1 8 8v104a8 8 0 0 1-8 8H848a8 8 0 0 1-8-8z" stroke="#333" fill="#fff"/><path d="M990 2110h-15v20h15z" stroke="#333" fill="#fff"/><path d="M980 2113.33h-10v3.34h10zm0 10h-10v3.34h10z" stroke="#333" fill="#fff"/><use xlink:href="#L" transform="matrix(1,0,0,1,840,2100) translate(16.32999999999999 63.15)"/><use xlink:href="#Z" transform="matrix(1,0,0,1,840,2100) translate(94.78 63.15)"/><path d="M1040 2108a8 8 0 0 1 8-8h144a8 8 0 0 1 8 8v104a8 8 0 0 1-8 8h-144a8 8 0 0 1-8-8z" stroke="#333" fill="#fff"/><path d="M1190 2110h-15v20h15z" stroke="#333" fill="#fff"/><path d="M1180 2113.33h-10v3.34h10zm0 10h-10v3.34h10z" stroke="#333" fill="#fff"/><use xlink:href="#aa" transform="matrix(1,0,0,1,1040,2100) translate(34.105 63.15)"/><use xlink:href="#Z" transform="matrix(1,0,0,1,1040,2100) translate(77.005 63.15)"/><path d="M720 2099v-107a12 12 0 0 1 12-12h286.45" stroke="#333" fill="none"/><path d="M720.5 2099.5h-1v-.5h1z" stroke="#333" stroke-width=".05" fill="#333"/><path d="M1033.2 1980l-14.25 4.63v-9.27z" stroke="#333" fill="#333"/><path d="M920 2099v-17a12 12 0 0 1 12-12h131a12 12 0 0 0 12-12v-1.12" stroke="#333" fill="none"/><path d="M920.5 2099.5h-1v-.5h1z" stroke="#333" stroke-width=".05" fill="#333"/><path d="M1075 2042.12l4.63 14.26h-9.27z" stroke="#333" fill="#333"/><path d="M1120 2099v-17a12 12 0 0 1 12-12h11.67a12 12 0 0 0 12-12v-1.12" stroke="#333" fill="none"/><path d="M1120.5 2099.5h-1v-.5h1z" stroke="#333" stroke-width=".05" fill="#333"/><path d="M1155.67 2042.12l4.63 14.26h-9.27z" stroke="#333" fill="#333"/><path d="M640 2288a8 8 0 0 1 8-8h144a8 8 0 0 1 8 8v104a8 8 0 0 1-8 8H648a8 8 0 0 1-8-8z" stroke="#333" fill="#fff"/><path d="M790 2290h-15v20h15z" stroke="#333" fill="#fff"/><path d="M780 2293.33h-10v3.34h10zm0 10h-10v3.34h10z" stroke="#333" fill="#fff"/><use xlink:href="#ab" transform="matrix(1,0,0,1,640,2280) translate(23.654999999999994 63.15)"/><use xlink:href="#ac" transform="matrix(1,0,0,1,640,2280) translate(46.605 63.15)"/><path d="M840 2288a8 8 0 0 1 8-8h144a8 8 0 0 1 8 8v104a8 8 0 0 1-8 8H848a8 8 0 0 1-8-8z" stroke="#333" fill="#fff"/><path d="M990 2290h-15v20h15z" stroke="#333" fill="#fff"/><path d="M980 2293.33h-10v3.34h10zm0 10h-10v3.34h10z" stroke="#333" fill="#fff"/><use xlink:href="#ab" transform="matrix(1,0,0,1,840,2280) translate(22.07999999999999 51.9)"/><use xlink:href="#ad" transform="matrix(1,0,0,1,840,2280) translate(45.029999999999994 51.9)"/><use xlink:href="#ae" transform="matrix(1,0,0,1,840,2280) translate(52.58 73.5)"/><path d="M100 944a17.08 17.08 0 0 1 6.15-13.12l30.9-25.76A22.1 22.1 0 0 1 151.2 900H452a8 8 0 0 1 8 8v300.8a22.1 22.1 0 0 1-5.12 14.15l-25.76 30.9A17.08 17.08 0 0 1 416 1260H108a8 8 0 0 1-8-8z" stroke="#333" fill="#fff"/><path d="M108 936a2.9 2.9 0 0 1-1.85-5.12l30.9-25.76A22.1 22.1 0 0 1 151.2 900H452a3.3 3.3 0 0 1 2.34 5.66l-24.68 24.68A19.3 19.3 0 0 1 416 936z" stroke="#333" fill="#e6e6e6"/><path d="M424 944a19.3 19.3 0 0 1 5.66-13.66l24.68-24.68A3.3 3.3 0 0 1 460 908v300.8a22.1 22.1 0 0 1-5.12 14.15l-25.76 30.9A2.9 2.9 0 0 1 424 1252z" stroke="#333" fill="#ccc"/><use xlink:href="#a" transform="matrix(1,0,0,1,108,944) translate(50.150000000000006 16.6)"/><use xlink:href="#af" transform="matrix(1,0,0,1,108,944) translate(150.95 16.6)"/><path d="M200 1032.75a8 8 0 0 1 8-8h144a8 8 0 0 1 8 8v104a8 8 0 0 1-8 8H208a8 8 0 0 1-8-8z" stroke="#333" fill="#fff"/><path d="M350 1034.75h-15v20h15z" stroke="#333" fill="#fff"/><path d="M340 1038.1h-10v3.32h10zm0 10h-10v3.32h10z" stroke="#333" fill="#fff"/><use xlink:href="#ag" transform="matrix(1,0,0,1,200,1024.7515230501963) translate(23.62999999999999 51.9)"/><use xlink:href="#ah" transform="matrix(1,0,0,1,200,1024.7515230501963) translate(59.055 73.5)"/><path d="M361 1084.75h119a10 10 0 0 0 10-10 10 10 0 0 1 10-10h103.12" stroke="#333" fill="none"/><path d="M361 1085.25h-.5v-1h.5z" stroke="#333" stroke-width=".05" fill="#333"/><path d="M617.88 1064.75l-14.26 4.64v-9.28z" stroke="#333" fill="#333"/><path d="M950.33 999V806.87a12 12 0 0 1 12-12H1495c0-2.77 2.24-5 5-5s5 2.23 5 5h183a12 12 0 0 0 12-12V606.6" stroke="#333" fill="none"/><path d="M950.83 999.5h-1v-.5h1z" stroke="#333" stroke-width=".05" fill="#333"/><path d="M1700 591.85l4.63 14.26h-9.27z" stroke="#333" fill="#333"/><path d="M1140 1197.5a8 8 0 0 1 8-8h144a8 8 0 0 1 8 8v104a8 8 0 0 1-8 8h-144a8 8 0 0 1-8-8z" stroke="#333" fill="#fff"/><path d="M1290 1199.5h-15v20h15z" stroke="#333" fill="#fff"/><path d="M1280 1202.83h-10v3.33h10zm0 10h-10v3.33h10z" stroke="#333" fill="#fff"/><g><use xlink:href="#ai" transform="matrix(1,0,0,1,1140,1189.4938648277302) translate(28.029999999999994 40.65)"/><use xlink:href="#aj" transform="matrix(1,0,0,1,1140,1189.4938648277302) translate(33.57999999999999 62.25)"/><use xlink:href="#ak" transform="matrix(1,0,0,1,1140,1189.4938648277302) translate(50.05499999999999 83.85000000000001)"/></g><path d="M955.33 1378v-21.76a12 12 0 0 1 12-12h115.34c0-2.76 2.23-5 5-5 2.76 0 5 2.24 5 5H1208a12 12 0 0 0 12-12v-5.86" stroke="#333" fill="none"/><path d="M955.83 1378.5h-1v-.53h1z" stroke="#333" stroke-width=".05" fill="#333"/><path d="M1220 1311.6l4.63 14.28h-9.27z" stroke="#333" fill="#333"/><path d="M1139 1249.5h-8.5a12 12 0 0 1-12-12V1172a12 12 0 0 0-12-12h-13.83c0-2.76-2.24-5-5-5-2.77 0-5 2.24-5 5H960.33c0-2.76-2.24-5-5-5s-5 2.24-5 5H762a12 12 0 0 0-12 12v191.12" stroke="#333" fill="none"/><path d="M1139.5 1250h-.5v-1h.5z" stroke="#333" stroke-width=".05" fill="#333"/><path d="M750 1377.88l-4.63-14.26h9.26z" stroke="#333" fill="#333"/><path d="M1301 1249.5h194c0-2.77 2.24-5 5-5s5 2.23 5 5h413a12 12 0 0 0 12-12V541.72a12 12 0 0 0-12-12h-121.12" stroke="#333" fill="none"/><path d="M1301 1250h-.5v-1h.5z" stroke="#333" stroke-width=".05" fill="#333"/><path d="M1782.12 529.73l14.26-4.63v9.27z" stroke="#333" fill="#333"/><path d="M1036.33 1439H1048a12 12 0 0 0 12-12v-77.76c-2.76 0-5-2.24-5-5s2.24-5 5-5V1165c-2.76 0-5-2.24-5-5s2.24-5 5-5V799.87c-2.76 0-5-2.24-5-5 0-2.77 2.24-5 5-5V641.8a12 12 0 0 1 12-12h43.38a4.62 4.62 0 0 0 4.62-4.6" stroke="#333" fill="none"/><path d="M1036.35 1439.5h-.52v-1h.52z" stroke="#333" stroke-width=".05" fill="#333"/><path d="M1120 610.42l4.63 14.27h-9.27z" stroke="#333" fill="#333"/><path d="M1240 2108a8 8 0 0 1 8-8h144a8 8 0 0 1 8 8v104a8 8 0 0 1-8 8h-144a8 8 0 0 1-8-8z" stroke="#333" fill="#fff"/><path d="M1390 2110h-15v20h15z" stroke="#333" fill="#fff"/><path d="M1380 2113.33h-10v3.34h10zm0 10h-10v3.34h10z" stroke="#333" fill="#fff"/><g><use xlink:href="#al" transform="matrix(1,0,0,1,1240,2100) translate(23.62999999999999 51.9)"/><use xlink:href="#am" transform="matrix(1,0,0,1,1240,2100) translate(61.029999999999994 73.5)"/></g><path d="M1320 2099v-118.34a12 12 0 0 0-12-12h-95.78" stroke="#333" fill="none"/><path d="M1320.5 2099.5h-1v-.5h1z" stroke="#333" stroke-width=".05" fill="#333"/><path d="M1197.45 1968.66l14.27-4.63v9.27z" stroke="#333" fill="#333"/><path d="M1301 1060h129.83a9.17 9.17 0 0 1 9.17 9.17 9.17 9.17 0 0 0 9.17 9.17H1495c0-2.76 2.24-5 5-5s5 2.24 5 5h58.12" stroke="#333" fill="none"/><path d="M1301 1060.5h-.5v-1h.5z" stroke="#333" stroke-width=".05" fill="#333"/><path d="M1577.88 1078.34l-14.26 4.64v-9.27z" stroke="#333" fill="#333"/><path d="M991 548.3h32.12" stroke="#333" fill="none"/><path d="M991 548.8h-.5v-1h.5z" stroke="#333" stroke-width=".05" fill="#333"/><path d="M1037.88 548.3l-14.26 4.64v-9.27z" stroke="#333" fill="#333"/><path d="M1310 485.2" stroke="#333" fill="none"/><path stroke="#333" stroke-width=".05" fill="#333"/><path d="M1310 486.82l4.63 14.26h-9.27z" stroke="#333" fill="#333"/><path d="M1140 1548a8 8 0 0 1 8-8h144a8 8 0 0 1 8 8v104a8 8 0 0 1-8 8h-144a8 8 0 0 1-8-8z" stroke="#333" fill="#fff"/><path d="M1290 1550h-15v20h15z" stroke="#333" fill="#fff"/><path d="M1280 1553.33h-10v3.34h10zm0 10h-10v3.34h10z" stroke="#333" fill="#fff"/><g><use xlink:href="#al" transform="matrix(1,0,0,1,1140,1540) translate(23.62999999999999 51.9)"/><use xlink:href="#an" transform="matrix(1,0,0,1,1140,1540) translate(37.055 73.5)"/><use xlink:href="#ao" transform="matrix(1,0,0,1,1140,1540) translate(80.005 73.5)"/></g><path d="M1036.33 1600h86.8M1035.83 1600" stroke="#333" fill="none"/><path d="M1137.88 1600l-14.27 4.63.02-9.27z" stroke="#333" fill="#333"/><path d="M1040 2288a8 8 0 0 1 8-8h144a8 8 0 0 1 8 8v104a8 8 0 0 1-8 8h-144a8 8 0 0 1-8-8z" stroke="#333" fill="#fff"/><path d="M1190 2290h-15v20h15z" stroke="#333" fill="#fff"/><path d="M1180 2293.33h-10v3.34h10zm0 10h-10v3.34h10z" stroke="#333" fill="#fff"/><g><use xlink:href="#ap" transform="matrix(1,0,0,1,1040,2280) translate(63.029999999999994 63.15)"/></g><path d="M1240 2288a8 8 0 0 1 8-8h144a8 8 0 0 1 8 8v104a8 8 0 0 1-8 8h-144a8 8 0 0 1-8-8z" stroke="#333" fill="#fff"/><path d="M1390 2290h-15v20h15z" stroke="#333" fill="#fff"/><path d="M1380 2293.33h-10v3.34h10zm0 10h-10v3.34h10z" stroke="#333" fill="#fff"/><g><use xlink:href="#aq" transform="matrix(1,0,0,1,1240,2280) translate(59.005 51.9)"/><use xlink:href="#ar" transform="matrix(1,0,0,1,1240,2280) translate(27.554999999999993 73.5)"/></g><path d="M1120 2279v-42.12" stroke="#333" fill="none"/><path d="M1120.5 2279.5h-1v-.5h1z" stroke="#333" stroke-width=".05" fill="#333"/><path d="M1120 2222.12l4.63 14.26h-9.27z" stroke="#333" fill="#333"/><defs><path fill="#333" d="M212-179c-10-28-35-45-73-45-59 0-87 40-87 99 0 60 29 101 89 101 43 0 62-24 78-52l27 14C228-24 195 4 139 4 59 4 22-46 18-125c-6-104 99-153 187-111 19 9 31 26 39 46" id="as"/><path fill="#333" d="M24-231v-30h32v30H24zM24 0v-190h32V0H24" id="at"/><path fill="#333" d="M59-47c-2 24 18 29 38 22v24C64 9 27 4 27-40v-127H5v-23h24l9-43h21v43h35v23H59v120" id="au"/><path fill="#333" d="M179-190L93 31C79 59 56 82 12 73V49c39 6 53-20 64-50L1-190h34L92-34l54-156h33" id="av"/><path fill="#333" d="M141-36C126-15 110 5 73 4 37 3 15-17 15-53c-1-64 63-63 125-63 3-35-9-54-41-54-24 1-41 7-42 31l-33-3c5-37 33-52 76-52 45 0 72 20 72 64v82c-1 20 7 32 28 27v20c-31 9-61-2-59-35zM48-53c0 20 12 33 32 33 41-3 63-29 60-74-43 2-92-5-92 41" id="aw"/><path fill="#333" d="M24 0v-261h32V0H24" id="ax"/><path fill="#333" d="M135-143c-3-34-86-38-87 0 15 53 115 12 119 90S17 21 10-45l28-5c4 36 97 45 98 0-10-56-113-15-118-90-4-57 82-63 122-42 12 7 21 19 24 35" id="ay"/><g id="a"><use transform="matrix(0.05,0,0,0.05,0,0)" xlink:href="#as"/><use transform="matrix(0.05,0,0,0.05,12.950000000000001,0)" xlink:href="#at"/><use transform="matrix(0.05,0,0,0.05,16.900000000000002,0)" xlink:href="#au"/><use transform="matrix(0.05,0,0,0.05,21.900000000000002,0)" xlink:href="#av"/><use transform="matrix(0.05,0,0,0.05,30.900000000000002,0)" xlink:href="#as"/><use transform="matrix(0.05,0,0,0.05,43.85,0)" xlink:href="#aw"/><use transform="matrix(0.05,0,0,0.05,53.85,0)" xlink:href="#au"/><use transform="matrix(0.05,0,0,0.05,58.85,0)" xlink:href="#aw"/><use transform="matrix(0.05,0,0,0.05,68.85,0)" xlink:href="#ax"/><use transform="matrix(0.05,0,0,0.05,72.8,0)" xlink:href="#av"/><use transform="matrix(0.05,0,0,0.05,81.8,0)" xlink:href="#ay"/><use transform="matrix(0.05,0,0,0.05,90.8,0)" xlink:href="#au"/></g><path fill="#333" d="M185-189c-5-48-123-54-124 2 14 75 158 14 163 119 3 78-121 87-175 55-17-10-28-26-33-46l33-7c5 56 141 63 141-1 0-78-155-14-162-118-5-82 145-84 179-34 5 7 8 16 11 25" id="az"/><path fill="#333" d="M100-194c63 0 86 42 84 106H49c0 40 14 67 53 68 26 1 43-12 49-29l28 8c-11 28-37 45-77 45C44 4 14-33 15-96c1-61 26-98 85-98zm52 81c6-60-76-77-97-28-3 7-6 17-6 28h103" id="aA"/><path fill="#333" d="M114-163C36-179 61-72 57 0H25l-1-190h30c1 12-1 29 2 39 6-27 23-49 58-41v29" id="aB"/><path fill="#333" d="M108 0H70L1-190h34L89-25l56-165h34" id="aC"/><g id="b"><use transform="matrix(0.05,0,0,0.05,0,0)" xlink:href="#az"/><use transform="matrix(0.05,0,0,0.05,12,0)" xlink:href="#aA"/><use transform="matrix(0.05,0,0,0.05,22,0)" xlink:href="#aB"/><use transform="matrix(0.05,0,0,0.05,27.950000000000003,0)" xlink:href="#aC"/><use transform="matrix(0.05,0,0,0.05,36.95,0)" xlink:href="#aA"/><use transform="matrix(0.05,0,0,0.05,46.95,0)" xlink:href="#aB"/></g><path fill="#333" d="M140-251c81 0 123 46 123 126C263-46 219 4 140 4 59 4 17-45 17-125s42-126 123-126zm0 227c63 0 89-41 89-101s-29-99-89-99c-61 0-89 39-89 99S79-25 140-24" id="aD"/><path fill="#333" d="M115-194c55 1 70 41 70 98S169 2 115 4C84 4 66-9 55-30l1 105H24l-1-265h31l2 30c10-21 28-34 59-34zm-8 174c40 0 45-34 45-75s-6-73-45-74c-42 0-51 32-51 76 0 43 10 73 51 73" id="aE"/><path fill="#333" d="M117-194c89-4 53 116 60 194h-32v-121c0-31-8-49-39-48C34-167 62-67 57 0H25l-1-190h30c1 10-1 24 2 32 11-22 29-35 61-36" id="aF"/><path fill="#333" d="M210-169c-67 3-38 105-44 169h-31v-121c0-29-5-50-35-48C34-165 62-65 56 0H25l-1-190h30c1 10-1 24 2 32 10-44 99-50 107 0 11-21 27-35 58-36 85-2 47 119 55 194h-31v-121c0-29-5-49-35-48" id="aG"/><g id="c"><use transform="matrix(0.05,0,0,0.05,0,0)" xlink:href="#aD"/><use transform="matrix(0.05,0,0,0.05,14,0)" xlink:href="#aE"/><use transform="matrix(0.05,0,0,0.05,24,0)" xlink:href="#aA"/><use transform="matrix(0.05,0,0,0.05,34,0)" xlink:href="#aF"/><use transform="matrix(0.05,0,0,0.05,44,0)" xlink:href="#as"/><use transform="matrix(0.05,0,0,0.05,56.95,0)" xlink:href="#ax"/><use transform="matrix(0.05,0,0,0.05,60.900000000000006,0)" xlink:href="#at"/><use transform="matrix(0.05,0,0,0.05,64.85000000000001,0)" xlink:href="#aG"/><use transform="matrix(0.05,0,0,0.05,79.80000000000001,0)" xlink:href="#aw"/><use transform="matrix(0.05,0,0,0.05,89.80000000000001,0)" xlink:href="#au"/><use transform="matrix(0.05,0,0,0.05,94.80000000000001,0)" xlink:href="#aA"/></g><path fill="#333" d="M30 0v-248h187v28H63v79h144v27H63v87h162V0H30" id="aH"/><g id="d"><use transform="matrix(0.05,0,0,0.05,0,0)" xlink:href="#aH"/><use transform="matrix(0.05,0,0,0.05,12,0)" xlink:href="#aF"/><use transform="matrix(0.05,0,0,0.05,22,0)" xlink:href="#au"/><use transform="matrix(0.05,0,0,0.05,27,0)" xlink:href="#aA"/><use transform="matrix(0.05,0,0,0.05,37,0)" xlink:href="#aB"/><use transform="matrix(0.05,0,0,0.05,42.95,0)" xlink:href="#aE"/><use transform="matrix(0.05,0,0,0.05,52.95,0)" xlink:href="#aB"/><use transform="matrix(0.05,0,0,0.05,58.900000000000006,0)" xlink:href="#at"/><use transform="matrix(0.05,0,0,0.05,62.85,0)" xlink:href="#ay"/><use transform="matrix(0.05,0,0,0.05,71.85000000000001,0)" xlink:href="#aA"/></g><path fill="#333" d="M190 0L58-211 59 0H30v-248h39L202-35l-2-213h31V0h-41" id="aI"/><path fill="#333" d="M206 0h-36l-40-164L89 0H53L-1-190h32L70-26l43-164h34l41 164 42-164h31" id="aJ"/><path fill="#333" d="M100-194c62-1 85 37 85 99 1 63-27 99-86 99S16-35 15-95c0-66 28-99 85-99zM99-20c44 1 53-31 53-75 0-43-8-75-51-75s-53 32-53 75 10 74 51 75" id="aK"/><path fill="#333" d="M143 0L79-87 56-68V0H24v-261h32v163l83-92h37l-77 82L181 0h-38" id="aL"/><g id="e"><use transform="matrix(0.05,0,0,0.05,0,0)" xlink:href="#aI"/><use transform="matrix(0.05,0,0,0.05,12.950000000000001,0)" xlink:href="#aA"/><use transform="matrix(0.05,0,0,0.05,22.950000000000003,0)" xlink:href="#au"/><use transform="matrix(0.05,0,0,0.05,27.950000000000003,0)" xlink:href="#aJ"/><use transform="matrix(0.05,0,0,0.05,40.900000000000006,0)" xlink:href="#aK"/><use transform="matrix(0.05,0,0,0.05,50.900000000000006,0)" xlink:href="#aB"/><use transform="matrix(0.05,0,0,0.05,56.85,0)" xlink:href="#aL"/></g><path fill="#333" d="M30 0v-248h33v221h125V0H30" id="aM"/><path fill="#333" d="M240 0l2-218c-23 76-54 145-80 218h-23L58-218 59 0H30v-248h44l77 211c21-75 51-140 76-211h43V0h-30" id="aN"/><g id="f"><use transform="matrix(0.05,0,0,0.05,0,0)" xlink:href="#aM"/><use transform="matrix(0.05,0,0,0.05,10,0)" xlink:href="#aM"/><use transform="matrix(0.05,0,0,0.05,20,0)" xlink:href="#aN"/></g><path fill="#333" d="M30-248c87 1 191-15 191 75 0 78-77 80-158 76V0H30v-248zm33 125c57 0 124 11 124-50 0-59-68-47-124-48v98" id="aO"/><path fill="#333" d="M85-194c31 0 48 13 60 33l-1-100h32l1 261h-30c-2-10 0-23-3-31C134-8 116 4 85 4 32 4 16-35 15-94c0-66 23-100 70-100zm9 24c-40 0-46 34-46 75 0 40 6 74 45 74 42 0 51-32 51-76 0-42-9-74-50-73" id="aP"/><g id="g"><use transform="matrix(0.05,0,0,0.05,0,0)" xlink:href="#aO"/><use transform="matrix(0.05,0,0,0.05,12,0)" xlink:href="#aB"/><use transform="matrix(0.05,0,0,0.05,17.95,0)" xlink:href="#aK"/><use transform="matrix(0.05,0,0,0.05,27.950000000000003,0)" xlink:href="#aC"/><use transform="matrix(0.05,0,0,0.05,36.95,0)" xlink:href="#at"/><use transform="matrix(0.05,0,0,0.05,40.900000000000006,0)" xlink:href="#aP"/><use transform="matrix(0.05,0,0,0.05,50.900000000000006,0)" xlink:href="#aA"/><use transform="matrix(0.05,0,0,0.05,60.900000000000006,0)" xlink:href="#aB"/></g><path fill="#333" d="M127-220V0H93v-220H8v-28h204v28h-85" id="aQ"/><path fill="#333" d="M106-169C34-169 62-67 57 0H25v-261h32l-1 103c12-21 28-36 61-36 89 0 53 116 60 194h-32v-121c2-32-8-49-39-48" id="aR"/><path fill="#333" d="M16-82v-28h88v28H16" id="aS"/><g id="h"><use transform="matrix(0.05,0,0,0.05,0,0)" xlink:href="#aQ"/><use transform="matrix(0.05,0,0,0.05,10.950000000000001,0)" xlink:href="#aR"/><use transform="matrix(0.05,0,0,0.05,20.950000000000003,0)" xlink:href="#at"/><use transform="matrix(0.05,0,0,0.05,24.900000000000002,0)" xlink:href="#aB"/><use transform="matrix(0.05,0,0,0.05,30.85,0)" xlink:href="#aP"/><use transform="matrix(0.05,0,0,0.05,40.85,0)" xlink:href="#aS"/><use transform="matrix(0.05,0,0,0.05,46.800000000000004,0)" xlink:href="#aO"/><use transform="matrix(0.05,0,0,0.05,58.800000000000004,0)" xlink:href="#aw"/><use transform="matrix(0.05,0,0,0.05,68.80000000000001,0)" xlink:href="#aB"/><use transform="matrix(0.05,0,0,0.05,74.75000000000001,0)" xlink:href="#au"/><use transform="matrix(0.05,0,0,0.05,79.75000000000001,0)" xlink:href="#av"/></g><path fill="#333" d="M96-169c-40 0-48 33-48 73s9 75 48 75c24 0 41-14 43-38l32 2c-6 37-31 61-74 61-59 0-76-41-82-99-10-93 101-131 147-64 4 7 5 14 7 22l-32 3c-4-21-16-35-41-35" id="aT"/><g id="i"><use transform="matrix(0.05,0,0,0.05,0,0)" xlink:href="#az"/><use transform="matrix(0.05,0,0,0.05,12,0)" xlink:href="#aA"/><use transform="matrix(0.05,0,0,0.05,22,0)" xlink:href="#aB"/><use transform="matrix(0.05,0,0,0.05,27.950000000000003,0)" xlink:href="#aC"/><use transform="matrix(0.05,0,0,0.05,36.95,0)" xlink:href="#at"/><use transform="matrix(0.05,0,0,0.05,40.900000000000006,0)" xlink:href="#aT"/><use transform="matrix(0.05,0,0,0.05,49.900000000000006,0)" xlink:href="#aA"/><use transform="matrix(0.05,0,0,0.05,59.900000000000006,0)" xlink:href="#ay"/></g><path fill="#333" d="M143 4C61 4 22-44 18-125c-5-107 100-154 193-111 17 8 29 25 37 43l-32 9c-13-25-37-40-76-40-61 0-88 39-88 99 0 61 29 100 91 101 35 0 62-11 79-27v-45h-74v-28h105v86C228-13 192 4 143 4" id="aU"/><path fill="#333" d="M115-194c53 0 69 39 70 98 0 66-23 100-70 100C84 3 66-7 56-30L54 0H23l1-261h32v101c10-23 28-34 59-34zm-8 174c40 0 45-34 45-75 0-40-5-75-45-74-42 0-51 32-51 76 0 43 10 73 51 73" id="aV"/><g id="j"><use transform="matrix(0.05,0,0,0.05,0,0)" xlink:href="#aU"/><use transform="matrix(0.05,0,0,0.05,14,0)" xlink:href="#ax"/><use transform="matrix(0.05,0,0,0.05,17.95,0)" xlink:href="#aK"/><use transform="matrix(0.05,0,0,0.05,27.950000000000003,0)" xlink:href="#aV"/><use transform="matrix(0.05,0,0,0.05,37.95,0)" xlink:href="#aw"/><use transform="matrix(0.05,0,0,0.05,47.95,0)" xlink:href="#ax"/></g><path fill="#a9afb8" d="M67-125c0 53 21 87 73 88 37 1 54-22 65-47l45 17C233-25 199 4 140 4 58 4 20-42 15-125 8-235 124-281 211-232c18 10 29 29 36 50l-46 12c-8-25-30-41-62-41-52 0-71 34-72 86" id="aW"/><path fill="#a9afb8" d="M25-224v-37h50v37H25zM25 0v-190h50V0H25" id="aX"/><path fill="#a9afb8" d="M115-3C79 11 28 4 28-45v-112H4v-33h27l15-45h31v45h36v33H77v99c-1 23 16 31 38 25v30" id="aY"/><path fill="#a9afb8" d="M123 10C108 53 80 86 19 72V37c35 8 53-11 59-39L3-190h52l48 148c12-52 28-100 44-148h51" id="aZ"/><path fill="#a9afb8" d="M133-34C117-15 103 5 69 4 32 3 11-16 11-54c-1-60 55-63 116-61 1-26-3-47-28-47-18 1-26 9-28 27l-52-2c7-38 36-58 82-57s74 22 75 68l1 82c-1 14 12 18 25 15v27c-30 8-71 5-69-32zm-48 3c29 0 43-24 42-57-32 0-66-3-65 30 0 17 8 27 23 27" id="ba"/><path fill="#a9afb8" d="M25 0v-261h50V0H25" id="bb"/><path fill="#a9afb8" d="M137-138c1-29-70-34-71-4 15 46 118 7 119 86 1 83-164 76-172 9l43-7c4 19 20 25 44 25 33 8 57-30 24-41C81-84 22-81 20-136c-2-80 154-74 161-7" id="bc"/><g id="k"><use transform="matrix(0.0728395061728395,0,0,0.0728395061728395,0,0)" xlink:href="#aW"/><use transform="matrix(0.0728395061728395,0,0,0.0728395061728395,18.86543209876543,0)" xlink:href="#aX"/><use transform="matrix(0.0728395061728395,0,0,0.0728395061728395,26.14938271604938,0)" xlink:href="#aY"/><use transform="matrix(0.0728395061728395,0,0,0.0728395061728395,34.81728395061728,0)" xlink:href="#aZ"/><use transform="matrix(0.0728395061728395,0,0,0.0728395061728395,49.38518518518518,0)" xlink:href="#aW"/><use transform="matrix(0.0728395061728395,0,0,0.0728395061728395,68.25061728395062,0)" xlink:href="#ba"/><use transform="matrix(0.0728395061728395,0,0,0.0728395061728395,82.81851851851852,0)" xlink:href="#aY"/><use transform="matrix(0.0728395061728395,0,0,0.0728395061728395,91.48641975308642,0)" xlink:href="#ba"/><use transform="matrix(0.0728395061728395,0,0,0.0728395061728395,106.05432098765432,0)" xlink:href="#bb"/><use transform="matrix(0.0728395061728395,0,0,0.0728395061728395,113.33827160493827,0)" xlink:href="#aZ"/><use transform="matrix(0.0728395061728395,0,0,0.0728395061728395,127.90617283950617,0)" xlink:href="#bc"/><use transform="matrix(0.0728395061728395,0,0,0.0728395061728395,142.47407407407408,0)" xlink:href="#aY"/></g><path fill="#a9afb8" d="M110-194c64 0 96 36 96 99 0 64-35 99-97 99-61 0-95-36-95-99 0-62 34-99 96-99zm-1 164c35 0 45-28 45-65 0-40-10-65-43-65-34 0-45 26-45 65 0 36 10 65 43 65" id="bd"/><path fill="#a9afb8" d="M220-157c-53 9-28 100-34 157h-49v-107c1-27-5-49-29-50C55-147 81-57 75 0H25l-1-190h47c2 12-1 28 3 38 10-53 101-56 108 0 13-22 24-43 59-42 82 1 51 116 57 194h-49v-107c-1-25-5-48-29-50" id="be"/><path fill="#a9afb8" d="M135-194c53 0 70 44 70 98 0 56-19 98-73 100-31 1-45-17-59-34 3 33 2 69 2 105H25l-1-265h48c2 10 0 23 3 31 11-24 29-35 60-35zM114-30c33 0 39-31 40-66 0-38-9-64-40-64-56 0-55 130 0 130" id="bf"/><path fill="#a9afb8" d="M135-194c87-1 58 113 63 194h-50c-7-57 23-157-34-157-59 0-34 97-39 157H25l-1-190h47c2 12-1 28 3 38 12-26 28-41 61-42" id="bg"/><path fill="#a9afb8" d="M185-48c-13 30-37 53-82 52C43 2 14-33 14-96s30-98 90-98c62 0 83 45 84 108H66c0 31 8 55 39 56 18 0 30-7 34-22zm-45-69c5-46-57-63-70-21-2 6-4 13-4 21h74" id="bh"/><g id="l"><use transform="matrix(0.0728395061728395,0,0,0.0728395061728395,0,0)" xlink:href="#aW"/><use transform="matrix(0.0728395061728395,0,0,0.0728395061728395,18.86543209876543,0)" xlink:href="#bd"/><use transform="matrix(0.0728395061728395,0,0,0.0728395061728395,34.81728395061728,0)" xlink:href="#be"/><use transform="matrix(0.0728395061728395,0,0,0.0728395061728395,58.12592592592593,0)" xlink:href="#bf"/><use transform="matrix(0.0728395061728395,0,0,0.0728395061728395,74.07777777777778,0)" xlink:href="#bd"/><use transform="matrix(0.0728395061728395,0,0,0.0728395061728395,90.02962962962964,0)" xlink:href="#bg"/><use transform="matrix(0.0728395061728395,0,0,0.0728395061728395,105.9814814814815,0)" xlink:href="#bh"/><use transform="matrix(0.0728395061728395,0,0,0.0728395061728395,120.5493827160494,0)" xlink:href="#bg"/><use transform="matrix(0.0728395061728395,0,0,0.0728395061728395,136.50123456790124,0)" xlink:href="#aY"/><use transform="matrix(0.0728395061728395,0,0,0.0728395061728395,145.16913580246913,0)" xlink:href="#bc"/></g><path fill="#a9afb8" d="M30 0v-248h187v28H63v79h144v27H63v87h162V0H30" id="bi"/><path fill="#a9afb8" d="M108 0H70L1-190h34L89-25l56-165h34" id="bj"/><path fill="#a9afb8" d="M141-36C126-15 110 5 73 4 37 3 15-17 15-53c-1-64 63-63 125-63 3-35-9-54-41-54-24 1-41 7-42 31l-33-3c5-37 33-52 76-52 45 0 72 20 72 64v82c-1 20 7 32 28 27v20c-31 9-61-2-59-35zM48-53c0 20 12 33 32 33 41-3 63-29 60-74-43 2-92-5-92 41" id="bk"/><path fill="#a9afb8" d="M117-194c89-4 53 116 60 194h-32v-121c0-31-8-49-39-48C34-167 62-67 57 0H25l-1-190h30c1 10-1 24 2 32 11-22 29-35 61-36" id="bl"/><g id="m"><use transform="matrix(0.04248971193415638,0,0,0.04248971193415638,0,0)" xlink:href="#bi"/><use transform="matrix(0.04248971193415638,0,0,0.04248971193415638,10.19753086419753,0)" xlink:href="#bj"/><use transform="matrix(0.04248971193415638,0,0,0.04248971193415638,17.845679012345677,0)" xlink:href="#bk"/><use transform="matrix(0.04248971193415638,0,0,0.04248971193415638,26.343621399176953,0)" xlink:href="#bl"/></g><path fill="#a9afb8" d="M30-248c87 1 191-15 191 75 0 78-77 80-158 76V0H30v-248zm33 125c57 0 124 11 124-50 0-59-68-47-124-48v98" id="bm"/><path fill="#a9afb8" d="M114-163C36-179 61-72 57 0H25l-1-190h30c1 12-1 29 2 39 6-27 23-49 58-41v29" id="bn"/><path fill="#a9afb8" d="M100-194c62-1 85 37 85 99 1 63-27 99-86 99S16-35 15-95c0-66 28-99 85-99zM99-20c44 1 53-31 53-75 0-43-8-75-51-75s-53 32-53 75 10 74 51 75" id="bo"/><path fill="#a9afb8" d="M85-194c31 0 48 13 60 33l-1-100h32l1 261h-30c-2-10 0-23-3-31C134-8 116 4 85 4 32 4 16-35 15-94c0-66 23-100 70-100zm9 24c-40 0-46 34-46 75 0 40 6 74 45 74 42 0 51-32 51-76 0-42-9-74-50-73" id="bp"/><path fill="#a9afb8" d="M210-169c-67 3-38 105-44 169h-31v-121c0-29-5-50-35-48C34-165 62-65 56 0H25l-1-190h30c1 10-1 24 2 32 10-44 99-50 107 0 11-21 27-35 58-36 85-2 47 119 55 194h-31v-121c0-29-5-49-35-48" id="bq"/><path fill="#a9afb8" d="M84 4C-5 8 30-112 23-190h32v120c0 31 7 50 39 49 72-2 45-101 50-169h31l1 190h-30c-1-10 1-25-2-33-11 22-28 36-60 37" id="br"/><g id="n"><use transform="matrix(0.04248971193415638,0,0,0.04248971193415638,0,0)" xlink:href="#bm"/><use transform="matrix(0.04248971193415638,0,0,0.04248971193415638,10.19753086419753,0)" xlink:href="#bn"/><use transform="matrix(0.04248971193415638,0,0,0.04248971193415638,15.25380658436214,0)" xlink:href="#bo"/><use transform="matrix(0.04248971193415638,0,0,0.04248971193415638,23.751748971193415,0)" xlink:href="#bp"/><use transform="matrix(0.04248971193415638,0,0,0.04248971193415638,32.24969135802469,0)" xlink:href="#bn"/><use transform="matrix(0.04248971193415638,0,0,0.04248971193415638,37.3059670781893,0)" xlink:href="#bo"/><use transform="matrix(0.04248971193415638,0,0,0.04248971193415638,45.803909465020574,0)" xlink:href="#bq"/><use transform="matrix(0.04248971193415638,0,0,0.04248971193415638,58.50833333333333,0)" xlink:href="#bo"/><use transform="matrix(0.04248971193415638,0,0,0.04248971193415638,67.00627572016461,0)" xlink:href="#br"/></g><path fill="#a9afb8" d="M32 76v-337h29V76H32" id="bs"/><use transform="matrix(0.04248971193415638,0,0,0.04248971193415638,0,0)" xlink:href="#bs" id="o"/><path fill="#a9afb8" d="M240 0l2-218c-23 76-54 145-80 218h-23L58-218 59 0H30v-248h44l77 211c21-75 51-140 76-211h43V0h-30" id="bt"/><path fill="#a9afb8" d="M179-190L93 31C79 59 56 82 12 73V49c39 6 53-20 64-50L1-190h34L92-34l54-156h33" id="bu"/><g id="p"><use transform="matrix(0.04248971193415638,0,0,0.04248971193415638,0,0)" xlink:href="#bt"/><use transform="matrix(0.04248971193415638,0,0,0.04248971193415638,12.704423868312757,0)" xlink:href="#bk"/><use transform="matrix(0.04248971193415638,0,0,0.04248971193415638,21.20236625514403,0)" xlink:href="#bu"/></g><path fill="#a9afb8" d="M101-251c82-7 93 87 43 132L82-64C71-53 59-42 53-27h129V0H18c2-99 128-94 128-182 0-28-16-43-45-43s-46 15-49 41l-32-3c6-41 34-60 81-64" id="bv"/><path fill="#a9afb8" d="M68-38c1 34 0 65-14 84H32c9-13 17-26 17-46H33v-38h35" id="bw"/><g id="q"><use transform="matrix(0.04248971193415638,0,0,0.04248971193415638,0,0)" xlink:href="#bv"/><use transform="matrix(0.04248971193415638,0,0,0.04248971193415638,8.497942386831275,0)" xlink:href="#bv"/><use transform="matrix(0.04248971193415638,0,0,0.04248971193415638,16.99588477366255,0)" xlink:href="#bw"/></g><path fill="#a9afb8" d="M101-251c68 0 85 55 85 127S166 4 100 4C33 4 14-52 14-124c0-73 17-127 87-127zm-1 229c47 0 54-49 54-102s-4-102-53-102c-51 0-55 48-55 102 0 53 5 102 54 102" id="bx"/><path fill="#a9afb8" d="M126-127c33 6 58 20 58 59 0 88-139 92-164 29-3-8-5-16-6-25l32-3c6 27 21 44 54 44 32 0 52-15 52-46 0-38-36-46-79-43v-28c39 1 72-4 72-42 0-27-17-43-46-43-28 0-47 15-49 41l-32-3c6-42 35-63 81-64 48-1 79 21 79 65 0 36-21 52-52 59" id="by"/><g id="r"><use transform="matrix(0.04248971193415638,0,0,0.04248971193415638,0,0)" xlink:href="#bv"/><use transform="matrix(0.04248971193415638,0,0,0.04248971193415638,8.497942386831275,0)" xlink:href="#bx"/><use transform="matrix(0.04248971193415638,0,0,0.04248971193415638,16.99588477366255,0)" xlink:href="#bv"/><use transform="matrix(0.04248971193415638,0,0,0.04248971193415638,25.493827160493822,0)" xlink:href="#by"/></g><g id="s"><use transform="matrix(0.05,0,0,0.05,0,0)" xlink:href="#aQ"/><use transform="matrix(0.05,0,0,0.05,10.950000000000001,0)" xlink:href="#aR"/><use transform="matrix(0.05,0,0,0.05,20.950000000000003,0)" xlink:href="#at"/><use transform="matrix(0.05,0,0,0.05,24.900000000000002,0)" xlink:href="#aB"/><use transform="matrix(0.05,0,0,0.05,30.85,0)" xlink:href="#aP"/></g><g id="t"><use transform="matrix(0.05,0,0,0.05,0,0)" xlink:href="#aO"/><use transform="matrix(0.05,0,0,0.05,12,0)" xlink:href="#aw"/><use transform="matrix(0.05,0,0,0.05,22,0)" xlink:href="#aB"/><use transform="matrix(0.05,0,0,0.05,27.950000000000003,0)" xlink:href="#au"/><use transform="matrix(0.05,0,0,0.05,32.95,0)" xlink:href="#av"/></g><path fill="#333" d="M30-248c118-7 216 8 213 122C240-48 200 0 122 0H30v-248zM63-27c89 8 146-16 146-99s-60-101-146-95v194" id="bz"/><g id="u"><use transform="matrix(0.05,0,0,0.05,0,0)" xlink:href="#bz"/><use transform="matrix(0.05,0,0,0.05,12.950000000000001,0)" xlink:href="#aw"/><use transform="matrix(0.05,0,0,0.05,22.950000000000003,0)" xlink:href="#au"/><use transform="matrix(0.05,0,0,0.05,27.950000000000003,0)" xlink:href="#aw"/></g><path fill="#333" d="M205 0l-28-72H64L36 0H1l101-248h38L239 0h-34zm-38-99l-47-123c-12 45-31 82-46 123h93" id="bA"/><path fill="#333" d="M33 0v-248h34V0H33" id="bB"/><g id="v"><use transform="matrix(0.05,0,0,0.05,0,0)" xlink:href="#bA"/><use transform="matrix(0.05,0,0,0.05,12,0)" xlink:href="#aO"/><use transform="matrix(0.05,0,0,0.05,24,0)" xlink:href="#bB"/></g><g id="w"><use transform="matrix(0.05,0,0,0.05,0,0)" xlink:href="#aO"/><use transform="matrix(0.05,0,0,0.05,12,0)" xlink:href="#aw"/><use transform="matrix(0.05,0,0,0.05,22,0)" xlink:href="#aB"/><use transform="matrix(0.05,0,0,0.05,27.950000000000003,0)" xlink:href="#au"/><use transform="matrix(0.05,0,0,0.05,32.95,0)" xlink:href="#av"/></g><g id="x"><use transform="matrix(0.05,0,0,0.05,0,0)" xlink:href="#bz"/><use transform="matrix(0.05,0,0,0.05,12.950000000000001,0)" xlink:href="#aw"/><use transform="matrix(0.05,0,0,0.05,22.950000000000003,0)" xlink:href="#au"/><use transform="matrix(0.05,0,0,0.05,27.950000000000003,0)" xlink:href="#aw"/><use transform="matrix(0.05,0,0,0.05,37.95,0)" xlink:href="#ay"/><use transform="matrix(0.05,0,0,0.05,46.95,0)" xlink:href="#aA"/><use transform="matrix(0.05,0,0,0.05,56.95,0)" xlink:href="#au"/><use transform="matrix(0.05,0,0,0.05,61.95,0)" xlink:href="#ay"/></g><g id="y"><use transform="matrix(0.05,0,0,0.05,0,0)" xlink:href="#bz"/><use transform="matrix(0.05,0,0,0.05,12.950000000000001,0)" xlink:href="#aw"/><use transform="matrix(0.05,0,0,0.05,22.950000000000003,0)" xlink:href="#au"/><use transform="matrix(0.05,0,0,0.05,27.950000000000003,0)" xlink:href="#aw"/></g><path fill="#333" d="M84 4C-5 8 30-112 23-190h32v120c0 31 7 50 39 49 72-2 45-101 50-169h31l1 190h-30c-1-10 1-25-2-33-11 22-28 36-60 37" id="bC"/><g id="z"><use transform="matrix(0.05,0,0,0.05,0,0)" xlink:href="#az"/><use transform="matrix(0.05,0,0,0.05,12,0)" xlink:href="#aK"/><use transform="matrix(0.05,0,0,0.05,22,0)" xlink:href="#bC"/><use transform="matrix(0.05,0,0,0.05,32,0)" xlink:href="#aB"/><use transform="matrix(0.05,0,0,0.05,37.95,0)" xlink:href="#aT"/><use transform="matrix(0.05,0,0,0.05,46.95,0)" xlink:href="#aA"/></g><path fill="#333" d="M177-190C167-65 218 103 67 71c-23-6-38-20-44-43l32-5c15 47 100 32 89-28v-30C133-14 115 1 83 1 29 1 15-40 15-95c0-56 16-97 71-98 29-1 48 16 59 35 1-10 0-23 2-32h30zM94-22c36 0 50-32 50-73 0-42-14-75-50-75-39 0-46 34-46 75s6 73 46 73" id="bD"/><g id="A"><use transform="matrix(0.05,0,0,0.05,0,0)" xlink:href="#as"/><use transform="matrix(0.05,0,0,0.05,12.950000000000001,0)" xlink:href="#aw"/><use transform="matrix(0.05,0,0,0.05,22.950000000000003,0)" xlink:href="#au"/><use transform="matrix(0.05,0,0,0.05,27.950000000000003,0)" xlink:href="#aw"/><use transform="matrix(0.05,0,0,0.05,37.95,0)" xlink:href="#ax"/><use transform="matrix(0.05,0,0,0.05,41.900000000000006,0)" xlink:href="#aK"/><use transform="matrix(0.05,0,0,0.05,51.900000000000006,0)" xlink:href="#bD"/></g><g id="B"><use transform="matrix(0.05,0,0,0.05,0,0)" xlink:href="#az"/><use transform="matrix(0.05,0,0,0.05,12,0)" xlink:href="#av"/><use transform="matrix(0.05,0,0,0.05,21,0)" xlink:href="#aF"/><use transform="matrix(0.05,0,0,0.05,31,0)" xlink:href="#aT"/></g><g id="C"><use transform="matrix(0.05,0,0,0.05,0,0)" xlink:href="#bz"/><use transform="matrix(0.05,0,0,0.05,12.950000000000001,0)" xlink:href="#aw"/><use transform="matrix(0.05,0,0,0.05,22.950000000000003,0)" xlink:href="#au"/><use transform="matrix(0.05,0,0,0.05,27.950000000000003,0)" xlink:href="#aw"/><use transform="matrix(0.05,0,0,0.05,37.95,0)" xlink:href="#ay"/><use transform="matrix(0.05,0,0,0.05,46.95,0)" xlink:href="#aA"/><use transform="matrix(0.05,0,0,0.05,56.95,0)" xlink:href="#au"/></g><path fill="#333" d="M141 0L90-78 38 0H4l68-98-65-92h35l48 74 47-74h35l-64 92 68 98h-35" id="bE"/><g id="D"><use transform="matrix(0.05,0,0,0.05,0,0)" xlink:href="#aO"/><use transform="matrix(0.05,0,0,0.05,12,0)" xlink:href="#aB"/><use transform="matrix(0.05,0,0,0.05,17.95,0)" xlink:href="#aK"/><use transform="matrix(0.05,0,0,0.05,27.950000000000003,0)" xlink:href="#bE"/><use transform="matrix(0.05,0,0,0.05,36.95,0)" xlink:href="#av"/></g><g id="E"><use transform="matrix(0.05,0,0,0.05,0,0)" xlink:href="#bz"/><use transform="matrix(0.05,0,0,0.05,12.950000000000001,0)" xlink:href="#aw"/><use transform="matrix(0.05,0,0,0.05,22.950000000000003,0)" xlink:href="#au"/><use transform="matrix(0.05,0,0,0.05,27.950000000000003,0)" xlink:href="#aw"/></g><g id="F"><use transform="matrix(0.05,0,0,0.05,0,0)" xlink:href="#aO"/><use transform="matrix(0.05,0,0,0.05,12,0)" xlink:href="#aw"/><use transform="matrix(0.05,0,0,0.05,22,0)" xlink:href="#av"/><use transform="matrix(0.05,0,0,0.05,31,0)" xlink:href="#aG"/><use transform="matrix(0.05,0,0,0.05,45.95,0)" xlink:href="#aA"/><use transform="matrix(0.05,0,0,0.05,55.95,0)" xlink:href="#aF"/><use transform="matrix(0.05,0,0,0.05,65.95,0)" xlink:href="#au"/></g><g id="G"><use transform="matrix(0.05,0,0,0.05,0,0)" xlink:href="#az"/><use transform="matrix(0.05,0,0,0.05,12,0)" xlink:href="#aA"/><use transform="matrix(0.05,0,0,0.05,22,0)" xlink:href="#aB"/><use transform="matrix(0.05,0,0,0.05,27.950000000000003,0)" xlink:href="#aC"/><use transform="matrix(0.05,0,0,0.05,36.95,0)" xlink:href="#at"/><use transform="matrix(0.05,0,0,0.05,40.900000000000006,0)" xlink:href="#aT"/><use transform="matrix(0.05,0,0,0.05,49.900000000000006,0)" xlink:href="#aA"/></g><g id="H"><use transform="matrix(0.05,0,0,0.05,0,0)" xlink:href="#bz"/><use transform="matrix(0.05,0,0,0.05,12.950000000000001,0)" xlink:href="#aw"/><use transform="matrix(0.05,0,0,0.05,22.950000000000003,0)" xlink:href="#au"/><use transform="matrix(0.05,0,0,0.05,27.950000000000003,0)" xlink:href="#aw"/></g><path fill="#333" d="M197 0v-115H63V0H30v-248h33v105h134v-105h34V0h-34" id="bF"/><path fill="#333" d="M9 0v-24l116-142H16v-24h144v24L44-24h123V0H9" id="bG"/><g id="I"><use transform="matrix(0.05,0,0,0.05,0,0)" xlink:href="#bF"/><use transform="matrix(0.05,0,0,0.05,12.950000000000001,0)" xlink:href="#aw"/><use transform="matrix(0.05,0,0,0.05,22.950000000000003,0)" xlink:href="#aB"/><use transform="matrix(0.05,0,0,0.05,28.900000000000002,0)" xlink:href="#aG"/><use transform="matrix(0.05,0,0,0.05,43.85,0)" xlink:href="#aK"/><use transform="matrix(0.05,0,0,0.05,53.85,0)" xlink:href="#aF"/><use transform="matrix(0.05,0,0,0.05,63.85,0)" xlink:href="#at"/><use transform="matrix(0.05,0,0,0.05,67.8,0)" xlink:href="#bG"/><use transform="matrix(0.05,0,0,0.05,76.8,0)" xlink:href="#aw"/><use transform="matrix(0.05,0,0,0.05,86.8,0)" xlink:href="#au"/><use transform="matrix(0.05,0,0,0.05,91.8,0)" xlink:href="#at"/><use transform="matrix(0.05,0,0,0.05,95.75,0)" xlink:href="#aK"/><use transform="matrix(0.05,0,0,0.05,105.75,0)" xlink:href="#aF"/></g><g id="J"><use transform="matrix(0.05,0,0,0.05,0,0)" xlink:href="#aD"/><use transform="matrix(0.05,0,0,0.05,14,0)" xlink:href="#aE"/><use transform="matrix(0.05,0,0,0.05,24,0)" xlink:href="#aA"/><use transform="matrix(0.05,0,0,0.05,34,0)" xlink:href="#aF"/><use transform="matrix(0.05,0,0,0.05,44,0)" xlink:href="#as"/><use transform="matrix(0.05,0,0,0.05,56.95,0)" xlink:href="#ax"/><use transform="matrix(0.05,0,0,0.05,60.900000000000006,0)" xlink:href="#at"/><use transform="matrix(0.05,0,0,0.05,64.85000000000001,0)" xlink:href="#aG"/><use transform="matrix(0.05,0,0,0.05,79.80000000000001,0)" xlink:href="#aw"/><use transform="matrix(0.05,0,0,0.05,89.80000000000001,0)" xlink:href="#au"/><use transform="matrix(0.05,0,0,0.05,94.80000000000001,0)" xlink:href="#aA"/></g><g id="K"><use transform="matrix(0.05,0,0,0.05,0,0)" xlink:href="#bA"/><use transform="matrix(0.05,0,0,0.05,12,0)" xlink:href="#bC"/><use transform="matrix(0.05,0,0,0.05,22,0)" xlink:href="#au"/><use transform="matrix(0.05,0,0,0.05,27,0)" xlink:href="#aR"/></g><path fill="#333" d="M266 0h-40l-56-210L115 0H75L2-248h35L96-30l15-64 43-154h32l59 218 59-218h35" id="bH"/><path fill="#333" d="M101-234c-31-9-42 10-38 44h38v23H63V0H32v-167H5v-23h27c-7-52 17-82 69-68v24" id="bI"/><g id="L"><use transform="matrix(0.05,0,0,0.05,0,0)" xlink:href="#bH"/><use transform="matrix(0.05,0,0,0.05,16.599999999999998,0)" xlink:href="#aK"/><use transform="matrix(0.05,0,0,0.05,26.599999999999994,0)" xlink:href="#aB"/><use transform="matrix(0.05,0,0,0.05,32.55,0)" xlink:href="#aL"/><use transform="matrix(0.05,0,0,0.05,41.55,0)" xlink:href="#bI"/><use transform="matrix(0.05,0,0,0.05,46.55,0)" xlink:href="#ax"/><use transform="matrix(0.05,0,0,0.05,50.5,0)" xlink:href="#aK"/><use transform="matrix(0.05,0,0,0.05,60.5,0)" xlink:href="#aJ"/></g><g id="M"><use transform="matrix(0.05,0,0,0.05,0,0)" xlink:href="#aH"/><use transform="matrix(0.05,0,0,0.05,12,0)" xlink:href="#aF"/><use transform="matrix(0.05,0,0,0.05,22,0)" xlink:href="#bD"/><use transform="matrix(0.05,0,0,0.05,32,0)" xlink:href="#at"/><use transform="matrix(0.05,0,0,0.05,35.95,0)" xlink:href="#aF"/><use transform="matrix(0.05,0,0,0.05,45.95,0)" xlink:href="#aA"/></g><g id="N"><use transform="matrix(0.05,0,0,0.05,0,0)" xlink:href="#bA"/><use transform="matrix(0.05,0,0,0.05,12,0)" xlink:href="#aO"/><use transform="matrix(0.05,0,0,0.05,24,0)" xlink:href="#bB"/></g><g id="O"><use transform="matrix(0.05,0,0,0.05,0,0)" xlink:href="#aT"/><use transform="matrix(0.05,0,0,0.05,9,0)" xlink:href="#ax"/><use transform="matrix(0.05,0,0,0.05,12.949999999999998,0)" xlink:href="#at"/><use transform="matrix(0.05,0,0,0.05,16.9,0)" xlink:href="#aA"/><use transform="matrix(0.05,0,0,0.05,26.899999999999995,0)" xlink:href="#aF"/><use transform="matrix(0.05,0,0,0.05,36.9,0)" xlink:href="#au"/></g><g id="P"><use transform="matrix(0.05,0,0,0.05,0,0)" xlink:href="#bB"/><use transform="matrix(0.05,0,0,0.05,5,0)" xlink:href="#aF"/><use transform="matrix(0.05,0,0,0.05,15,0)" xlink:href="#aC"/><use transform="matrix(0.05,0,0,0.05,24,0)" xlink:href="#aA"/><use transform="matrix(0.05,0,0,0.05,34,0)" xlink:href="#aF"/><use transform="matrix(0.05,0,0,0.05,44,0)" xlink:href="#au"/><use transform="matrix(0.05,0,0,0.05,49,0)" xlink:href="#aK"/><use transform="matrix(0.05,0,0,0.05,59,0)" xlink:href="#aB"/><use transform="matrix(0.05,0,0,0.05,64.95,0)" xlink:href="#av"/></g><g id="Q"><use transform="matrix(0.05,0,0,0.05,0,0)" xlink:href="#az"/><use transform="matrix(0.05,0,0,0.05,12,0)" xlink:href="#au"/><use transform="matrix(0.05,0,0,0.05,17,0)" xlink:href="#aK"/><use transform="matrix(0.05,0,0,0.05,27,0)" xlink:href="#aB"/><use transform="matrix(0.05,0,0,0.05,32.95,0)" xlink:href="#aw"/><use transform="matrix(0.05,0,0,0.05,42.95,0)" xlink:href="#bD"/><use transform="matrix(0.05,0,0,0.05,52.95,0)" xlink:href="#aA"/></g><g id="R"><use transform="matrix(0.05,0,0,0.05,0,0)" xlink:href="#as"/><use transform="matrix(0.05,0,0,0.05,12.950000000000001,0)" xlink:href="#aw"/><use transform="matrix(0.05,0,0,0.05,22.950000000000003,0)" xlink:href="#au"/><use transform="matrix(0.05,0,0,0.05,27.950000000000003,0)" xlink:href="#aw"/><use transform="matrix(0.05,0,0,0.05,37.95,0)" xlink:href="#ax"/><use transform="matrix(0.05,0,0,0.05,41.900000000000006,0)" xlink:href="#aK"/><use transform="matrix(0.05,0,0,0.05,51.900000000000006,0)" xlink:href="#bD"/></g><g id="S"><use transform="matrix(0.05,0,0,0.05,0,0)" xlink:href="#bF"/><use transform="matrix(0.05,0,0,0.05,12.950000000000001,0)" xlink:href="#aw"/><use transform="matrix(0.05,0,0,0.05,22.950000000000003,0)" xlink:href="#aB"/><use transform="matrix(0.05,0,0,0.05,28.900000000000002,0)" xlink:href="#aG"/><use transform="matrix(0.05,0,0,0.05,43.85,0)" xlink:href="#aK"/><use transform="matrix(0.05,0,0,0.05,53.85,0)" xlink:href="#aF"/><use transform="matrix(0.05,0,0,0.05,63.85,0)" xlink:href="#at"/><use transform="matrix(0.05,0,0,0.05,67.8,0)" xlink:href="#bG"/><use transform="matrix(0.05,0,0,0.05,76.8,0)" xlink:href="#aw"/><use transform="matrix(0.05,0,0,0.05,86.8,0)" xlink:href="#au"/><use transform="matrix(0.05,0,0,0.05,91.8,0)" xlink:href="#at"/><use transform="matrix(0.05,0,0,0.05,95.75,0)" xlink:href="#aK"/><use transform="matrix(0.05,0,0,0.05,105.75,0)" xlink:href="#aF"/></g><g id="T"><use transform="matrix(0.05,0,0,0.05,0,0)" xlink:href="#aM"/><use transform="matrix(0.05,0,0,0.05,10,0)" xlink:href="#aK"/><use transform="matrix(0.05,0,0,0.05,20,0)" xlink:href="#bD"/><use transform="matrix(0.05,0,0,0.05,30,0)" xlink:href="#at"/><use transform="matrix(0.05,0,0,0.05,33.95,0)" xlink:href="#aF"/></g><g id="U"><use transform="matrix(0.05,0,0,0.05,0,0)" xlink:href="#bH"/><use transform="matrix(0.05,0,0,0.05,16.599999999999998,0)" xlink:href="#aA"/><use transform="matrix(0.05,0,0,0.05,26.599999999999994,0)" xlink:href="#aV"/></g><g id="V"><use transform="matrix(0.05,0,0,0.05,0,0)" xlink:href="#as"/><use transform="matrix(0.05,0,0,0.05,12.950000000000001,0)" xlink:href="#ax"/><use transform="matrix(0.05,0,0,0.05,16.900000000000002,0)" xlink:href="#at"/><use transform="matrix(0.05,0,0,0.05,20.85,0)" xlink:href="#aA"/><use transform="matrix(0.05,0,0,0.05,30.85,0)" xlink:href="#aF"/><use transform="matrix(0.05,0,0,0.05,40.85,0)" xlink:href="#au"/></g><g id="W"><use transform="matrix(0.05,0,0,0.05,0,0)" xlink:href="#aQ"/><use transform="matrix(0.05,0,0,0.05,10.3,0)" xlink:href="#aB"/><use transform="matrix(0.05,0,0,0.05,16.25,0)" xlink:href="#aw"/><use transform="matrix(0.05,0,0,0.05,26.25,0)" xlink:href="#aF"/><use transform="matrix(0.05,0,0,0.05,36.25,0)" xlink:href="#ay"/><use transform="matrix(0.05,0,0,0.05,45.25,0)" xlink:href="#bI"/><use transform="matrix(0.05,0,0,0.05,50.25,0)" xlink:href="#aK"/><use transform="matrix(0.05,0,0,0.05,60.25,0)" xlink:href="#aB"/><use transform="matrix(0.05,0,0,0.05,66.2,0)" xlink:href="#aG"/><use transform="matrix(0.05,0,0,0.05,81.15,0)" xlink:href="#aw"/><use transform="matrix(0.05,0,0,0.05,91.15,0)" xlink:href="#au"/><use transform="matrix(0.05,0,0,0.05,96.15,0)" xlink:href="#at"/><use transform="matrix(0.05,0,0,0.05,100.10000000000001,0)" xlink:href="#aK"/><use transform="matrix(0.05,0,0,0.05,110.10000000000001,0)" xlink:href="#aF"/></g><g id="X"><use transform="matrix(0.05,0,0,0.05,0,0)" xlink:href="#bA"/><use transform="matrix(0.05,0,0,0.05,12,0)" xlink:href="#aO"/><use transform="matrix(0.05,0,0,0.05,24,0)" xlink:href="#bB"/></g><g id="Y"><use transform="matrix(0.05,0,0,0.05,0,0)" xlink:href="#ay"/><use transform="matrix(0.05,0,0,0.05,9,0)" xlink:href="#aA"/><use transform="matrix(0.05,0,0,0.05,19,0)" xlink:href="#aB"/><use transform="matrix(0.05,0,0,0.05,24.95,0)" xlink:href="#aC"/><use transform="matrix(0.05,0,0,0.05,33.95,0)" xlink:href="#at"/><use transform="matrix(0.05,0,0,0.05,37.900000000000006,0)" xlink:href="#aT"/><use transform="matrix(0.05,0,0,0.05,46.900000000000006,0)" xlink:href="#aA"/></g><g id="Z"><use transform="matrix(0.05,0,0,0.05,0,0)" xlink:href="#aN"/><use transform="matrix(0.05,0,0,0.05,14.950000000000001,0)" xlink:href="#aK"/><use transform="matrix(0.05,0,0,0.05,24.950000000000003,0)" xlink:href="#aP"/><use transform="matrix(0.05,0,0,0.05,34.95,0)" xlink:href="#aA"/><use transform="matrix(0.05,0,0,0.05,44.95,0)" xlink:href="#ax"/></g><path fill="#333" d="M232-93c-1 65-40 97-104 97C67 4 28-28 28-90v-158h33c8 89-33 224 67 224 102 0 64-133 71-224h33v155" id="bJ"/><g id="aa"><use transform="matrix(0.05,0,0,0.05,0,0)" xlink:href="#bJ"/><use transform="matrix(0.05,0,0,0.05,12.950000000000001,0)" xlink:href="#ay"/><use transform="matrix(0.05,0,0,0.05,21.950000000000003,0)" xlink:href="#aA"/><use transform="matrix(0.05,0,0,0.05,31.950000000000003,0)" xlink:href="#aB"/></g><g id="ab"><use transform="matrix(0.05,0,0,0.05,0,0)" xlink:href="#bJ"/><use transform="matrix(0.05,0,0,0.05,12.950000000000001,0)" xlink:href="#bB"/></g><path fill="#333" d="M63-220v92h138v28H63V0H30v-248h175v28H63" id="bK"/><g id="ac"><use transform="matrix(0.05,0,0,0.05,0,0)" xlink:href="#bK"/><use transform="matrix(0.05,0,0,0.05,10.950000000000001,0)" xlink:href="#aB"/><use transform="matrix(0.05,0,0,0.05,16.900000000000002,0)" xlink:href="#aw"/><use transform="matrix(0.05,0,0,0.05,26.900000000000002,0)" xlink:href="#aG"/><use transform="matrix(0.05,0,0,0.05,41.85,0)" xlink:href="#aA"/><use transform="matrix(0.05,0,0,0.05,51.85,0)" xlink:href="#aJ"/><use transform="matrix(0.05,0,0,0.05,64.8,0)" xlink:href="#aK"/><use transform="matrix(0.05,0,0,0.05,74.8,0)" xlink:href="#aB"/><use transform="matrix(0.05,0,0,0.05,80.75,0)" xlink:href="#aL"/></g><g id="ad"><use transform="matrix(0.05,0,0,0.05,0,0)" xlink:href="#as"/><use transform="matrix(0.05,0,0,0.05,12.950000000000001,0)" xlink:href="#aK"/><use transform="matrix(0.05,0,0,0.05,22.950000000000003,0)" xlink:href="#aG"/><use transform="matrix(0.05,0,0,0.05,37.900000000000006,0)" xlink:href="#aE"/><use transform="matrix(0.05,0,0,0.05,47.900000000000006,0)" xlink:href="#aK"/><use transform="matrix(0.05,0,0,0.05,57.900000000000006,0)" xlink:href="#aF"/><use transform="matrix(0.05,0,0,0.05,67.9,0)" xlink:href="#aA"/><use transform="matrix(0.05,0,0,0.05,77.9,0)" xlink:href="#aF"/><use transform="matrix(0.05,0,0,0.05,87.9,0)" xlink:href="#au"/></g><g id="ae"><use transform="matrix(0.05,0,0,0.05,0,0)" xlink:href="#aM"/><use transform="matrix(0.05,0,0,0.05,10,0)" xlink:href="#at"/><use transform="matrix(0.05,0,0,0.05,13.949999999999998,0)" xlink:href="#aV"/><use transform="matrix(0.05,0,0,0.05,23.95,0)" xlink:href="#aB"/><use transform="matrix(0.05,0,0,0.05,29.899999999999995,0)" xlink:href="#aw"/><use transform="matrix(0.05,0,0,0.05,39.9,0)" xlink:href="#aB"/><use transform="matrix(0.05,0,0,0.05,45.85,0)" xlink:href="#av"/></g><g id="af"><use transform="matrix(0.05,0,0,0.05,0,0)" xlink:href="#bA"/><use transform="matrix(0.05,0,0,0.05,12,0)" xlink:href="#aP"/><use transform="matrix(0.05,0,0,0.05,22,0)" xlink:href="#aG"/><use transform="matrix(0.05,0,0,0.05,36.95,0)" xlink:href="#at"/><use transform="matrix(0.05,0,0,0.05,40.900000000000006,0)" xlink:href="#aF"/></g><g id="ag"><use transform="matrix(0.05,0,0,0.05,0,0)" xlink:href="#bA"/><use transform="matrix(0.05,0,0,0.05,12,0)" xlink:href="#aP"/><use transform="matrix(0.05,0,0,0.05,22,0)" xlink:href="#aG"/><use transform="matrix(0.05,0,0,0.05,36.95,0)" xlink:href="#at"/><use transform="matrix(0.05,0,0,0.05,40.900000000000006,0)" xlink:href="#aF"/><use transform="matrix(0.05,0,0,0.05,50.900000000000006,0)" xlink:href="#at"/><use transform="matrix(0.05,0,0,0.05,54.85,0)" xlink:href="#ay"/><use transform="matrix(0.05,0,0,0.05,63.85,0)" xlink:href="#au"/><use transform="matrix(0.05,0,0,0.05,68.85000000000001,0)" xlink:href="#aB"/><use transform="matrix(0.05,0,0,0.05,74.80000000000001,0)" xlink:href="#aw"/><use transform="matrix(0.05,0,0,0.05,84.80000000000001,0)" xlink:href="#au"/><use transform="matrix(0.05,0,0,0.05,89.80000000000001,0)" xlink:href="#at"/><use transform="matrix(0.05,0,0,0.05,93.75000000000001,0)" xlink:href="#aC"/><use transform="matrix(0.05,0,0,0.05,102.75,0)" xlink:href="#aA"/></g><g id="ah"><use transform="matrix(0.05,0,0,0.05,0,0)" xlink:href="#aQ"/><use transform="matrix(0.05,0,0,0.05,8.950000000000001,0)" xlink:href="#aK"/><use transform="matrix(0.05,0,0,0.05,18.950000000000003,0)" xlink:href="#aK"/><use transform="matrix(0.05,0,0,0.05,28.950000000000003,0)" xlink:href="#ax"/><use transform="matrix(0.05,0,0,0.05,32.900000000000006,0)" xlink:href="#ay"/></g><g id="ai"><use transform="matrix(0.05,0,0,0.05,0,0)" xlink:href="#bB"/><use transform="matrix(0.05,0,0,0.05,5,0)" xlink:href="#aF"/><use transform="matrix(0.05,0,0,0.05,15,0)" xlink:href="#aC"/><use transform="matrix(0.05,0,0,0.05,24,0)" xlink:href="#aA"/><use transform="matrix(0.05,0,0,0.05,34,0)" xlink:href="#aF"/><use transform="matrix(0.05,0,0,0.05,44,0)" xlink:href="#au"/><use transform="matrix(0.05,0,0,0.05,49,0)" xlink:href="#aK"/><use transform="matrix(0.05,0,0,0.05,59,0)" xlink:href="#aB"/><use transform="matrix(0.05,0,0,0.05,64.95,0)" xlink:href="#av"/></g><g id="aj"><use transform="matrix(0.05,0,0,0.05,0,0)" xlink:href="#az"/><use transform="matrix(0.05,0,0,0.05,12,0)" xlink:href="#bC"/><use transform="matrix(0.05,0,0,0.05,22,0)" xlink:href="#aV"/><use transform="matrix(0.05,0,0,0.05,32,0)" xlink:href="#aG"/><use transform="matrix(0.05,0,0,0.05,46.95,0)" xlink:href="#at"/><use transform="matrix(0.05,0,0,0.05,50.900000000000006,0)" xlink:href="#ay"/><use transform="matrix(0.05,0,0,0.05,59.900000000000006,0)" xlink:href="#ay"/><use transform="matrix(0.05,0,0,0.05,68.9,0)" xlink:href="#at"/><use transform="matrix(0.05,0,0,0.05,72.85000000000001,0)" xlink:href="#aK"/><use transform="matrix(0.05,0,0,0.05,82.85000000000001,0)" xlink:href="#aF"/></g><g id="ak"><use transform="matrix(0.05,0,0,0.05,0,0)" xlink:href="#az"/><use transform="matrix(0.05,0,0,0.05,12,0)" xlink:href="#aA"/><use transform="matrix(0.05,0,0,0.05,22,0)" xlink:href="#aB"/><use transform="matrix(0.05,0,0,0.05,27.950000000000003,0)" xlink:href="#aC"/><use transform="matrix(0.05,0,0,0.05,36.95,0)" xlink:href="#at"/><use transform="matrix(0.05,0,0,0.05,40.900000000000006,0)" xlink:href="#aT"/><use transform="matrix(0.05,0,0,0.05,49.900000000000006,0)" xlink:href="#aA"/></g><g id="al"><use transform="matrix(0.05,0,0,0.05,0,0)" xlink:href="#bJ"/><use transform="matrix(0.05,0,0,0.05,12.950000000000001,0)" xlink:href="#ay"/><use transform="matrix(0.05,0,0,0.05,21.950000000000003,0)" xlink:href="#aA"/><use transform="matrix(0.05,0,0,0.05,31.950000000000003,0)" xlink:href="#aB"/><use transform="matrix(0.05,0,0,0.05,37.900000000000006,0)" xlink:href="#aS"/><use transform="matrix(0.05,0,0,0.05,43.85000000000001,0)" xlink:href="#aE"/><use transform="matrix(0.05,0,0,0.05,53.85,0)" xlink:href="#aB"/><use transform="matrix(0.05,0,0,0.05,59.80000000000001,0)" xlink:href="#aK"/><use transform="matrix(0.05,0,0,0.05,69.80000000000001,0)" xlink:href="#aC"/><use transform="matrix(0.05,0,0,0.05,78.80000000000001,0)" xlink:href="#at"/><use transform="matrix(0.05,0,0,0.05,82.75000000000001,0)" xlink:href="#aP"/><use transform="matrix(0.05,0,0,0.05,92.75000000000001,0)" xlink:href="#aA"/><use transform="matrix(0.05,0,0,0.05,102.75,0)" xlink:href="#aP"/></g><g id="am"><use transform="matrix(0.05,0,0,0.05,0,0)" xlink:href="#bz"/><use transform="matrix(0.05,0,0,0.05,12.950000000000001,0)" xlink:href="#aw"/><use transform="matrix(0.05,0,0,0.05,22.950000000000003,0)" xlink:href="#au"/><use transform="matrix(0.05,0,0,0.05,27.950000000000003,0)" xlink:href="#aw"/></g><g id="an"><use transform="matrix(0.05,0,0,0.05,0,0)" xlink:href="#bz"/><use transform="matrix(0.05,0,0,0.05,12.950000000000001,0)" xlink:href="#aw"/><use transform="matrix(0.05,0,0,0.05,22.950000000000003,0)" xlink:href="#au"/><use transform="matrix(0.05,0,0,0.05,27.950000000000003,0)" xlink:href="#aw"/></g><g id="ao"><use transform="matrix(0.05,0,0,0.05,0,0)" xlink:href="#az"/><use transform="matrix(0.05,0,0,0.05,12,0)" xlink:href="#au"/><use transform="matrix(0.05,0,0,0.05,17,0)" xlink:href="#aK"/><use transform="matrix(0.05,0,0,0.05,27,0)" xlink:href="#aB"/><use transform="matrix(0.05,0,0,0.05,32.95,0)" xlink:href="#aA"/></g><path fill="#333" d="M27 0v-27h64v-190l-56 39v-29l58-41h29v221h61V0H27" id="bL"/><path fill="#333" d="M134-131c28 9 52 24 51 62-1 50-34 73-85 73S17-19 16-69c0-36 21-54 49-61-75-25-45-126 34-121 46 3 78 18 79 63 0 33-17 51-44 57zm-34-11c31 1 46-15 46-44 0-28-17-43-47-42-29 0-46 13-45 42 1 28 16 44 46 44zm1 122c35 0 51-18 51-52 0-30-18-46-53-46-33 0-51 17-51 47 0 34 19 51 53 51" id="bM"/><g id="ap"><use transform="matrix(0.05,0,0,0.05,0,0)" xlink:href="#at"/><use transform="matrix(0.05,0,0,0.05,3.95,0)" xlink:href="#bL"/><use transform="matrix(0.05,0,0,0.05,13.949999999999998,0)" xlink:href="#bM"/><use transform="matrix(0.05,0,0,0.05,23.95,0)" xlink:href="#aF"/></g><g id="aq"><use transform="matrix(0.05,0,0,0.05,0,0)" xlink:href="#az"/><use transform="matrix(0.05,0,0,0.05,12,0)" xlink:href="#au"/><use transform="matrix(0.05,0,0,0.05,17,0)" xlink:href="#aw"/><use transform="matrix(0.05,0,0,0.05,27,0)" xlink:href="#au"/><use transform="matrix(0.05,0,0,0.05,32,0)" xlink:href="#aA"/></g><g id="ar"><use transform="matrix(0.05,0,0,0.05,0,0)" xlink:href="#aN"/><use transform="matrix(0.05,0,0,0.05,14.950000000000001,0)" xlink:href="#aw"/><use transform="matrix(0.05,0,0,0.05,24.950000000000003,0)" xlink:href="#aF"/><use transform="matrix(0.05,0,0,0.05,34.95,0)" xlink:href="#aw"/><use transform="matrix(0.05,0,0,0.05,44.95,0)" xlink:href="#bD"/><use transform="matrix(0.05,0,0,0.05,54.95,0)" xlink:href="#aA"/><use transform="matrix(0.05,0,0,0.05,64.95,0)" xlink:href="#aG"/><use transform="matrix(0.05,0,0,0.05,79.9,0)" xlink:href="#aA"/><use transform="matrix(0.05,0,0,0.05,89.9,0)" xlink:href="#aF"/><use transform="matrix(0.05,0,0,0.05,99.9,0)" xlink:href="#au"/></g></defs></g></svg>