<svg xmlns="http://www.w3.org/2000/svg" xmlns:xlink="http://www.w3.org/1999/xlink" xmlns:lucid="lucid" width="1000" height="1480"><g transform="translate(-880 860)" lucid:page-tab-id="0_0"><path d="M900 246a12.8 12.8 0 0 1 4.6-9.84l38.8-32.32A16.57 16.57 0 0 1 954 200h880a6 6 0 0 1 6 6v340a16.57 16.57 0 0 1-3.84 10.6l-32.32 38.8a12.8 12.8 0 0 1-9.84 4.6H906a6 6 0 0 1-6-6z" stroke="#3a414a" fill="#fff"/><path d="M906 240a2.17 2.17 0 0 1-1.4-3.84l38.8-32.32A16.57 16.57 0 0 1 954 200h880a2.48 2.48 0 0 1 1.76 4.24l-31.52 31.52A14.48 14.48 0 0 1 1794 240z" stroke="#3a414a" fill="#e6e6e6"/><path d="M1800 246a14.48 14.48 0 0 1 4.24-10.24l31.52-31.52A2.48 2.48 0 0 1 1840 206v340a16.57 16.57 0 0 1-3.84 10.6l-32.32 38.8a2.17 2.17 0 0 1-3.84-1.4z" stroke="#3a414a" fill="#ccc"/><use xlink:href="#a" transform="matrix(1,0,0,1,908,248) translate(0 17.77777777777778)"/><use xlink:href="#b" transform="matrix(1,0,0,1,908,248) translate(51.358024691358025 17.77777777777778)"/><path d="M1120 486a6 6 0 0 1 6-6h108a6 6 0 0 1 6 6v88a6 6 0 0 1-6 6h-108a6 6 0 0 1-6-6z" stroke="#3a414a" fill="#fff"/><path d="M1100 501a6 6 0 0 1 6-6h28a6 6 0 0 1 6 6v8a6 6 0 0 1-6 6h-28a6 6 0 0 1-6-6zM1100 551a6 6 0 0 1 6-6h28a6 6 0 0 1 6 6v8a6 6 0 0 1-6 6h-28a6 6 0 0 1-6-6z" stroke="#3a414a" fill="#fff"/><use xlink:href="#c" transform="matrix(1,0,0,1,1128,490) translate(26.160493827160494 44.44444444444444)"/><path d="M940 486a6 6 0 0 1 6-6h108a6 6 0 0 1 6 6v88a6 6 0 0 1-6 6H946a6 6 0 0 1-6-6z" stroke="#3a414a" fill="#fff"/><path d="M920 501a6 6 0 0 1 6-6h28a6 6 0 0 1 6 6v8a6 6 0 0 1-6 6h-28a6 6 0 0 1-6-6zM920 551a6 6 0 0 1 6-6h28a6 6 0 0 1 6 6v8a6 6 0 0 1-6 6h-28a6 6 0 0 1-6-6z" stroke="#3a414a" fill="#fff"/><use xlink:href="#d" transform="matrix(1,0,0,1,948,490) translate(-5.259259259259267 44.44444444444444)"/><path d="M1480 486a6 6 0 0 1 6-6h108a6 6 0 0 1 6 6v88a6 6 0 0 1-6 6h-108a6 6 0 0 1-6-6z" stroke="#3a414a" fill="#fff"/><path d="M1460 501a6 6 0 0 1 6-6h28a6 6 0 0 1 6 6v8a6 6 0 0 1-6 6h-28a6 6 0 0 1-6-6zM1460 551a6 6 0 0 1 6-6h28a6 6 0 0 1 6 6v8a6 6 0 0 1-6 6h-28a6 6 0 0 1-6-6z" stroke="#3a414a" fill="#fff"/><use xlink:href="#e" transform="matrix(1,0,0,1,1488,490) translate(28.043209876543212 44.44444444444444)"/><path d="M900-231a12.8 12.8 0 0 1 4.6-9.84l42.4-35.32a16.57 16.57 0 0 1 10.6-3.84H1834a6 6 0 0 1 6 6V92.4a16.57 16.57 0 0 1-3.84 10.6l-35.32 42.4a12.8 12.8 0 0 1-9.84 4.6H906a6 6 0 0 1-6-6z" stroke="#3a414a" fill="#fff"/><path d="M906-237a2.17 2.17 0 0 1-1.4-3.84l42.4-35.32a16.57 16.57 0 0 1 10.6-3.84H1834a2.48 2.48 0 0 1 1.76 4.24l-34.52 34.52A14.48 14.48 0 0 1 1791-237z" stroke="#3a414a" fill="#e6e6e6"/><path d="M1797-231a14.48 14.48 0 0 1 4.24-10.24l34.52-34.52A2.48 2.48 0 0 1 1840-274V92.4a16.57 16.57 0 0 1-3.84 10.6l-35.32 42.4a2.17 2.17 0 0 1-3.84-1.4z" stroke="#3a414a" fill="#ccc"/><use xlink:href="#f" transform="matrix(1,0,0,1,908,-229) translate(0 17.77777777777778)"/><use xlink:href="#g" transform="matrix(1,0,0,1,908,-229) translate(41.97530864197531 17.77777777777778)"/><path d="M900-512a12.8 12.8 0 0 1 4.6-9.84l17.2-14.32a16.57 16.57 0 0 1 10.6-3.84H1674a6 6 0 0 1 6 6v181.6a16.57 16.57 0 0 1-3.84 10.6l-14.32 17.2a12.8 12.8 0 0 1-9.84 4.6H906a6 6 0 0 1-6-6z" stroke="#3a414a" fill="#fff"/><path d="M906-518a2.17 2.17 0 0 1-1.4-3.84l17.2-14.32a16.57 16.57 0 0 1 10.6-3.84H1674a2.48 2.48 0 0 1 1.76 4.24l-13.52 13.52A14.48 14.48 0 0 1 1652-518z" stroke="#3a414a" fill="#e6e6e6"/><path d="M1658-512a14.48 14.48 0 0 1 4.24-10.24l13.52-13.52A2.48 2.48 0 0 1 1680-534v181.6a16.57 16.57 0 0 1-3.84 10.6l-14.32 17.2a2.17 2.17 0 0 1-3.84-1.4z" stroke="#3a414a" fill="#ccc"/><use xlink:href="#h" transform="matrix(1,0,0,1,908,-510) translate(0 17.77777777777778)"/><use xlink:href="#g" transform="matrix(1,0,0,1,908,-510) translate(126.2962962962963 17.77777777777778)"/><path d="M930-174a6 6 0 0 1 6-6h128a6 6 0 0 1 6 6v108a6 6 0 0 1-6 6H936a6 6 0 0 1-6-6z" stroke="#3a414a" fill="#fff"/><path d="M910-154a6 6 0 0 1 6-6h28a6 6 0 0 1 6 6v8a6 6 0 0 1-6 6h-28a6 6 0 0 1-6-6zM910-94a6 6 0 0 1 6-6h28a6 6 0 0 1 6 6v8a6 6 0 0 1-6 6h-28a6 6 0 0 1-6-6z" stroke="#3a414a" fill="#fff"/><use xlink:href="#i" transform="matrix(1,0,0,1,942,-168) translate(10.351851851851848 39.111111111111114)"/><use xlink:href="#j" transform="matrix(1,0,0,1,942,-168) translate(30.135802469135804 65.77777777777777)"/><path d="M1100-174a6 6 0 0 1 6-6h128a6 6 0 0 1 6 6v108a6 6 0 0 1-6 6h-128a6 6 0 0 1-6-6z" stroke="#3a414a" fill="#fff"/><path d="M1080-154a6 6 0 0 1 6-6h28a6 6 0 0 1 6 6v8a6 6 0 0 1-6 6h-28a6 6 0 0 1-6-6zM1080-94a6 6 0 0 1 6-6h28a6 6 0 0 1 6 6v8a6 6 0 0 1-6 6h-28a6 6 0 0 1-6-6z" stroke="#3a414a" fill="#fff"/><use xlink:href="#i" transform="matrix(1,0,0,1,1112,-168) translate(10.351851851851848 25.77777777777778)"/><use xlink:href="#k" transform="matrix(1,0,0,1,1112,-168) translate(24.919753086419753 52.44444444444445)"/><use xlink:href="#j" transform="matrix(1,0,0,1,1112,-168) translate(30.135802469135804 79.11111111111111)"/><path d="M940 286a6 6 0 0 1 6-6h468a6 6 0 0 1 6 6v108a6 6 0 0 1-6 6H946a6 6 0 0 1-6-6z" stroke="#3a414a" fill="#fff"/><path d="M920 306a6 6 0 0 1 6-6h28a6 6 0 0 1 6 6v8a6 6 0 0 1-6 6h-28a6 6 0 0 1-6-6zM920 366a6 6 0 0 1 6-6h28a6 6 0 0 1 6 6v8a6 6 0 0 1-6 6h-28a6 6 0 0 1-6-6z" stroke="#3a414a" fill="#fff"/><use xlink:href="#f" transform="matrix(1,0,0,1,1020,292) translate(128.14814814814815 52.44444444444444)"/><use xlink:href="#l" transform="matrix(1,0,0,1,1020,292) translate(170.12345679012347 52.44444444444444)"/><path d="M950 21a6 6 0 0 1 6-6h808a6 6 0 0 1 6 6v108a6 6 0 0 1-6 6H956a6 6 0 0 1-6-6z" stroke="#3a414a" fill="#fff"/><path d="M930 41a6 6 0 0 1 6-6h28a6 6 0 0 1 6 6v8a6 6 0 0 1-6 6h-28a6 6 0 0 1-6-6zM930 101a6 6 0 0 1 6-6h28a6 6 0 0 1 6 6v8a6 6 0 0 1-6 6h-28a6 6 0 0 1-6-6z" stroke="#3a414a" fill="#fff"/><use xlink:href="#f" transform="matrix(1,0,0,1,1098,27) translate(242.179012345679 52.44444444444444)"/><use xlink:href="#m" transform="matrix(1,0,0,1,1098,27) translate(284.15432098765433 52.44444444444444)"/><path d="M1280-174a6 6 0 0 1 6-6h128a6 6 0 0 1 6 6v108a6 6 0 0 1-6 6h-128a6 6 0 0 1-6-6z" stroke="#3a414a" fill="#fff"/><path d="M1260-154a6 6 0 0 1 6-6h28a6 6 0 0 1 6 6v8a6 6 0 0 1-6 6h-28a6 6 0 0 1-6-6zM1260-94a6 6 0 0 1 6-6h28a6 6 0 0 1 6 6v8a6 6 0 0 1-6 6h-28a6 6 0 0 1-6-6z" stroke="#3a414a" fill="#fff"/><use xlink:href="#n" transform="matrix(1,0,0,1,1292,-168) translate(32.574074074074076 25.77777777777778)"/><use xlink:href="#o" transform="matrix(1,0,0,1,1292,-168) translate(5.444444444444436 52.44444444444445)"/><use xlink:href="#j" transform="matrix(1,0,0,1,1292,-168) translate(30.135802469135804 79.11111111111111)"/><path d="M1460-174a6 6 0 0 1 6-6h128a6 6 0 0 1 6 6v108a6 6 0 0 1-6 6h-128a6 6 0 0 1-6-6z" stroke="#3a414a" fill="#fff"/><path d="M1440-154a6 6 0 0 1 6-6h28a6 6 0 0 1 6 6v8a6 6 0 0 1-6 6h-28a6 6 0 0 1-6-6zM1440-94a6 6 0 0 1 6-6h28a6 6 0 0 1 6 6v8a6 6 0 0 1-6 6h-28a6 6 0 0 1-6-6z" stroke="#3a414a" fill="#fff"/><use xlink:href="#p" transform="matrix(1,0,0,1,1472,-168) translate(33.160493827160494 39.111111111111114)"/><use xlink:href="#j" transform="matrix(1,0,0,1,1472,-168) translate(30.135802469135804 65.77777777777777)"/><path d="M1180 400v10m0 40c-11.05 0-20-8.95-20-20s8.95-20 20-20 20 8.95 20 20-8.95 20-20 20z" stroke="#3a414a" fill="#fff"/><path d="M1180.8 400v10h-1.6v-10z" fill="none"/><path d="M1025 400v10m0 40c-11.05 0-20-8.95-20-20s8.95-20 20-20 20 8.95 20 20-8.95 20-20 20z" stroke="#3a414a" fill="#fff"/><path d="M1025.8 400v10h-1.6v-10z" fill="none"/><g fill="none"><path d="M1025 470v10m20-30c0 11.05-8.95 20-20 20s-20-8.95-20-20" stroke="#3a414a"/><path d="M1045 450c0 11.05-8.95 20-20 20s-20-8.95-20-20zM1025 470a.8.8 0 0 1 .8.8v8.4a.8.8 0 0 1-.8.8.8.8 0 0 1-.8-.8v-8.4a.8.8 0 0 1 .8-.8z"/></g><g fill="none"><path d="M1180 470v10m20-30c0 11.05-8.95 20-20 20s-20-8.95-20-20" stroke="#3a414a"/><path d="M1200 450c0 11.05-8.95 20-20 20s-20-8.95-20-20zM1180 470a.8.8 0 0 1 .8.8v8.4a.8.8 0 0 1-.8.8.8.8 0 0 1-.8-.8v-8.4a.8.8 0 0 1 .8-.8z"/></g><path d="M1650 486a6 6 0 0 1 6-6h108a6 6 0 0 1 6 6v88a6 6 0 0 1-6 6h-108a6 6 0 0 1-6-6z" stroke="#3a414a" fill="#fff"/><path d="M1630 501a6 6 0 0 1 6-6h28a6 6 0 0 1 6 6v8a6 6 0 0 1-6 6h-28a6 6 0 0 1-6-6zM1630 551a6 6 0 0 1 6-6h28a6 6 0 0 1 6 6v8a6 6 0 0 1-6 6h-28a6 6 0 0 1-6-6z" stroke="#3a414a" fill="#fff"/><use xlink:href="#q" transform="matrix(1,0,0,1,1658,490) translate(37.91975308641975 31.111111111111114)"/><use xlink:href="#r" transform="matrix(1,0,0,1,1658,490) translate(-2.728395061728399 57.77777777777778)"/><path d="M1100 135v10m0 40c-11.05 0-20-8.95-20-20s8.95-20 20-20 20 8.95 20 20-8.95 20-20 20z" stroke="#3a414a" fill="#fff"/><path d="M1100.8 135v10h-1.6v-10z" fill="none"/><path d="M1640-174a6 6 0 0 1 6-6h128a6 6 0 0 1 6 6v108a6 6 0 0 1-6 6h-128a6 6 0 0 1-6-6z" stroke="#3a414a" fill="#fff"/><path d="M1620-154a6 6 0 0 1 6-6h28a6 6 0 0 1 6 6v8a6 6 0 0 1-6 6h-28a6 6 0 0 1-6-6zM1620-94a6 6 0 0 1 6-6h28a6 6 0 0 1 6 6v8a6 6 0 0 1-6 6h-28a6 6 0 0 1-6-6z" stroke="#3a414a" fill="#fff"/><use xlink:href="#n" transform="matrix(1,0,0,1,1652,-168) translate(32.574074074074076 25.77777777777778)"/><use xlink:href="#s" transform="matrix(1,0,0,1,1652,-168) translate(20.845679012345677 52.44444444444445)"/><use xlink:href="#t" transform="matrix(1,0,0,1,1652,-168) translate(12.26543209876543 79.11111111111111)"/><path d="M1290-454a6 6 0 0 1 6-6h128a6 6 0 0 1 6 6v108a6 6 0 0 1-6 6h-128a6 6 0 0 1-6-6z" stroke="#3a414a" fill="#fff"/><path d="M1270-434a6 6 0 0 1 6-6h28a6 6 0 0 1 6 6v8a6 6 0 0 1-6 6h-28a6 6 0 0 1-6-6zM1270-374a6 6 0 0 1 6-6h28a6 6 0 0 1 6 6v8a6 6 0 0 1-6 6h-28a6 6 0 0 1-6-6z" stroke="#3a414a" fill="#fff"/><use xlink:href="#u" transform="matrix(1,0,0,1,1302,-448) translate(10.351851851851848 39.111111111111114)"/><use xlink:href="#v" transform="matrix(1,0,0,1,1302,-448) translate(26.401234567901234 65.77777777777777)"/><path d="M1110-454a6 6 0 0 1 6-6h128a6 6 0 0 1 6 6v108a6 6 0 0 1-6 6h-128a6 6 0 0 1-6-6z" stroke="#3a414a" fill="#fff"/><path d="M1090-434a6 6 0 0 1 6-6h28a6 6 0 0 1 6 6v8a6 6 0 0 1-6 6h-28a6 6 0 0 1-6-6zM1090-374a6 6 0 0 1 6-6h28a6 6 0 0 1 6 6v8a6 6 0 0 1-6 6h-28a6 6 0 0 1-6-6z" stroke="#3a414a" fill="#fff"/><use xlink:href="#u" transform="matrix(1,0,0,1,1122,-448) translate(10.351851851851848 25.77777777777778)"/><use xlink:href="#w" transform="matrix(1,0,0,1,1122,-448) translate(24.919753086419753 52.44444444444445)"/><use xlink:href="#v" transform="matrix(1,0,0,1,1122,-448) translate(26.401234567901234 79.11111111111111)"/><path d="M930-454a6 6 0 0 1 6-6h128a6 6 0 0 1 6 6v108a6 6 0 0 1-6 6H936a6 6 0 0 1-6-6z" stroke="#3a414a" fill="#fff"/><path d="M910-434a6 6 0 0 1 6-6h28a6 6 0 0 1 6 6v8a6 6 0 0 1-6 6h-28a6 6 0 0 1-6-6zM910-374a6 6 0 0 1 6-6h28a6 6 0 0 1 6 6v8a6 6 0 0 1-6 6h-28a6 6 0 0 1-6-6z" stroke="#3a414a" fill="#fff"/><use xlink:href="#n" transform="matrix(1,0,0,1,942,-448) translate(32.574074074074076 25.77777777777778)"/><use xlink:href="#x" transform="matrix(1,0,0,1,942,-448) translate(5.444444444444436 52.44444444444445)"/><use xlink:href="#v" transform="matrix(1,0,0,1,942,-448) translate(26.401234567901234 79.11111111111111)"/><path d="M1280 486a6 6 0 0 1 6-6h108a6 6 0 0 1 6 6v88a6 6 0 0 1-6 6h-108a6 6 0 0 1-6-6z" stroke="#3a414a" fill="#fff"/><path d="M1260 501a6 6 0 0 1 6-6h28a6 6 0 0 1 6 6v8a6 6 0 0 1-6 6h-28a6 6 0 0 1-6-6zM1260 551a6 6 0 0 1 6-6h28a6 6 0 0 1 6 6v8a6 6 0 0 1-6 6h-28a6 6 0 0 1-6-6z" stroke="#3a414a" fill="#fff"/><use xlink:href="#y" transform="matrix(1,0,0,1,1288,490) translate(12.641975308641975 31.111111111111114)"/><use xlink:href="#z" transform="matrix(1,0,0,1,1288,490) translate(20.049382716049383 57.77777777777778)"/><path d="M1340 400v10m0 40c-11.05 0-20-8.95-20-20s8.95-20 20-20 20 8.95 20 20-8.95 20-20 20z" stroke="#3a414a" fill="#fff"/><path d="M1340.8 400v10h-1.6v-10z" fill="none"/><g fill="none"><path d="M1340 470v10m20-30c0 11.05-8.95 20-20 20s-20-8.95-20-20" stroke="#3a414a"/><path d="M1360 450c0 11.05-8.95 20-20 20s-20-8.95-20-20zM1340 470a.8.8 0 0 1 .8.8v8.4a.8.8 0 0 1-.8.8.8.8 0 0 1-.8-.8v-8.4a.8.8 0 0 1 .8-.8z"/></g><path d="M1000-60v10m0 40c-11.05 0-20-8.95-20-20s8.95-20 20-20 20 8.95 20 20-8.95 20-20 20z" stroke="#3a414a" fill="#fff"/><path d="M1000.8-60v10h-1.6v-10z" fill="none"/><path d="M1160-60v10m0 40c-11.05 0-20-8.95-20-20s8.95-20 20-20 20 8.95 20 20-8.95 20-20 20z" stroke="#3a414a" fill="#fff"/><path d="M1160.8-60v10h-1.6v-10z" fill="none"/><path d="M1350-60v10m0 40c-11.05 0-20-8.95-20-20s8.95-20 20-20 20 8.95 20 20-8.95 20-20 20z" stroke="#3a414a" fill="#fff"/><path d="M1350.8-60v10h-1.6v-10z" fill="none"/><path d="M1530-60v10m0 40c-11.05 0-20-8.95-20-20s8.95-20 20-20 20 8.95 20 20-8.95 20-20 20z" stroke="#3a414a" fill="#fff"/><path d="M1530.8-60v10h-1.6v-10z" fill="none"/><path d="M1460-454a6 6 0 0 1 6-6h128a6 6 0 0 1 6 6v108a6 6 0 0 1-6 6h-128a6 6 0 0 1-6-6z" stroke="#3a414a" fill="#fff"/><path d="M1440-434a6 6 0 0 1 6-6h28a6 6 0 0 1 6 6v8a6 6 0 0 1-6 6h-28a6 6 0 0 1-6-6zM1440-374a6 6 0 0 1 6-6h28a6 6 0 0 1 6 6v8a6 6 0 0 1-6 6h-28a6 6 0 0 1-6-6z" stroke="#3a414a" fill="#fff"/><use xlink:href="#A" transform="matrix(1,0,0,1,1472,-448) translate(32.60493827160494 39.111111111111114)"/><use xlink:href="#B" transform="matrix(1,0,0,1,1472,-448) translate(26.401234567901234 65.77777777777777)"/><path d="M1035-340v10m0 40c-11.05 0-20-8.95-20-20s8.95-20 20-20 20 8.95 20 20-8.95 20-20 20z" stroke="#3a414a" fill="#fff"/><path d="M1035.8-340v10h-1.6v-10z" fill="none"/><path d="M1180-340v10m0 40c-11.05 0-20-8.95-20-20s8.95-20 20-20 20 8.95 20 20-8.95 20-20 20z" stroke="#3a414a" fill="#fff"/><path d="M1180.8-340v10h-1.6v-10z" fill="none"/><path d="M1350-340v10m0 40c-11.05 0-20-8.95-20-20s8.95-20 20-20 20 8.95 20 20-8.95 20-20 20z" stroke="#3a414a" fill="#fff"/><path d="M1350.8-340v10h-1.6v-10z" fill="none"/><path d="M1520-340v10m0 40c-11.05 0-20-8.95-20-20s8.95-20 20-20 20 8.95 20 20-8.95 20-20 20z" stroke="#3a414a" fill="#fff"/><path d="M1520.8-340v10h-1.6v-10z" fill="none"/><g fill="none"><path d="M1100 200v10m20-30c0 11.05-8.95 20-20 20s-20-8.95-20-20" stroke="#3a414a"/><path d="M1120 180c0 11.05-8.95 20-20 20s-20-8.95-20-20zM1100 200a.8.8 0 0 1 .8.8v8.4a.8.8 0 0 1-.8.8.8.8 0 0 1-.8-.8v-8.4a.8.8 0 0 1 .8-.8z"/></g><path d="M1100 210.5V279" stroke="#3a414a" fill="none"/><path d="M1099.5 210h1v.5h-1V207zM1100.5 279.5h-1v-.5h1z" stroke="#3a414a" stroke-width=".05" fill="#3a414a"/><g fill="none"><path d="M1000 5v10m20-30c0 11.05-8.95 20-20 20s-20-8.95-20-20" stroke="#3a414a"/><path d="M1020-15c0 11.05-8.95 20-20 20s-20-8.95-20-20zM1000 5a.8.8 0 0 1 .8.8v8.4a.8.8 0 0 1-.8.8.8.8 0 0 1-.8-.8V5.8a.8.8 0 0 1 .8-.8z"/></g><g fill="none"><path d="M1160 5v10m20-30c0 11.05-8.95 20-20 20s-20-8.95-20-20" stroke="#3a414a"/><path d="M1180-15c0 11.05-8.95 20-20 20s-20-8.95-20-20zM1160 5a.8.8 0 0 1 .8.8v8.4a.8.8 0 0 1-.8.8.8.8 0 0 1-.8-.8V5.8a.8.8 0 0 1 .8-.8z"/></g><g fill="none"><path d="M1350 5v10m20-30c0 11.05-8.95 20-20 20s-20-8.95-20-20" stroke="#3a414a"/><path d="M1370-15c0 11.05-8.95 20-20 20s-20-8.95-20-20zM1350 5a.8.8 0 0 1 .8.8v8.4a.8.8 0 0 1-.8.8.8.8 0 0 1-.8-.8V5.8a.8.8 0 0 1 .8-.8z"/></g><g fill="none"><path d="M1530 5v10m20-30c0 11.05-8.95 20-20 20s-20-8.95-20-20" stroke="#3a414a"/><path d="M1550-15c0 11.05-8.95 20-20 20s-20-8.95-20-20zM1530 5a.8.8 0 0 1 .8.8v8.4a.8.8 0 0 1-.8.8.8.8 0 0 1-.8-.8V5.8a.8.8 0 0 1 .8-.8z"/></g><g fill="none"><path d="M1035-280v10m20-30c0 11.05-8.95 20-20 20s-20-8.95-20-20" stroke="#3a414a"/><path d="M1055-300c0 11.05-8.95 20-20 20s-20-8.95-20-20zM1035-280a.8.8 0 0 1 .8.8v8.4a.8.8 0 0 1-.8.8.8.8 0 0 1-.8-.8v-8.4a.8.8 0 0 1 .8-.8z"/></g><path d="M1035-269.5v88.5" stroke="#3a414a" fill="none"/><path d="M1034.5-270h1v.5h-1v-3.5zM1035.5-180.5h-1v-.5h1z" stroke="#3a414a" stroke-width=".05" fill="#3a414a"/><g fill="none"><path d="M1180-275v10m20-30c0 11.05-8.95 20-20 20s-20-8.95-20-20" stroke="#3a414a"/><path d="M1200-295c0 11.05-8.95 20-20 20s-20-8.95-20-20zM1180-275a.8.8 0 0 1 .8.8v8.4a.8.8 0 0 1-.8.8.8.8 0 0 1-.8-.8v-8.4a.8.8 0 0 1 .8-.8z"/></g><path d="M1180-264.5v83.5" stroke="#3a414a" fill="none"/><path d="M1179.5-265h1v.5h-1v-3.5zM1180.5-180.5h-1v-.5h1z" stroke="#3a414a" stroke-width=".05" fill="#3a414a"/><g fill="none"><path d="M1350-270v10m20-30c0 11.05-8.95 20-20 20s-20-8.95-20-20" stroke="#3a414a"/><path d="M1370-290c0 11.05-8.95 20-20 20s-20-8.95-20-20zM1350-270a.8.8 0 0 1 .8.8v8.4a.8.8 0 0 1-.8.8.8.8 0 0 1-.8-.8v-8.4a.8.8 0 0 1 .8-.8z"/></g><path d="M1350-259.5v78.5" stroke="#3a414a" fill="none"/><path d="M1349.5-260h1v.5h-1v-3.5zM1350.5-180.5h-1v-.5h1z" stroke="#3a414a" stroke-width=".05" fill="#3a414a"/><g fill="none"><path d="M1520-275v10m20-30c0 11.05-8.95 20-20 20s-20-8.95-20-20" stroke="#3a414a"/><path d="M1540-295c0 11.05-8.95 20-20 20s-20-8.95-20-20zM1520-275a.8.8 0 0 1 .8.8v8.4a.8.8 0 0 1-.8.8.8.8 0 0 1-.8-.8v-8.4a.8.8 0 0 1 .8-.8z"/></g><path d="M1520-264.5v83.5" stroke="#3a414a" fill="none"/><path d="M1519.5-265h1v.5h-1v-3.5zM1520.5-180.5h-1v-.5h1z" stroke="#3a414a" stroke-width=".05" fill="#3a414a"/><g><path d="M1700-60v10m0 40c-11.05 0-20-8.95-20-20s8.95-20 20-20 20 8.95 20 20-8.95 20-20 20z" stroke="#3a414a" fill="#fff"/><path d="M1700.8-60v10h-1.6v-10z" fill="none"/></g><g fill="none"><path d="M1700 5v10m20-30c0 11.05-8.95 20-20 20s-20-8.95-20-20" stroke="#3a414a"/><path d="M1720-15c0 11.05-8.95 20-20 20s-20-8.95-20-20zM1700 5a.8.8 0 0 1 .8.8v8.4a.8.8 0 0 1-.8.8.8.8 0 0 1-.8-.8V5.8a.8.8 0 0 1 .8-.8z"/></g><path d="M900-810a12.8 12.8 0 0 1 4.6-9.84l19.6-16.32a16.57 16.57 0 0 1 10.6-3.84H1854a6 6 0 0 1 6 6v199.2a16.57 16.57 0 0 1-3.84 10.6l-16.32 19.6a12.8 12.8 0 0 1-9.84 4.6H906a6 6 0 0 1-6-6z" stroke="#3a414a" fill="#fff"/><path d="M906-816a2.17 2.17 0 0 1-1.4-3.84l19.6-16.32a16.57 16.57 0 0 1 10.6-3.84H1854a2.48 2.48 0 0 1 1.76 4.24l-15.52 15.52A14.48 14.48 0 0 1 1830-816z" stroke="#3a414a" fill="#e6e6e6"/><path d="M1836-810a14.48 14.48 0 0 1 4.24-10.24l15.52-15.52A2.48 2.48 0 0 1 1860-834v199.2a16.57 16.57 0 0 1-3.84 10.6l-16.32 19.6a2.17 2.17 0 0 1-3.84-1.4z" stroke="#3a414a" fill="#ccc"/><g><use xlink:href="#C" transform="matrix(1,0,0,1,908,-808) translate(0 17.77777777777778)"/><use xlink:href="#D" transform="matrix(1,0,0,1,908,-808) translate(70.2469135802469 17.77777777777778)"/><use xlink:href="#E" transform="matrix(1,0,0,1,908,-808) translate(112.2222222222222 17.77777777777778)"/></g><path d="M1680-734a6 6 0 0 1 6-6h128a6 6 0 0 1 6 6v108a6 6 0 0 1-6 6h-128a6 6 0 0 1-6-6z" stroke="#3a414a" fill="#fff"/><path d="M1660-714a6 6 0 0 1 6-6h28a6 6 0 0 1 6 6v8a6 6 0 0 1-6 6h-28a6 6 0 0 1-6-6zM1660-654a6 6 0 0 1 6-6h28a6 6 0 0 1 6 6v8a6 6 0 0 1-6 6h-28a6 6 0 0 1-6-6z" stroke="#3a414a" fill="#fff"/><g><use xlink:href="#F" transform="matrix(1,0,0,1,1692,-728) translate(-9.462962962962976 39.111111111111114)"/><use xlink:href="#G" transform="matrix(1,0,0,1,1692,-728) translate(38.098765432098766 65.77777777777777)"/></g><g><path d="M1750-620v10m0 40c-11.05 0-20-8.95-20-20s8.95-20 20-20 20 8.95 20 20-8.95 20-20 20z" stroke="#3a414a" fill="#fff"/><path d="M1750.8-620v10h-1.6v-10z" fill="none"/></g><g fill="none"><path d="M1750-545v10m20-30c0 11.05-8.95 20-20 20s-20-8.95-20-20" stroke="#3a414a"/><path d="M1770-565c0 11.05-8.95 20-20 20s-20-8.95-20-20zM1750-545a.8.8 0 0 1 .8.8v8.4a.8.8 0 0 1-.8.8.8.8 0 0 1-.8-.8v-8.4a.8.8 0 0 1 .8-.8z"/></g><path d="M1750-534.5V-181" stroke="#3a414a" fill="none"/><path d="M1749.5-535h1v.5h-1v-3.5zM1750.5-180.5h-1v-.5h1z" stroke="#3a414a" stroke-width=".05" fill="#3a414a"/><path d="M1480 296a6 6 0 0 1 6-6h108a6 6 0 0 1 6 6v88a6 6 0 0 1-6 6h-108a6 6 0 0 1-6-6z" stroke="#3a414a" fill="#fff"/><path d="M1460 311a6 6 0 0 1 6-6h28a6 6 0 0 1 6 6v8a6 6 0 0 1-6 6h-28a6 6 0 0 1-6-6zM1460 361a6 6 0 0 1 6-6h28a6 6 0 0 1 6 6v8a6 6 0 0 1-6 6h-28a6 6 0 0 1-6-6z" stroke="#3a414a" fill="#fff"/><g><use xlink:href="#H" transform="matrix(1,0,0,1,1488,300) translate(23.074074074074076 31.111111111111114)"/><use xlink:href="#I" transform="matrix(1,0,0,1,1488,300) translate(-15.753086419753089 57.77777777777778)"/></g><defs><path fill="#3a414a" d="M266 0h-40l-56-210L115 0H75L2-248h35L96-30l15-64 43-154h32l59 218 59-218h35" id="J"/><path fill="#3a414a" d="M100-194c63 0 86 42 84 106H49c0 40 14 67 53 68 26 1 43-12 49-29l28 8c-11 28-37 45-77 45C44 4 14-33 15-96c1-61 26-98 85-98zm52 81c6-60-76-77-97-28-3 7-6 17-6 28h103" id="K"/><path fill="#3a414a" d="M115-194c53 0 69 39 70 98 0 66-23 100-70 100C84 3 66-7 56-30L54 0H23l1-261h32v101c10-23 28-34 59-34zm-8 174c40 0 45-34 45-75 0-40-5-75-45-74-42 0-51 32-51 76 0 43 10 73 51 73" id="L"/><g id="a"><use transform="matrix(0.06172839506172839,0,0,0.06172839506172839,0,0)" xlink:href="#J"/><use transform="matrix(0.06172839506172839,0,0,0.06172839506172839,20.493827160493826,0)" xlink:href="#K"/><use transform="matrix(0.06172839506172839,0,0,0.06172839506172839,32.839506172839506,0)" xlink:href="#L"/></g><path fill="#3a414a" d="M212-179c-10-28-35-45-73-45-59 0-87 40-87 99 0 60 29 101 89 101 43 0 62-24 78-52l27 14C228-24 195 4 139 4 59 4 22-46 18-125c-6-104 99-153 187-111 19 9 31 26 39 46" id="M"/><path fill="#3a414a" d="M24 0v-261h32V0H24" id="N"/><path fill="#3a414a" d="M24-231v-30h32v30H24zM24 0v-190h32V0H24" id="O"/><path fill="#3a414a" d="M117-194c89-4 53 116 60 194h-32v-121c0-31-8-49-39-48C34-167 62-67 57 0H25l-1-190h30c1 10-1 24 2 32 11-22 29-35 61-36" id="P"/><path fill="#3a414a" d="M59-47c-2 24 18 29 38 22v24C64 9 27 4 27-40v-127H5v-23h24l9-43h21v43h35v23H59v120" id="Q"/><g id="b"><use transform="matrix(0.06172839506172839,0,0,0.06172839506172839,0,0)" xlink:href="#M"/><use transform="matrix(0.06172839506172839,0,0,0.06172839506172839,15.987654320987653,0)" xlink:href="#N"/><use transform="matrix(0.06172839506172839,0,0,0.06172839506172839,20.864197530864196,0)" xlink:href="#O"/><use transform="matrix(0.06172839506172839,0,0,0.06172839506172839,25.74074074074074,0)" xlink:href="#K"/><use transform="matrix(0.06172839506172839,0,0,0.06172839506172839,38.08641975308642,0)" xlink:href="#P"/><use transform="matrix(0.06172839506172839,0,0,0.06172839506172839,50.432098765432094,0)" xlink:href="#Q"/></g><path fill="#3a414a" d="M205 0l-28-72H64L36 0H1l101-248h38L239 0h-34zm-38-99l-47-123c-12 45-31 82-46 123h93" id="R"/><path fill="#3a414a" d="M84 4C-5 8 30-112 23-190h32v120c0 31 7 50 39 49 72-2 45-101 50-169h31l1 190h-30c-1-10 1-25-2-33-11 22-28 36-60 37" id="S"/><path fill="#3a414a" d="M106-169C34-169 62-67 57 0H25v-261h32l-1 103c12-21 28-36 61-36 89 0 53 116 60 194h-32v-121c2-32-8-49-39-48" id="T"/><g id="c"><use transform="matrix(0.06172839506172839,0,0,0.06172839506172839,0,0)" xlink:href="#R"/><use transform="matrix(0.06172839506172839,0,0,0.06172839506172839,14.814814814814813,0)" xlink:href="#S"/><use transform="matrix(0.06172839506172839,0,0,0.06172839506172839,27.160493827160494,0)" xlink:href="#Q"/><use transform="matrix(0.06172839506172839,0,0,0.06172839506172839,33.333333333333336,0)" xlink:href="#T"/></g><path fill="#3a414a" d="M30-248c118-7 216 8 213 122C240-48 200 0 122 0H30v-248zM63-27c89 8 146-16 146-99s-60-101-146-95v194" id="U"/><path fill="#3a414a" d="M141-36C126-15 110 5 73 4 37 3 15-17 15-53c-1-64 63-63 125-63 3-35-9-54-41-54-24 1-41 7-42 31l-33-3c5-37 33-52 76-52 45 0 72 20 72 64v82c-1 20 7 32 28 27v20c-31 9-61-2-59-35zM48-53c0 20 12 33 32 33 41-3 63-29 60-74-43 2-92-5-92 41" id="V"/><path fill="#3a414a" d="M135-143c-3-34-86-38-87 0 15 53 115 12 119 90S17 21 10-45l28-5c4 36 97 45 98 0-10-56-113-15-118-90-4-57 82-63 122-42 12 7 21 19 24 35" id="W"/><path fill="#3a414a" d="M100-194c62-1 85 37 85 99 1 63-27 99-86 99S16-35 15-95c0-66 28-99 85-99zM99-20c44 1 53-31 53-75 0-43-8-75-51-75s-53 32-53 75 10 74 51 75" id="X"/><path fill="#3a414a" d="M114-163C36-179 61-72 57 0H25l-1-190h30c1 12-1 29 2 39 6-27 23-49 58-41v29" id="Y"/><path fill="#3a414a" d="M85-194c31 0 48 13 60 33l-1-100h32l1 261h-30c-2-10 0-23-3-31C134-8 116 4 85 4 32 4 16-35 15-94c0-66 23-100 70-100zm9 24c-40 0-46 34-46 75 0 40 6 74 45 74 42 0 51-32 51-76 0-42-9-74-50-73" id="Z"/><g id="d"><use transform="matrix(0.06172839506172839,0,0,0.06172839506172839,0,0)" xlink:href="#U"/><use transform="matrix(0.06172839506172839,0,0,0.06172839506172839,15.987654320987653,0)" xlink:href="#V"/><use transform="matrix(0.06172839506172839,0,0,0.06172839506172839,28.333333333333332,0)" xlink:href="#W"/><use transform="matrix(0.06172839506172839,0,0,0.06172839506172839,39.44444444444444,0)" xlink:href="#T"/><use transform="matrix(0.06172839506172839,0,0,0.06172839506172839,51.79012345679012,0)" xlink:href="#L"/><use transform="matrix(0.06172839506172839,0,0,0.06172839506172839,64.1358024691358,0)" xlink:href="#X"/><use transform="matrix(0.06172839506172839,0,0,0.06172839506172839,76.48148148148148,0)" xlink:href="#V"/><use transform="matrix(0.06172839506172839,0,0,0.06172839506172839,88.82716049382717,0)" xlink:href="#Y"/><use transform="matrix(0.06172839506172839,0,0,0.06172839506172839,96.17283950617285,0)" xlink:href="#Z"/></g><path fill="#3a414a" d="M27 0v-27h64v-190l-56 39v-29l58-41h29v221h61V0H27" id="aa"/><path fill="#3a414a" d="M134-131c28 9 52 24 51 62-1 50-34 73-85 73S17-19 16-69c0-36 21-54 49-61-75-25-45-126 34-121 46 3 78 18 79 63 0 33-17 51-44 57zm-34-11c31 1 46-15 46-44 0-28-17-43-47-42-29 0-46 13-45 42 1 28 16 44 46 44zm1 122c35 0 51-18 51-52 0-30-18-46-53-46-33 0-51 17-51 47 0 34 19 51 53 51" id="ab"/><g id="e"><use transform="matrix(0.06172839506172839,0,0,0.06172839506172839,0,0)" xlink:href="#O"/><use transform="matrix(0.06172839506172839,0,0,0.06172839506172839,4.876543209876543,0)" xlink:href="#aa"/><use transform="matrix(0.06172839506172839,0,0,0.06172839506172839,17.22222222222222,0)" xlink:href="#ab"/><use transform="matrix(0.06172839506172839,0,0,0.06172839506172839,29.5679012345679,0)" xlink:href="#P"/></g><path fill="#3a414a" d="M30-248c87 1 191-15 191 75 0 78-77 80-158 76V0H30v-248zm33 125c57 0 124 11 124-50 0-59-68-47-124-48v98" id="ac"/><path fill="#3a414a" d="M33 0v-248h34V0H33" id="ad"/><g id="f"><use transform="matrix(0.06172839506172839,0,0,0.06172839506172839,0,0)" xlink:href="#R"/><use transform="matrix(0.06172839506172839,0,0,0.06172839506172839,14.814814814814813,0)" xlink:href="#ac"/><use transform="matrix(0.06172839506172839,0,0,0.06172839506172839,29.629629629629626,0)" xlink:href="#ad"/></g><path fill="#3a414a" d="M108 0H70L1-190h34L89-25l56-165h34" id="ae"/><g id="g"><use transform="matrix(0.06172839506172839,0,0,0.06172839506172839,0,0)" xlink:href="#W"/><use transform="matrix(0.06172839506172839,0,0,0.06172839506172839,11.11111111111111,0)" xlink:href="#K"/><use transform="matrix(0.06172839506172839,0,0,0.06172839506172839,23.45679012345679,0)" xlink:href="#Y"/><use transform="matrix(0.06172839506172839,0,0,0.06172839506172839,30.80246913580247,0)" xlink:href="#ae"/><use transform="matrix(0.06172839506172839,0,0,0.06172839506172839,41.91358024691358,0)" xlink:href="#K"/><use transform="matrix(0.06172839506172839,0,0,0.06172839506172839,54.25925925925926,0)" xlink:href="#Y"/></g><path fill="#3a414a" d="M177-190C167-65 218 103 67 71c-23-6-38-20-44-43l32-5c15 47 100 32 89-28v-30C133-14 115 1 83 1 29 1 15-40 15-95c0-56 16-97 71-98 29-1 48 16 59 35 1-10 0-23 2-32h30zM94-22c36 0 50-32 50-73 0-42-14-75-50-75-39 0-46 34-46 75s6 73 46 73" id="af"/><path fill="#3a414a" d="M185-189c-5-48-123-54-124 2 14 75 158 14 163 119 3 78-121 87-175 55-17-10-28-26-33-46l33-7c5 56 141 63 141-1 0-78-155-14-162-118-5-82 145-84 179-34 5 7 8 16 11 25" id="ag"/><path fill="#3a414a" d="M140-251c81 0 123 46 123 126C263-53 228-8 163 1c7 30 30 48 69 40v23c-55 16-95-15-103-61C56-3 17-48 17-125c0-80 42-126 123-126zm0 227c63 0 89-41 89-101s-29-99-89-99c-61 0-89 39-89 99S79-25 140-24" id="ah"/><path fill="#3a414a" d="M30 0v-248h33v221h125V0H30" id="ai"/><g id="h"><use transform="matrix(0.06172839506172839,0,0,0.06172839506172839,0,0)" xlink:href="#ac"/><use transform="matrix(0.06172839506172839,0,0,0.06172839506172839,14.814814814814813,0)" xlink:href="#X"/><use transform="matrix(0.06172839506172839,0,0,0.06172839506172839,27.160493827160494,0)" xlink:href="#W"/><use transform="matrix(0.06172839506172839,0,0,0.06172839506172839,38.27160493827161,0)" xlink:href="#Q"/><use transform="matrix(0.06172839506172839,0,0,0.06172839506172839,44.44444444444445,0)" xlink:href="#af"/><use transform="matrix(0.06172839506172839,0,0,0.06172839506172839,56.79012345679013,0)" xlink:href="#Y"/><use transform="matrix(0.06172839506172839,0,0,0.06172839506172839,64.13580246913581,0)" xlink:href="#K"/><use transform="matrix(0.06172839506172839,0,0,0.06172839506172839,76.4814814814815,0)" xlink:href="#ag"/><use transform="matrix(0.06172839506172839,0,0,0.06172839506172839,91.2962962962963,0)" xlink:href="#ah"/><use transform="matrix(0.06172839506172839,0,0,0.06172839506172839,108.58024691358025,0)" xlink:href="#ai"/></g><path fill="#3a414a" d="M179-190L93 31C79 59 56 82 12 73V49c39 6 53-20 64-50L1-190h34L92-34l54-156h33" id="aj"/><g id="i"><use transform="matrix(0.06172839506172839,0,0,0.06172839506172839,0,0)" xlink:href="#ad"/><use transform="matrix(0.06172839506172839,0,0,0.06172839506172839,6.172839506172839,0)" xlink:href="#P"/><use transform="matrix(0.06172839506172839,0,0,0.06172839506172839,18.51851851851852,0)" xlink:href="#ae"/><use transform="matrix(0.06172839506172839,0,0,0.06172839506172839,29.62962962962963,0)" xlink:href="#K"/><use transform="matrix(0.06172839506172839,0,0,0.06172839506172839,41.97530864197531,0)" xlink:href="#P"/><use transform="matrix(0.06172839506172839,0,0,0.06172839506172839,54.32098765432099,0)" xlink:href="#Q"/><use transform="matrix(0.06172839506172839,0,0,0.06172839506172839,60.49382716049383,0)" xlink:href="#X"/><use transform="matrix(0.06172839506172839,0,0,0.06172839506172839,72.8395061728395,0)" xlink:href="#Y"/><use transform="matrix(0.06172839506172839,0,0,0.06172839506172839,80.18518518518519,0)" xlink:href="#aj"/></g><path fill="#3a414a" d="M140-251c81 0 123 46 123 126C263-46 219 4 140 4 59 4 17-45 17-125s42-126 123-126zm0 227c63 0 89-41 89-101s-29-99-89-99c-61 0-89 39-89 99S79-25 140-24" id="ak"/><path fill="#3a414a" d="M233-177c-1 41-23 64-60 70L243 0h-38l-65-103H63V0H30v-248c88 3 205-21 203 71zM63-129c60-2 137 13 137-47 0-61-80-42-137-45v92" id="al"/><path fill="#3a414a" d="M240 0l2-218c-23 76-54 145-80 218h-23L58-218 59 0H30v-248h44l77 211c21-75 51-140 76-211h43V0h-30" id="am"/><g id="j"><use transform="matrix(0.06172839506172839,0,0,0.06172839506172839,0,0)" xlink:href="#ak"/><use transform="matrix(0.06172839506172839,0,0,0.06172839506172839,17.28395061728395,0)" xlink:href="#al"/><use transform="matrix(0.06172839506172839,0,0,0.06172839506172839,33.2716049382716,0)" xlink:href="#am"/></g><path fill="#3a414a" d="M145-31C134-9 116 4 85 4 32 4 16-35 15-94c0-59 17-99 70-100 32-1 48 14 60 33 0-11-1-24 2-32h30l-1 268h-32zM93-21c41 0 51-33 51-76s-8-73-50-73c-40 0-46 35-46 75s5 74 45 74" id="an"/><path fill="#3a414a" d="M47-170H22l-4-78h33" id="ao"/><g id="k"><use transform="matrix(0.06172839506172839,0,0,0.06172839506172839,0,0)" xlink:href="#al"/><use transform="matrix(0.06172839506172839,0,0,0.06172839506172839,15.987654320987653,0)" xlink:href="#K"/><use transform="matrix(0.06172839506172839,0,0,0.06172839506172839,28.333333333333332,0)" xlink:href="#an"/><use transform="matrix(0.06172839506172839,0,0,0.06172839506172839,40.67901234567901,0)" xlink:href="#ao"/><use transform="matrix(0.06172839506172839,0,0,0.06172839506172839,44.876543209876544,0)" xlink:href="#Q"/><use transform="matrix(0.06172839506172839,0,0,0.06172839506172839,51.04938271604939,0)" xlink:href="#W"/></g><path fill="#3a414a" d="M96-169c-40 0-48 33-48 73s9 75 48 75c24 0 41-14 43-38l32 2c-6 37-31 61-74 61-59 0-76-41-82-99-10-93 101-131 147-64 4 7 5 14 7 22l-32 3c-4-21-16-35-41-35" id="ap"/><g id="l"><use transform="matrix(0.06172839506172839,0,0,0.06172839506172839,0,0)" xlink:href="#ap"/><use transform="matrix(0.06172839506172839,0,0,0.06172839506172839,11.11111111111111,0)" xlink:href="#N"/><use transform="matrix(0.06172839506172839,0,0,0.06172839506172839,15.987654320987653,0)" xlink:href="#O"/><use transform="matrix(0.06172839506172839,0,0,0.06172839506172839,20.864197530864196,0)" xlink:href="#K"/><use transform="matrix(0.06172839506172839,0,0,0.06172839506172839,33.20987654320987,0)" xlink:href="#P"/><use transform="matrix(0.06172839506172839,0,0,0.06172839506172839,45.55555555555555,0)" xlink:href="#Q"/></g><g id="m"><use transform="matrix(0.06172839506172839,0,0,0.06172839506172839,0,0)" xlink:href="#Y"/><use transform="matrix(0.06172839506172839,0,0,0.06172839506172839,7.345679012345679,0)" xlink:href="#X"/><use transform="matrix(0.06172839506172839,0,0,0.06172839506172839,19.691358024691358,0)" xlink:href="#S"/><use transform="matrix(0.06172839506172839,0,0,0.06172839506172839,32.03703703703704,0)" xlink:href="#Q"/><use transform="matrix(0.06172839506172839,0,0,0.06172839506172839,38.20987654320988,0)" xlink:href="#K"/><use transform="matrix(0.06172839506172839,0,0,0.06172839506172839,50.55555555555556,0)" xlink:href="#W"/></g><g id="n"><use transform="matrix(0.06172839506172839,0,0,0.06172839506172839,0,0)" xlink:href="#U"/><use transform="matrix(0.06172839506172839,0,0,0.06172839506172839,15.987654320987653,0)" xlink:href="#V"/><use transform="matrix(0.06172839506172839,0,0,0.06172839506172839,28.333333333333332,0)" xlink:href="#Q"/><use transform="matrix(0.06172839506172839,0,0,0.06172839506172839,34.50617283950617,0)" xlink:href="#V"/></g><g id="o"><use transform="matrix(0.06172839506172839,0,0,0.06172839506172839,0,0)" xlink:href="#M"/><use transform="matrix(0.06172839506172839,0,0,0.06172839506172839,15.987654320987653,0)" xlink:href="#V"/><use transform="matrix(0.06172839506172839,0,0,0.06172839506172839,28.333333333333332,0)" xlink:href="#Q"/><use transform="matrix(0.06172839506172839,0,0,0.06172839506172839,34.50617283950617,0)" xlink:href="#V"/><use transform="matrix(0.06172839506172839,0,0,0.06172839506172839,46.85185185185185,0)" xlink:href="#N"/><use transform="matrix(0.06172839506172839,0,0,0.06172839506172839,51.72839506172839,0)" xlink:href="#X"/><use transform="matrix(0.06172839506172839,0,0,0.06172839506172839,64.07407407407408,0)" xlink:href="#af"/><use transform="matrix(0.06172839506172839,0,0,0.06172839506172839,76.41975308641976,0)" xlink:href="#S"/><use transform="matrix(0.06172839506172839,0,0,0.06172839506172839,88.76543209876544,0)" xlink:href="#K"/></g><g id="p"><use transform="matrix(0.06172839506172839,0,0,0.06172839506172839,0,0)" xlink:href="#R"/><use transform="matrix(0.06172839506172839,0,0,0.06172839506172839,14.814814814814813,0)" xlink:href="#S"/><use transform="matrix(0.06172839506172839,0,0,0.06172839506172839,27.160493827160494,0)" xlink:href="#Q"/><use transform="matrix(0.06172839506172839,0,0,0.06172839506172839,33.333333333333336,0)" xlink:href="#T"/></g><path fill="#3a414a" d="M232-93c-1 65-40 97-104 97C67 4 28-28 28-90v-158h33c8 89-33 224 67 224 102 0 64-133 71-224h33v155" id="aq"/><g id="q"><use transform="matrix(0.06172839506172839,0,0,0.06172839506172839,0,0)" xlink:href="#aq"/><use transform="matrix(0.06172839506172839,0,0,0.06172839506172839,15.987654320987653,0)" xlink:href="#ad"/></g><path fill="#3a414a" d="M101-234c-31-9-42 10-38 44h38v23H63V0H32v-167H5v-23h27c-7-52 17-82 69-68v24" id="ar"/><path fill="#3a414a" d="M210-169c-67 3-38 105-44 169h-31v-121c0-29-5-50-35-48C34-165 62-65 56 0H25l-1-190h30c1 10-1 24 2 32 10-44 99-50 107 0 11-21 27-35 58-36 85-2 47 119 55 194h-31v-121c0-29-5-49-35-48" id="as"/><path fill="#3a414a" d="M206 0h-36l-40-164L89 0H53L-1-190h32L70-26l43-164h34l41 164 42-164h31" id="at"/><path fill="#3a414a" d="M143 0L79-87 56-68V0H24v-261h32v163l83-92h37l-77 82L181 0h-38" id="au"/><g id="r"><use transform="matrix(0.06172839506172839,0,0,0.06172839506172839,0,0)" xlink:href="#ar"/><use transform="matrix(0.06172839506172839,0,0,0.06172839506172839,6.172839506172839,0)" xlink:href="#Y"/><use transform="matrix(0.06172839506172839,0,0,0.06172839506172839,13.518518518518519,0)" xlink:href="#V"/><use transform="matrix(0.06172839506172839,0,0,0.06172839506172839,25.864197530864196,0)" xlink:href="#as"/><use transform="matrix(0.06172839506172839,0,0,0.06172839506172839,44.32098765432099,0)" xlink:href="#K"/><use transform="matrix(0.06172839506172839,0,0,0.06172839506172839,56.666666666666664,0)" xlink:href="#at"/><use transform="matrix(0.06172839506172839,0,0,0.06172839506172839,72.65432098765432,0)" xlink:href="#X"/><use transform="matrix(0.06172839506172839,0,0,0.06172839506172839,85,0)" xlink:href="#Y"/><use transform="matrix(0.06172839506172839,0,0,0.06172839506172839,92.34567901234568,0)" xlink:href="#au"/></g><g id="s"><use transform="matrix(0.06172839506172839,0,0,0.06172839506172839,0,0)" xlink:href="#ag"/><use transform="matrix(0.06172839506172839,0,0,0.06172839506172839,14.814814814814813,0)" xlink:href="#X"/><use transform="matrix(0.06172839506172839,0,0,0.06172839506172839,27.160493827160494,0)" xlink:href="#S"/><use transform="matrix(0.06172839506172839,0,0,0.06172839506172839,39.50617283950617,0)" xlink:href="#Y"/><use transform="matrix(0.06172839506172839,0,0,0.06172839506172839,46.85185185185185,0)" xlink:href="#ap"/><use transform="matrix(0.06172839506172839,0,0,0.06172839506172839,57.96296296296296,0)" xlink:href="#K"/></g><g id="t"><use transform="matrix(0.06172839506172839,0,0,0.06172839506172839,0,0)" xlink:href="#al"/><use transform="matrix(0.06172839506172839,0,0,0.06172839506172839,15.987654320987653,0)" xlink:href="#K"/><use transform="matrix(0.06172839506172839,0,0,0.06172839506172839,28.333333333333332,0)" xlink:href="#W"/><use transform="matrix(0.06172839506172839,0,0,0.06172839506172839,39.44444444444444,0)" xlink:href="#X"/><use transform="matrix(0.06172839506172839,0,0,0.06172839506172839,51.79012345679012,0)" xlink:href="#N"/><use transform="matrix(0.06172839506172839,0,0,0.06172839506172839,56.666666666666664,0)" xlink:href="#ae"/><use transform="matrix(0.06172839506172839,0,0,0.06172839506172839,67.77777777777777,0)" xlink:href="#K"/><use transform="matrix(0.06172839506172839,0,0,0.06172839506172839,80.12345679012346,0)" xlink:href="#Y"/></g><g id="u"><use transform="matrix(0.06172839506172839,0,0,0.06172839506172839,0,0)" xlink:href="#ad"/><use transform="matrix(0.06172839506172839,0,0,0.06172839506172839,6.172839506172839,0)" xlink:href="#P"/><use transform="matrix(0.06172839506172839,0,0,0.06172839506172839,18.51851851851852,0)" xlink:href="#ae"/><use transform="matrix(0.06172839506172839,0,0,0.06172839506172839,29.62962962962963,0)" xlink:href="#K"/><use transform="matrix(0.06172839506172839,0,0,0.06172839506172839,41.97530864197531,0)" xlink:href="#P"/><use transform="matrix(0.06172839506172839,0,0,0.06172839506172839,54.32098765432099,0)" xlink:href="#Q"/><use transform="matrix(0.06172839506172839,0,0,0.06172839506172839,60.49382716049383,0)" xlink:href="#X"/><use transform="matrix(0.06172839506172839,0,0,0.06172839506172839,72.8395061728395,0)" xlink:href="#Y"/><use transform="matrix(0.06172839506172839,0,0,0.06172839506172839,80.18518518518519,0)" xlink:href="#aj"/></g><g id="v"><use transform="matrix(0.06172839506172839,0,0,0.06172839506172839,0,0)" xlink:href="#Q"/><use transform="matrix(0.06172839506172839,0,0,0.06172839506172839,6.172839506172839,0)" xlink:href="#V"/><use transform="matrix(0.06172839506172839,0,0,0.06172839506172839,18.51851851851852,0)" xlink:href="#L"/><use transform="matrix(0.06172839506172839,0,0,0.06172839506172839,30.864197530864196,0)" xlink:href="#N"/><use transform="matrix(0.06172839506172839,0,0,0.06172839506172839,35.74074074074074,0)" xlink:href="#K"/><use transform="matrix(0.06172839506172839,0,0,0.06172839506172839,48.08641975308642,0)" xlink:href="#W"/></g><g id="w"><use transform="matrix(0.06172839506172839,0,0,0.06172839506172839,0,0)" xlink:href="#al"/><use transform="matrix(0.06172839506172839,0,0,0.06172839506172839,15.987654320987653,0)" xlink:href="#K"/><use transform="matrix(0.06172839506172839,0,0,0.06172839506172839,28.333333333333332,0)" xlink:href="#an"/><use transform="matrix(0.06172839506172839,0,0,0.06172839506172839,40.67901234567901,0)" xlink:href="#ao"/><use transform="matrix(0.06172839506172839,0,0,0.06172839506172839,44.876543209876544,0)" xlink:href="#Q"/><use transform="matrix(0.06172839506172839,0,0,0.06172839506172839,51.04938271604939,0)" xlink:href="#W"/></g><g id="x"><use transform="matrix(0.06172839506172839,0,0,0.06172839506172839,0,0)" xlink:href="#M"/><use transform="matrix(0.06172839506172839,0,0,0.06172839506172839,15.987654320987653,0)" xlink:href="#V"/><use transform="matrix(0.06172839506172839,0,0,0.06172839506172839,28.333333333333332,0)" xlink:href="#Q"/><use transform="matrix(0.06172839506172839,0,0,0.06172839506172839,34.50617283950617,0)" xlink:href="#V"/><use transform="matrix(0.06172839506172839,0,0,0.06172839506172839,46.85185185185185,0)" xlink:href="#N"/><use transform="matrix(0.06172839506172839,0,0,0.06172839506172839,51.72839506172839,0)" xlink:href="#X"/><use transform="matrix(0.06172839506172839,0,0,0.06172839506172839,64.07407407407408,0)" xlink:href="#af"/><use transform="matrix(0.06172839506172839,0,0,0.06172839506172839,76.41975308641976,0)" xlink:href="#S"/><use transform="matrix(0.06172839506172839,0,0,0.06172839506172839,88.76543209876544,0)" xlink:href="#K"/></g><g id="y"><use transform="matrix(0.06172839506172839,0,0,0.06172839506172839,0,0)" xlink:href="#am"/><use transform="matrix(0.06172839506172839,0,0,0.06172839506172839,18.456790123456788,0)" xlink:href="#V"/><use transform="matrix(0.06172839506172839,0,0,0.06172839506172839,30.80246913580247,0)" xlink:href="#P"/><use transform="matrix(0.06172839506172839,0,0,0.06172839506172839,43.148148148148145,0)" xlink:href="#S"/><use transform="matrix(0.06172839506172839,0,0,0.06172839506172839,55.49382716049382,0)" xlink:href="#V"/><use transform="matrix(0.06172839506172839,0,0,0.06172839506172839,67.8395061728395,0)" xlink:href="#N"/></g><path fill="#3a414a" d="M30 0v-248h187v28H63v79h144v27H63v87h162V0H30" id="av"/><g id="z"><use transform="matrix(0.06172839506172839,0,0,0.06172839506172839,0,0)" xlink:href="#av"/><use transform="matrix(0.06172839506172839,0,0,0.06172839506172839,14.814814814814813,0)" xlink:href="#Z"/><use transform="matrix(0.06172839506172839,0,0,0.06172839506172839,27.160493827160494,0)" xlink:href="#O"/><use transform="matrix(0.06172839506172839,0,0,0.06172839506172839,32.03703703703704,0)" xlink:href="#Q"/><use transform="matrix(0.06172839506172839,0,0,0.06172839506172839,38.20987654320988,0)" xlink:href="#X"/><use transform="matrix(0.06172839506172839,0,0,0.06172839506172839,50.55555555555556,0)" xlink:href="#Y"/></g><g id="A"><use transform="matrix(0.06172839506172839,0,0,0.06172839506172839,0,0)" xlink:href="#aq"/><use transform="matrix(0.06172839506172839,0,0,0.06172839506172839,15.987654320987653,0)" xlink:href="#W"/><use transform="matrix(0.06172839506172839,0,0,0.06172839506172839,27.098765432098766,0)" xlink:href="#K"/><use transform="matrix(0.06172839506172839,0,0,0.06172839506172839,39.44444444444444,0)" xlink:href="#Y"/></g><g id="B"><use transform="matrix(0.06172839506172839,0,0,0.06172839506172839,0,0)" xlink:href="#Q"/><use transform="matrix(0.06172839506172839,0,0,0.06172839506172839,6.172839506172839,0)" xlink:href="#V"/><use transform="matrix(0.06172839506172839,0,0,0.06172839506172839,18.51851851851852,0)" xlink:href="#L"/><use transform="matrix(0.06172839506172839,0,0,0.06172839506172839,30.864197530864196,0)" xlink:href="#N"/><use transform="matrix(0.06172839506172839,0,0,0.06172839506172839,35.74074074074074,0)" xlink:href="#K"/><use transform="matrix(0.06172839506172839,0,0,0.06172839506172839,48.08641975308642,0)" xlink:href="#W"/></g><path fill="#3a414a" d="M143 4C61 4 22-44 18-125c-5-107 100-154 193-111 17 8 29 25 37 43l-32 9c-13-25-37-40-76-40-61 0-88 39-88 99 0 61 29 100 91 101 35 0 62-11 79-27v-45h-74v-28h105v86C228-13 192 4 143 4" id="aw"/><g id="C"><use transform="matrix(0.06172839506172839,0,0,0.06172839506172839,0,0)" xlink:href="#aw"/><use transform="matrix(0.06172839506172839,0,0,0.06172839506172839,17.28395061728395,0)" xlink:href="#N"/><use transform="matrix(0.06172839506172839,0,0,0.06172839506172839,22.160493827160494,0)" xlink:href="#X"/><use transform="matrix(0.06172839506172839,0,0,0.06172839506172839,34.50617283950617,0)" xlink:href="#L"/><use transform="matrix(0.06172839506172839,0,0,0.06172839506172839,46.85185185185185,0)" xlink:href="#V"/><use transform="matrix(0.06172839506172839,0,0,0.06172839506172839,59.197530864197525,0)" xlink:href="#N"/></g><g id="D"><use transform="matrix(0.06172839506172839,0,0,0.06172839506172839,0,0)" xlink:href="#R"/><use transform="matrix(0.06172839506172839,0,0,0.06172839506172839,14.814814814814813,0)" xlink:href="#ac"/><use transform="matrix(0.06172839506172839,0,0,0.06172839506172839,29.629629629629626,0)" xlink:href="#ad"/></g><g id="E"><use transform="matrix(0.06172839506172839,0,0,0.06172839506172839,0,0)" xlink:href="#ag"/><use transform="matrix(0.06172839506172839,0,0,0.06172839506172839,14.814814814814813,0)" xlink:href="#K"/><use transform="matrix(0.06172839506172839,0,0,0.06172839506172839,27.160493827160494,0)" xlink:href="#Y"/><use transform="matrix(0.06172839506172839,0,0,0.06172839506172839,34.50617283950617,0)" xlink:href="#ae"/><use transform="matrix(0.06172839506172839,0,0,0.06172839506172839,45.61728395061728,0)" xlink:href="#O"/><use transform="matrix(0.06172839506172839,0,0,0.06172839506172839,50.49382716049382,0)" xlink:href="#ap"/><use transform="matrix(0.06172839506172839,0,0,0.06172839506172839,61.60493827160494,0)" xlink:href="#K"/></g><path fill="#3a414a" d="M127-220V0H93v-220H8v-28h204v28h-85" id="ax"/><g id="F"><use transform="matrix(0.06172839506172839,0,0,0.06172839506172839,0,0)" xlink:href="#M"/><use transform="matrix(0.06172839506172839,0,0,0.06172839506172839,15.987654320987653,0)" xlink:href="#N"/><use transform="matrix(0.06172839506172839,0,0,0.06172839506172839,20.864197530864196,0)" xlink:href="#O"/><use transform="matrix(0.06172839506172839,0,0,0.06172839506172839,25.74074074074074,0)" xlink:href="#as"/><use transform="matrix(0.06172839506172839,0,0,0.06172839506172839,44.19753086419753,0)" xlink:href="#V"/><use transform="matrix(0.06172839506172839,0,0,0.06172839506172839,56.54320987654321,0)" xlink:href="#Q"/><use transform="matrix(0.06172839506172839,0,0,0.06172839506172839,62.71604938271605,0)" xlink:href="#K"/><use transform="matrix(0.06172839506172839,0,0,0.06172839506172839,75.06172839506173,0)" xlink:href="#ax"/><use transform="matrix(0.06172839506172839,0,0,0.06172839506172839,87.77777777777779,0)" xlink:href="#Y"/><use transform="matrix(0.06172839506172839,0,0,0.06172839506172839,95.12345679012347,0)" xlink:href="#V"/><use transform="matrix(0.06172839506172839,0,0,0.06172839506172839,107.46913580246915,0)" xlink:href="#ap"/><use transform="matrix(0.06172839506172839,0,0,0.06172839506172839,118.58024691358027,0)" xlink:href="#K"/></g><g id="G"><use transform="matrix(0.06172839506172839,0,0,0.06172839506172839,0,0)" xlink:href="#R"/><use transform="matrix(0.06172839506172839,0,0,0.06172839506172839,14.814814814814813,0)" xlink:href="#ac"/><use transform="matrix(0.06172839506172839,0,0,0.06172839506172839,29.629629629629626,0)" xlink:href="#ad"/></g><g id="H"><use transform="matrix(0.06172839506172839,0,0,0.06172839506172839,0,0)" xlink:href="#ag"/><use transform="matrix(0.06172839506172839,0,0,0.06172839506172839,14.814814814814813,0)" xlink:href="#Q"/><use transform="matrix(0.06172839506172839,0,0,0.06172839506172839,20.98765432098765,0)" xlink:href="#V"/><use transform="matrix(0.06172839506172839,0,0,0.06172839506172839,33.33333333333333,0)" xlink:href="#Q"/><use transform="matrix(0.06172839506172839,0,0,0.06172839506172839,39.50617283950617,0)" xlink:href="#K"/></g><g id="I"><use transform="matrix(0.06172839506172839,0,0,0.06172839506172839,0,0)" xlink:href="#am"/><use transform="matrix(0.06172839506172839,0,0,0.06172839506172839,18.456790123456788,0)" xlink:href="#V"/><use transform="matrix(0.06172839506172839,0,0,0.06172839506172839,30.80246913580247,0)" xlink:href="#P"/><use transform="matrix(0.06172839506172839,0,0,0.06172839506172839,43.148148148148145,0)" xlink:href="#V"/><use transform="matrix(0.06172839506172839,0,0,0.06172839506172839,55.49382716049382,0)" xlink:href="#af"/><use transform="matrix(0.06172839506172839,0,0,0.06172839506172839,67.8395061728395,0)" xlink:href="#K"/><use transform="matrix(0.06172839506172839,0,0,0.06172839506172839,80.18518518518519,0)" xlink:href="#as"/><use transform="matrix(0.06172839506172839,0,0,0.06172839506172839,98.64197530864197,0)" xlink:href="#K"/><use transform="matrix(0.06172839506172839,0,0,0.06172839506172839,110.98765432098766,0)" xlink:href="#P"/><use transform="matrix(0.06172839506172839,0,0,0.06172839506172839,123.33333333333334,0)" xlink:href="#Q"/></g></defs></g></svg>